<?xml version="1.0" encoding="utf-8"?>
<!-- Generator: Adobe Illustrator 22.1.0, SVG Export Plug-In . SVG Version: 6.00 Build 0)  -->
<svg version="1.1" id="Capa_1" xmlns="http://www.w3.org/2000/svg" xmlns:xlink="http://www.w3.org/1999/xlink" x="0px" y="0px"
	 viewBox="0 0 800 800" style="enable-background:new 0 0 800 800;" xml:space="preserve">
<style type="text/css">
	.st0{fill:#006833;}
</style>
<g>
	<path class="st0" d="M684.4,205.4c0,0-0.1,0-0.1,0H523.9v-17.7c0-29.3-23.8-53.1-53.1-53.1H329.2c-29.3,0-53.1,23.8-53.1,53.1v17.7
		H115.7c-9.8,0-17.7,8.1-17.7,17.7v389.3c0,29.3,23.8,53.1,53.1,53.1h497.8c29.3,0,53.1-23.8,53.1-53.1V223.4c0,0,0,0,0-0.1
		C701.3,211.8,694.1,205.4,684.4,205.4L684.4,205.4z M311.5,187.7c0-9.8,7.9-17.7,17.7-17.7h141.5c9.8,0,17.7,7.9,17.7,17.7v17.7
		H311.5V187.7z M659.7,240.8l-54.9,164.8c-2.4,7.2-9.2,12.1-16.8,12.1h-99.5V400c0-9.8-7.9-17.7-17.7-17.7H329.2
		c-9.8,0-17.7,7.9-17.7,17.7v17.7H212c-7.6,0-14.4-4.9-16.8-12.1l-54.9-164.8H659.7z M453.1,417.7v35.4H346.9v-35.4H453.1z
		 M666.6,612.3c0,9.8-7.9,17.7-17.7,17.7H151.1c-9.8,0-17.7-7.9-17.7-17.7V332.1l28.2,84.7c7.2,21.7,27.5,36.3,50.4,36.3h99.5v17.7
		c0,9.8,7.9,17.7,17.7,17.7h141.5c9.8,0,17.7-7.9,17.7-17.7v-17.7H588c22.9,0,43.1-14.6,50.4-36.3l28.2-84.7V612.3z M666.6,612.3"/>
</g>
</svg>
