<?xml version="1.0" encoding="utf-8"?>
<!-- Generator: Adobe Illustrator 21.1.0, SVG Export Plug-In . SVG Version: 6.00 Build 0)  -->
<svg version="1.1" id="Capa_1" xmlns="http://www.w3.org/2000/svg" xmlns:xlink="http://www.w3.org/1999/xlink" x="0px" y="0px"
	 viewBox="0 0 800 800" style="enable-background:new 0 0 800 800;" xml:space="preserve">
<style type="text/css">
	.st0{fill:#006633;}
</style>
<g>
	<path class="st0" d="M400,675.5c-7.7,0-15.3,0.1-23,0c-18.1-0.3-31.8-14.1-32-32.2c-0.1-10.9,0.1-21.8-0.1-32.7
		c-0.3-14-7-24.1-19.7-29.8c-12.2-5.5-25.7-2.7-35.5,7c-7.2,7.2-14.1,14.6-21.2,21.9c-14.4,14.8-33.7,15.1-48.3,0.6
		c-10.2-10.1-20.5-20.1-30.6-30.3c-14.2-14.1-14.2-33.3-0.1-47.4c7.2-7.2,14.5-14.2,21.7-21.4c10.4-10.4,13.5-23.7,7.9-36.3
		c-5.8-13.2-16.3-19.8-30.8-19.9c-10.5-0.1-21.1,0.1-31.6,0c-18.4-0.2-32.3-14-32.4-32.4c-0.1-15.1-0.1-30.2,0-45.4
		c0.2-18.2,13.9-31.9,32.1-32.2c10.9-0.1,21.8,0,32.7-0.1c13.6-0.1,25.3-7.8,30.1-20.1c5.1-13.3,2.5-25.3-7.4-35.4
		c-7.2-7.4-14.9-14.3-22.3-21.6c-14-13.8-14.1-33-0.4-47c10.2-10.4,20.4-20.8,30.7-31.1c14.3-14.4,33.4-14.3,47.8,0.1
		c7.2,7.2,14.2,14.5,21.4,21.7c10.1,10.1,23.4,12.9,35.9,7.8c12.4-5.1,19.9-16.6,20-30.8c0.1-10.5,0-21.1,0-31.6
		c0.2-18.8,13.9-32.5,32.8-32.6c14.7-0.1,29.5-0.1,44.2,0c19.1,0.1,32.8,13.9,32.9,33.1c0.1,10.5-0.1,21.1,0,31.6
		c0.2,14.2,6.9,24.5,19.9,30.2c12.4,5.4,25.9,2.4,35.8-7.6c7.3-7.4,14.3-15,21.6-22.3c13.5-13.6,32.9-13.7,46.6-0.2
		c10.5,10.3,21,20.7,31.5,31c13.9,13.8,13.9,33.2,0.1,47c-7.3,7.3-14.8,14.5-22.1,21.8c-10.3,10.4-13.4,23.7-7.7,36.3
		c5.9,13.2,16.5,19.6,30.9,19.6c10.5,0,21.1-0.1,31.6,0c18.1,0.2,31.9,14,32.1,32.1c0.2,15.3,0.2,30.6,0,45.9
		c-0.2,17.8-14,31.6-31.8,31.9c-10.9,0.2-21.8-0.1-32.7,0.1c-14.2,0.2-24.5,6.9-30.3,19.8c-5.5,12.3-2.5,26,7.5,35.9
		c7.3,7.3,14.9,14.3,22.3,21.6c13.7,13.5,13.8,32.8,0.4,46.6c-10.3,10.5-20.7,21-31.1,31.5c-14.1,14.1-33.3,14-47.4-0.1
		c-7.2-7.2-14.2-14.5-21.4-21.7c-10.3-10.3-23.8-13.4-36.3-7.8c-13.2,5.9-19.7,16.4-19.8,30.9c0,10.3,0.1,20.7,0,31
		c-0.1,19.1-13.9,32.7-33.1,32.9C414.6,675.6,407.3,675.5,400,675.5z M399.5,504.4c56.5,0.6,104.5-46.5,104.9-103
		c0.5-57.3-45.9-105.1-102.7-105.8c-57.8-0.7-105.4,45.8-106.1,103.6C295,456.4,341.8,503.8,399.5,504.4z"/>
</g>
</svg>
