<?xml version="1.0" encoding="utf-8"?>
<!-- Generator: Adobe Illustrator 22.1.0, SVG Export Plug-In . SVG Version: 6.00 Build 0)  -->
<svg version="1.1" id="Capa_1" xmlns="http://www.w3.org/2000/svg" xmlns:xlink="http://www.w3.org/1999/xlink" x="0px" y="0px"
	 viewBox="0 0 800 800" style="enable-background:new 0 0 800 800;" xml:space="preserve">
<style type="text/css">
	.st0{fill:#006833;}
</style>
<g>
	<path class="st0" d="M648.5,141H151.5c-5.8,0-10.5,4.7-10.5,10.5v496.9c0,5.8,4.7,10.5,10.5,10.5h422.4c5.8,0,10.5-4.7,10.5-10.5
		c0-5.8-4.7-10.5-10.5-10.5H162.1V162.1h475.8v486.4c0,5.8,4.7,10.5,10.5,10.5c5.8,0,10.5-4.7,10.5-10.5V151.5
		C659,145.7,654.3,141,648.5,141L648.5,141z M648.5,141"/>
	<path class="st0" d="M256.6,250.7c-22.3,0-40.4,18.1-40.4,40.4s18.1,40.4,40.4,40.4c22.3,0,40.4-18.1,40.4-40.4
		S278.9,250.7,256.6,250.7L256.6,250.7z M256.6,310.4c-10.7,0-19.3-8.7-19.3-19.3c0-10.7,8.7-19.3,19.3-19.3
		c10.7,0,19.3,8.7,19.3,19.3C275.9,301.7,267.3,310.4,256.6,310.4L256.6,310.4z M256.6,310.4"/>
	<path class="st0" d="M574.6,280.5h-246c-5.8,0-10.5,4.7-10.5,10.5c0,5.8,4.7,10.5,10.5,10.5h246c5.8,0,10.5-4.7,10.5-10.5
		C585.2,285.3,580.4,280.5,574.6,280.5L574.6,280.5z M574.6,280.5"/>
	<path class="st0" d="M256.6,359.6c-5.8,0-10.5,4.7-10.5,10.5c0,5.8,4.7,10.5,10.5,10.5c10.7,0,19.3,8.7,19.3,19.3
		c0,10.7-8.7,19.3-19.3,19.3c-10.7,0-19.3-8.7-19.3-19.3c0-5.8-4.7-10.5-10.5-10.5c-5.8,0-10.5,4.7-10.5,10.5
		c0,22.3,18.1,40.4,40.4,40.4c22.3,0,40.4-18.1,40.4-40.4C297,377.7,278.9,359.6,256.6,359.6L256.6,359.6z M256.6,359.6"/>
	<path class="st0" d="M574.6,389.5h-246c-5.8,0-10.5,4.7-10.5,10.5c0,5.8,4.7,10.5,10.5,10.5h246c5.8,0,10.5-4.7,10.5-10.5
		C585.2,394.2,580.4,389.5,574.6,389.5L574.6,389.5z M574.6,389.5"/>
	<path class="st0" d="M256.6,468.5c-22.3,0-40.4,18.1-40.4,40.4c0,22.3,18.1,40.4,40.4,40.4c22.3,0,40.4-18.1,40.4-40.4
		C297,486.6,278.9,468.5,256.6,468.5L256.6,468.5z M256.6,528.3c-10.7,0-19.3-8.7-19.3-19.3c0-10.7,8.7-19.3,19.3-19.3
		c10.7,0,19.3,8.7,19.3,19.3C275.9,519.6,267.3,528.3,256.6,528.3L256.6,528.3z M256.6,528.3"/>
	<path class="st0" d="M574.6,498.4h-246c-5.8,0-10.5,4.7-10.5,10.5c0,5.8,4.7,10.5,10.5,10.5h246c5.8,0,10.5-4.7,10.5-10.5
		C585.2,503.1,580.4,498.4,574.6,498.4L574.6,498.4z M574.6,498.4"/>
</g>
</svg>
