<?xml version="1.0" encoding="utf-8"?>
<!-- Generator: Adobe Illustrator 21.1.0, SVG Export Plug-In . SVG Version: 6.00 Build 0)  -->
<svg version="1.1" id="Capa_1" xmlns="http://www.w3.org/2000/svg" xmlns:xlink="http://www.w3.org/1999/xlink" x="0px" y="0px"
	 viewBox="0 0 800 800" style="enable-background:new 0 0 800 800;" xml:space="preserve">
<style type="text/css">
	.st0{fill:#006633;}
</style>
<g>
	<path class="st0" d="M101,430.6c2.5-102.8,40.6-179.6,115.7-238c14.3-11.1,29.8-16.5,47.1-8.2c13.4,6.5,21.3,17.7,22.5,32.9
		c1.2,16.4-5.8,28.5-19,38.1c-45,32.9-72.2,77.2-82.7,131.9c-21,109,58.2,221.5,167.8,238.3c114.6,17.6,216.6-52,237.7-166.1
		c15.3-83.1-13.9-151.7-80.9-203.3c-14.3-11.1-25.2-23-22.9-42c3.7-31,37.1-46.2,63.1-28.2c65.2,45.2,106.2,107.2,120.3,185.1
		c27.3,149.8-65.2,291.6-213.4,329.5C303,739.8,142.5,641.2,108.8,486.4C104.3,465.6,102.9,444.2,101,430.6z"/>
	<path class="st0" d="M428.4,222.4c0,28.8,0.1,57.6,0,86.4c-0.1,25.9-16.8,44.5-39.8,44.8c-23.6,0.3-40.8-18.4-40.9-45.2
		c-0.2-57.6-0.2-115.3,0-172.9c0.1-26.6,17.5-45.3,41.3-44.7c23.1,0.5,39.4,19,39.5,45.1C428.4,164.8,428.4,193.6,428.4,222.4z"/>
</g>
</svg>
