<svg id="Capa_1" data-name="Capa 1" xmlns="http://www.w3.org/2000/svg" viewBox="0 0 800 800"><defs><style>.cls-1{fill:#353534;}.cls-2{fill:#00a033;}.cls-3{fill:#009133;}.cls-4{fill:#1d1d1b;}.cls-5{fill:#006833;}.cls-6{fill:#1d401b;}.cls-7{fill:none;stroke:#1d401b;stroke-linecap:round;stroke-linejoin:round;stroke-width:0.75px;}.cls-8{fill:#fff;}</style></defs><title>Mesa de trabajo 4</title><ellipse class="cls-1" cx="432.47" cy="706.5" rx="68.79" ry="16.12"/><path class="cls-1" d="M620.11,238.79S433.64,272.44,376.52,195c0,0-99.52,124.8-194.89,88.82,0,0,32.64,266.73,221.19,356.28C402.82,640.06,586.81,639.21,620.11,238.79Z"/><path class="cls-2" d="M377.24,232.77a72.67,72.67,0,0,0,9.82,10.49c-6.38,134.16-53.86,293.12,22.78,366.09a64.55,64.55,0,0,1-11,1.45C234.07,535.33,206.36,308.85,206.36,308.85,289.72,339.11,377.24,232.77,377.24,232.77Z"/><path class="cls-3" d="M387.06,243.26c58.42,51.82,203.28,26,203.28,26-25.62,286.34-143.71,332.64-180.5,340.13C333.2,536.38,380.68,377.42,387.06,243.26Z"/><path class="cls-4" d="M616,243.28a5.13,5.13,0,0,0,4.24,1.62l.24,0-.12,0-.26,0-1,.16-2,.3L613,246l-8.09,1q-8.09,1-16.19,1.68-16.2,1.44-32.46,2a468,468,0,0,1-65-2c-21.61-2.29-43.19-6.46-63.76-14.15-20.35-7.81-40.05-19.8-53.24-37.93h0l4.47.09A356.38,356.38,0,0,1,338.91,238a287.5,287.5,0,0,1-46.39,34c-16.65,9.65-34.77,17.42-54.11,21a120.09,120.09,0,0,1-29.48,1.83,115.39,115.39,0,0,1-29.1-6.17h0l6.95-5.45c4.91,35.33,13.69,70.67,24.79,104.88a577.81,577.81,0,0,0,42.59,99.17c17.47,31.45,38.33,61.13,63.35,87A326.48,326.48,0,0,0,358,609.67c14.44,10.73,30,19.74,46.07,27.85l-1.22-.28h0c9.48-.57,19.44-3.22,28.72-6.59a149.2,149.2,0,0,0,26.87-13.14c17.12-10.36,32.29-23.8,45.72-38.68,26.79-30,46.22-66.08,61.14-103.49,15.14-37.46,25.19-76.88,33-116.57,1.88-9.94,3.85-19.87,5.25-29.91s3.24-20,4.32-30.08l1.83-15.09c.64-5.05,1.24-10.24,1.63-14.31C612.19,260.76,614,252.5,616,243.28Zm8.15-9c0,11.06-.11,23.08-1.19,34.73-.48,6.08-1.23,11-1.9,16L619,300.29c-1.22,10.17-3.12,20.25-4.77,30.35s-3.67,20.16-5.71,30.2c-8.44,40.08-19.15,79.89-35.07,117.84-15.7,37.88-36,74.48-64,105-14,15.13-29.88,28.82-47.79,39.33a155.22,155.22,0,0,1-28.13,13.29c-9.88,3.4-19.86,6-30.74,6.55h0a2.81,2.81,0,0,1-1.23-.27c-16.44-8.09-32.45-17.12-47.3-27.9a333.55,333.55,0,0,1-41.69-35.77c-25.79-26.07-47.34-56.06-65.44-87.84a586.08,586.08,0,0,1-44.31-100.17c-11.64-34.7-20.87-70-26.36-106.52a5.07,5.07,0,0,1,6.52-5.59l.43.13h0a105.28,105.28,0,0,0,26.23,6.12A110.33,110.33,0,0,0,236.84,284c18-2.93,35.49-9.93,51.75-18.91a280.9,280.9,0,0,0,45.86-32.17,351.29,351.29,0,0,0,39.86-39.66,2.89,2.89,0,0,1,4.07-.34,4.31,4.31,0,0,1,.37.37l0,0h0c12.72,16.58,31.5,27.46,51.21,34.46,19.91,6.88,40.95,10.43,62.08,12.13a457.89,457.89,0,0,0,63.73.31q15.93-1,31.8-2.79,7.92-.92,15.82-2l7.87-1.2,3.91-.65,1.94-.34,1-.17.86-.14A7.25,7.25,0,0,1,624.19,234.3Z"/><path class="cls-5" d="M318.33,397.71a11,11,0,0,1-8.22-16.93c.81-1.24,20.35-30.64,58.35-38.41,28.72-5.88,59.6,2.07,91.81,23.61a11,11,0,1,1-12.22,18.27c-27-18.07-52.22-24.94-74.88-20.41-29,5.79-44.52,28.76-44.68,29A11,11,0,0,1,318.33,397.71Z"/><path class="cls-4" d="M317.31,390.87A11,11,0,0,1,309.09,374c.82-1.25,20.36-30.64,58.36-38.41,28.72-5.88,59.6,2.07,91.81,23.6A11,11,0,0,1,447,377.42c-27-18.07-52.22-24.94-74.88-20.41-29,5.79-44.52,28.76-44.68,29A11,11,0,0,1,317.31,390.87Z"/><path class="cls-6" d="M315.06,485.34,322,478.8a3.81,3.81,0,0,1,5.39.17l.23.27.95,1.22a92.43,92.43,0,0,0,29,24.6c11.24,5.9,23.94,8.69,36.36,7s24.25-7.36,34.69-15.06,19.66-17.36,28-27.64l.55-.67a3.65,3.65,0,0,1,4.53-.92l11.43,6.06a2.26,2.26,0,0,1-1.26,4.24L459,476.87l5.07-1.59c-8.68,10.79-18.24,21.12-29.65,29.55S409.85,520,395.25,522s-29.66-1.14-42.43-7.8A102.29,102.29,0,0,1,320,486.62l6.56,1.65-9.43,1.41a2.53,2.53,0,0,1-2.1-4.34Z"/><path class="cls-7" d="M383.76,547.88s10.59,2.14,16.31-1.07"/><path class="cls-4" d="M208.33,180.24a11,11,0,0,1-10.77-13.17l3.11-15.34a10.3,10.3,0,0,1,.57-1.89l10.58-26.51-.06-.07a11,11,0,0,1-2.54-9.38l3.62-18.41a11,11,0,0,1,10.06-8.84l23.3-1.56a10.74,10.74,0,0,1,9,3.7,11,11,0,0,1,2.54,9.37l-3.61,18.41a11,11,0,0,1-6.42,8L248,152.1a10.34,10.34,0,0,1-.22,2.29l-3.11,15.34a11,11,0,0,1-10,8.78l-25.52,1.71C208.82,180.24,208.58,180.24,208.33,180.24ZM222,157.07l-.06.26,2.79-.19,1.21-6,0-3.87Z"/><path class="cls-4" d="M241,178.06a11,11,0,0,1-10.78-13.13l14.19-71.59a11,11,0,0,1,10.05-8.82l60-4a11,11,0,0,1,11.51,13.12L322,113.27a10.92,10.92,0,0,1-3.78,6.31,9.5,9.5,0,0,1-.15,1.07l-3.35,17.07a11,11,0,0,1,1.38,7.78l-3.83,19.63A11,11,0,0,1,302.2,174l-60.49,4C241.47,178.06,241.22,178.06,241,178.06Zm23.33-72.17-9.76,49.26,6.79-.45a11,11,0,0,1-4.18-11l1.59-7.78a11,11,0,0,1,6-7.69l-.11-.13a11,11,0,0,1-2.52-9.39l1.43-7.26a11,11,0,0,1,3.09-5.71Z"/><path class="cls-4" d="M302.26,174a11,11,0,0,1-8.5-17.95l27.56-33.74-13.16-26a11,11,0,0,1,9.07-15.93l25.42-1.7A10.92,10.92,0,0,1,353.36,85l.1.2,2.94-3.79a11,11,0,0,1,8-4.24l27.23-1.81a11,11,0,0,1,9.24,17.92l-25.31,31L390,152.78A11,11,0,0,1,381,168.73l-25.42,1.7a11,11,0,0,1-10.73-6.4l-1.33-2.93-5.32,6.82a11,11,0,0,1-7.94,4.21L303,173.94C302.76,174,302.51,174,302.26,174ZM346,129.08a11.17,11.17,0,0,1,1.29.08A11,11,0,0,1,356,135.5L361.66,148l1.23-.08-10.23-20.1a11,11,0,0,1,.46-10.79,10.83,10.83,0,0,1-3.32.13,11,11,0,0,1-8.73-6.33l-4.5-9.76-1.3.08,8.89,17.59a11,11,0,0,1-.34,10.56A10.76,10.76,0,0,1,346,129.08Z"/><path class="cls-4" d="M381.64,168.66a11,11,0,0,1-10.78-13.13l14.19-71.59a11,11,0,0,1,10-8.83l23.52-1.57a11,11,0,0,1,11.51,13.1l-14.18,71.59a11,11,0,0,1-10.05,8.84l-23.51,1.56C382.13,168.65,381.89,168.66,381.64,168.66ZM405,96.48l-9.76,49.27.8-.06,9.76-49.26Z"/><path class="cls-4" d="M431,165.36a11,11,0,0,1-10.78-13.13l7.4-37.27-6.39.42a11,11,0,0,1-11.52-13.09l4-20.25a11,11,0,0,1,10.05-8.84l64.9-4.34a10.85,10.85,0,0,1,9,3.71A11,11,0,0,1,500.15,82l-4,20.25A11,11,0,0,1,486.11,111l-12.3.83-8.55,43.07a11,11,0,0,1-10.05,8.83l-23.51,1.57C431.45,165.36,431.21,165.36,431,165.36Zm16-71.68a10.8,10.8,0,0,1,2.48,2.1,11,11,0,0,1,2.53,9.4l-7.41,37.27.8,0,8.55-43.08A11,11,0,0,1,457.71,93Z"/><path class="cls-4" d="M519.63,160.75a48.87,48.87,0,0,1-14.51-2.11A45.14,45.14,0,0,1,490,150.71a41.15,41.15,0,0,1-10.69-13.09,42.11,42.11,0,0,1-4.64-16.74,50.9,50.9,0,0,1,2.72-20.18,54,54,0,0,1,9.78-17.27,52.32,52.32,0,0,1,15.8-12.61,51.19,51.19,0,0,1,20.57-5.71,49.44,49.44,0,0,1,18.3,2A45.35,45.35,0,0,1,557,75a41.49,41.49,0,0,1,10.7,13.08,42.14,42.14,0,0,1,4.63,16.75A50.9,50.9,0,0,1,569.59,125a53.87,53.87,0,0,1-9.8,17.29A52.09,52.09,0,0,1,544,154.91a51.21,51.21,0,0,1-20.6,5.71h0C522.15,160.71,520.88,160.75,519.63,160.75Zm3.07-11.09h0ZM501.43,101a32.81,32.81,0,0,0-3.32,6.9,28.81,28.81,0,0,0-1.54,11.52,19.91,19.91,0,0,0,2.18,8,19.14,19.14,0,0,0,5,6.15,22.2,22.2,0,0,0,6.74,3.68,21.06,21.06,0,0,1-5.2-3.78,23.33,23.33,0,0,1-5.13-7.52,26.86,26.86,0,0,1-2.08-8.76,31.46,31.46,0,0,1,1.08-10.37A30.78,30.78,0,0,1,501.43,101Zm34.93-12.56a21.63,21.63,0,0,1,5.25,3.76,24,24,0,0,1,5.14,7.56,26.71,26.71,0,0,1,2.08,8.82,31.46,31.46,0,0,1-1.08,10.31,30.76,30.76,0,0,1-2.26,5.86,32.29,32.29,0,0,0,3.33-6.92,28.7,28.7,0,0,0,1.55-11.5,19.88,19.88,0,0,0-2.19-8,19.16,19.16,0,0,0-5-6.16A23,23,0,0,0,536.36,88.44Zm-11.22,19.4h-.39a2.71,2.71,0,0,0-1.34.37,6.26,6.26,0,0,0-1.75,1.69,8.45,8.45,0,0,0-1.27,2.73,9.5,9.5,0,0,0-.36,3.08,5.31,5.31,0,0,0,.35,1.6c.42.5.82.63,1.8.56h0a2.59,2.59,0,0,0,1.32-.35,6.67,6.67,0,0,0,1.77-1.7,8.58,8.58,0,0,0,1.26-2.74,9,9,0,0,0,.35-3.07,5.06,5.06,0,0,0-.34-1.6A1.7,1.7,0,0,0,525.14,107.84Z"/><path class="cls-4" d="M560.78,156.68A11,11,0,0,1,550,143.57l3.62-18.4a11,11,0,0,1,6.4-8l-.26-27.59a11,11,0,0,1,.22-2.28L563.09,72a11,11,0,0,1,10-8.78l25.53-1.71a11,11,0,0,1,11.5,13.16L607,90a11.11,11.11,0,0,1-.56,1.89L595.9,118.4l.05.06a11,11,0,0,1,2.54,9.38l-3.61,18.41a11,11,0,0,1-10,8.85l-23.32,1.56C561.27,156.68,561,156.68,560.78,156.68Zm21-66.11,0,3.87,4-10-2.78.18Z"/><path class="cls-8" d="M208.33,173.49a5.1,5.1,0,0,1-5-6.12L206.44,152a5.54,5.54,0,0,1,.26-.88l12.38-31a5.18,5.18,0,0,1-2.91-1.64,5.12,5.12,0,0,1-1.17-4.36l3.62-18.41a5.1,5.1,0,0,1,4.67-4.11l23.3-1.56a5.33,5.33,0,0,1,4.17,1.72,5.09,5.09,0,0,1,1.18,4.36l-3.61,18.4a5.11,5.11,0,0,1-4.67,4.12l-1.9.12.31,32.5a5.54,5.54,0,0,1-.1,1.07l-3.11,15.34a5.13,5.13,0,0,1-4.67,4.08l-25.52,1.7Zm8-19-1.69,8.34,15-1,2.23-11-.26-27.54-2.86.19Zm11.53-52.95-1.58,8,12.77-.85,1.58-8Z"/><path class="cls-8" d="M241,171.31a5.12,5.12,0,0,1-5-6.1l14.19-71.59a5.11,5.11,0,0,1,4.67-4.1l60-4a5.11,5.11,0,0,1,5.35,6.1l-3.94,19.64a5.12,5.12,0,0,1-4.41,4.07,5.1,5.1,0,0,1,.47,3.33l-3.39,17.29a5.17,5.17,0,0,1-1,2.19,4.86,4.86,0,0,1,1.24,1,5.09,5.09,0,0,1,1.18,4.35l-3.83,19.63a5.11,5.11,0,0,1-4.67,4.12l-60.49,4Zm18.44-71.86-12.14,61.21,49.93-3.33,1.81-9.26-30.76,2.05a5.25,5.25,0,0,1-4.19-1.74,5.12,5.12,0,0,1-1.15-4.38l1.6-7.77a5.1,5.1,0,0,1,4.66-4.07l30.45-2,1.36-6.92-27.74,1.85a5.24,5.24,0,0,1-4.17-1.72A5.09,5.09,0,0,1,267.9,119l1.43-7.26a5.12,5.12,0,0,1,4.68-4.11l33-2.2,1.86-9.26Z"/><path class="cls-8" d="M302.27,167.22a5.11,5.11,0,0,1-4-8.34l30-36.71L313.41,92.72a5.11,5.11,0,0,1,4.21-7.4L343,83.62a5.09,5.09,0,0,1,5,3l4.15,9,8.88-11.45a5.09,5.09,0,0,1,3.69-2L392,80.35a5.11,5.11,0,0,1,4.29,8.33l-27.75,33.93,16.27,32a5.1,5.1,0,0,1-4.21,7.41l-25.42,1.7a5.1,5.1,0,0,1-5-3L344.81,149l-11.29,14.46a5.09,5.09,0,0,1-3.68,2l-27.23,1.82ZM326,95l12.91,25.53a5.09,5.09,0,0,1-.6,5.54l-24.65,30.17,13.22-.88,15.05-19.29a5.11,5.11,0,0,1,8.67,1l7.4,16.19,14.18-1-14.27-28a5.11,5.11,0,0,1,.59-5.55l22.41-27.4-13.2.89-12.63,16.28a5.11,5.11,0,0,1-8.67-1l-6.19-13.45Z"/><path class="cls-8" d="M381.64,161.91a5.11,5.11,0,0,1-5-6.1l14.18-71.59a5.1,5.1,0,0,1,4.67-4.1L419,78.55a5.25,5.25,0,0,1,4.17,1.72,5.09,5.09,0,0,1,1.17,4.36l-14.18,71.59a5.09,5.09,0,0,1-4.66,4.11L382,161.9ZM400.07,90,388,151.26l13-.86L413,89.18Z"/><path class="cls-8" d="M431,158.61a5.1,5.1,0,0,1-5-6.1l8.9-44.81-14.06,1a5.44,5.44,0,0,1-4.17-1.73,5.12,5.12,0,0,1-1.18-4.36l4-20.25a5.12,5.12,0,0,1,4.68-4.11L489,73.86a5.18,5.18,0,0,1,4.18,1.73A5.12,5.12,0,0,1,494.37,80l-4,20.24a5.09,5.09,0,0,1-4.67,4.11l-16.79,1.12-9.43,47.51a5.1,5.1,0,0,1-4.67,4.1l-23.51,1.57Zm10.2-61.55a5.1,5.1,0,0,1,5,6.1L437.27,148l13-.87,9.44-47.5a5.08,5.08,0,0,1,4.66-4.1l16.79-1.12,1.95-9.88-54.36,3.63L426.76,98l14.07-.94Z"/><path class="cls-8" d="M519.63,154a43.25,43.25,0,0,1-12.78-1.85,39.36,39.36,0,0,1-13.2-6.89A35.58,35.58,0,0,1,484.48,134a36.11,36.11,0,0,1-4-14.41,44.74,44.74,0,0,1,2.4-17.85,48.28,48.28,0,0,1,8.72-15.42,46.61,46.61,0,0,1,14-11.2,47,47,0,0,1,34.4-3.31,39.67,39.67,0,0,1,13.21,6.9A35.8,35.8,0,0,1,562.45,90a36.17,36.17,0,0,1,4,14.41,45.23,45.23,0,0,1-2.4,17.85,48,48,0,0,1-8.73,15.41,46.49,46.49,0,0,1-14,11.2,45.66,45.66,0,0,1-18.25,5h0C521.89,154,520.75,154,519.63,154Zm3.07-5.21h0Zm4.59-68.58c-.89,0-1.8,0-2.72.1a35.27,35.27,0,0,0-14.16,3.89,36.14,36.14,0,0,0-11,8.74,38.12,38.12,0,0,0-6.89,12.17,34.81,34.81,0,0,0-1.85,13.83,26,26,0,0,0,2.83,10.36,24.85,24.85,0,0,0,6.54,8,29,29,0,0,0,9.79,5.08,34.08,34.08,0,0,0,12.5,1.3h0a35.23,35.23,0,0,0,14.17-3.89,36.62,36.62,0,0,0,11-8.73,38,38,0,0,0,6.89-12.18,34.8,34.8,0,0,0,1.85-13.82A26,26,0,0,0,553.4,94.7a25.07,25.07,0,0,0-6.54-8,29.22,29.22,0,0,0-9.8-5.09A33.29,33.29,0,0,0,527.29,80.21Zm-5.63,52.92a18.85,18.85,0,0,1-6.1-.95,15.94,15.94,0,0,1-6.12-3.73,17.46,17.46,0,0,1-3.85-5.67A21.08,21.08,0,0,1,504,116a25.66,25.66,0,0,1,.89-8.42,24.45,24.45,0,0,1,3.63-7.74,22.43,22.43,0,0,1,6.17-6,18.67,18.67,0,0,1,9-2.91,20.21,20.21,0,0,1,7.6.88,16,16,0,0,1,6.21,3.73,18,18,0,0,1,3.86,5.68,20.84,20.84,0,0,1,1.6,6.87,25.68,25.68,0,0,1-4.49,16.11,22.52,22.52,0,0,1-6.19,6,18.61,18.61,0,0,1-9,2.92C522.71,133.11,522.18,133.13,521.66,133.13Zm3.57-32q-.43,0-.87,0a8.4,8.4,0,0,0-4.14,1.29,12.21,12.21,0,0,0-3.39,3.25,14.49,14.49,0,0,0-2.12,4.57,15.15,15.15,0,0,0-.55,5,10.94,10.94,0,0,0,.81,3.51,7.4,7.4,0,0,0,1.61,2.39,5.77,5.77,0,0,0,2.27,1.36,9.16,9.16,0,0,0,3.72.38h0a8.37,8.37,0,0,0,4.13-1.3,12.07,12.07,0,0,0,3.39-3.25,15.43,15.43,0,0,0,2.66-9.58,10.56,10.56,0,0,0-.8-3.51,7.48,7.48,0,0,0-1.63-2.42,5.63,5.63,0,0,0-2.27-1.32A8.86,8.86,0,0,0,525.23,101.09Z"/><path class="cls-8" d="M560.78,149.93a5.12,5.12,0,0,1-5-6.09l3.62-18.41a5.1,5.1,0,0,1,4.67-4.1l1.9-.13-.31-32.5a4.85,4.85,0,0,1,.1-1.07l3.11-15.34a5.13,5.13,0,0,1,4.67-4.08l25.52-1.7a5.3,5.3,0,0,1,4.19,1.73,5.12,5.12,0,0,1,1.15,4.38L601.27,88l-12.64,31.88a5.09,5.09,0,0,1,4.09,6l-3.61,18.41a5.11,5.11,0,0,1-4.67,4.11l-23.32,1.56Zm7.87-18.68-1.58,8,12.77-.85,1.58-8Zm7.21-42.11.27,27.54,2.85-.19,12.55-31.44,1.57-7.91-15,1Z"/><path class="cls-3" d="M211.44,153.27l-3.11,15.34,25.52-1.7L237,151.57l-.24-25.8q-7.69,1-15.29,2.48Z"/><polygon class="cls-2" points="246.93 95.39 223.63 96.95 220.01 115.36 243.32 113.8 246.93 95.39"/><path class="cls-2" d="M225.18,118.85l-3.75,9.4q7.59-1.44,15.29-2.48l-.08-7.69Z"/><path class="cls-3" d="M249.32,124.34,241,166.43l60.49-4,3.83-19.63-37.38,2.49,1.6-7.77,34.36-2.3,2.41-12.27A451,451,0,0,0,249.32,124.34Z"/><path class="cls-2" d="M272.91,120.19l1.44-7.26,36.86-2.46,3.94-19.64-60,4-5.85,29.5a451,451,0,0,1,57-1.43l1-5Z"/><path class="cls-2" d="M392.31,85.67l-27.23,1.82-14,18.09-7.67-16.64L318,90.64l16.4,32.41-1,1.27c10.48.7,21,1.54,31.48,2.45l-2.34-4.59Z"/><path class="cls-3" d="M302.27,162.34l27.23-1.82L346,139.43l8.87,19.39,25.42-1.7L364.8,126.77c-10.5-.91-21-1.75-31.48-2.45Z"/><path class="cls-3" d="M381.64,157l23.52-1.58,4.9-24.76q-11.37-.91-22.82-1.94Z"/><path class="cls-2" d="M395.82,85.44l-8.58,43.31q11.44,1,22.82,1.94l9.28-46.82Z"/><path class="cls-3" d="M431,153.73l23.51-1.57,3.72-18.75c-7.63-.19-15.29-.49-23-.94Z"/><path class="cls-2" d="M485.37,99.43l4-20.25-64.9,4.34-4,20.25,20.7-1.38-6,30.08c7.72.45,15.38.75,23,.94l6.47-32.59Z"/><path class="cls-3" d="M496.86,141.51a33.93,33.93,0,0,0,11.5,6A39.42,39.42,0,0,0,522.7,149a40.16,40.16,0,0,0,16.2-4.46,41.23,41.23,0,0,0,12.5-10,42.74,42.74,0,0,0,7.2-12.44c-21.93,6.84-45,10-68.74,11.06A30.3,30.3,0,0,0,496.86,141.51Z"/><path class="cls-2" d="M561.33,105a31,31,0,0,0-3.4-12.38,30.35,30.35,0,0,0-7.86-9.63,34.38,34.38,0,0,0-11.5-6,39.61,39.61,0,0,0-14.34-1.52A40.24,40.24,0,0,0,508,79.9a41.28,41.28,0,0,0-12.51,10,42.91,42.91,0,0,0-7.8,13.79,39.65,39.65,0,0,0-2.13,15.84,31,31,0,0,0,3.4,12.39c.25.46.59.84.86,1.3,23.76-1,46.81-4.22,68.74-11.06.18-.46.44-.87.61-1.34A39.83,39.83,0,0,0,561.33,105Zm-24.18,10.39a19.72,19.72,0,0,1-2.87,6.15,17.24,17.24,0,0,1-4.79,4.61,13.52,13.52,0,0,1-6.57,2.11,14.53,14.53,0,0,1-5.7-.64A10.62,10.62,0,0,1,513,125a12.39,12.39,0,0,1-2.76-4,16.11,16.11,0,0,1-1.2-5.16,20.39,20.39,0,0,1,.71-6.72,19.35,19.35,0,0,1,2.88-6.14,17.39,17.39,0,0,1,4.78-4.62A13.5,13.5,0,0,1,524,96.25a14.69,14.69,0,0,1,5.65.63,10.86,10.86,0,0,1,4.26,2.54,12.81,12.81,0,0,1,2.74,4,15.66,15.66,0,0,1,1.2,5.17A20,20,0,0,1,537.15,115.34Z"/><polygon class="cls-3" points="560.78 145.05 584.1 143.49 587.71 125.08 564.4 126.64 560.78 145.05"/><path class="cls-2" d="M599.39,71.83l-25.53,1.7-3.11,15.35.28,29c5.35-2.06,10.59-4.43,15.79-7l9.45-23.69Z"/><path class="cls-3" d="M571.07,122.36l11.46-.77,4.29-10.73c-5.2,2.57-10.44,4.94-15.79,7Z"/></svg>