<svg id="Capa_1" data-name="Capa 1" xmlns="http://www.w3.org/2000/svg" viewBox="0 0 800 800"><defs><style>.cls-1{fill:#353534;}.cls-2{fill:#00a033;}.cls-3{fill:#009133;}.cls-4{fill:#1d1d1b;}.cls-5{fill:#fff;}.cls-6{fill:#009733;}.cls-7{fill:#002733;}.cls-8{fill:#005933;}.cls-9{fill:none;stroke:#1d401b;stroke-linecap:round;stroke-linejoin:round;stroke-width:0.75px;}.cls-10{fill:#1d401b;}</style></defs><title>Mesa de trabajo 5</title><path class="cls-1" d="M187.33,223.35S373.49,233.92,420,151.42c0,0,112.11,110,201,63.47,0,0,0,264.42-173.46,374.42C447.53,589.31,267.72,610.46,187.33,223.35Z"/><path class="cls-2" d="M423.84,188.44a72,72,0,0,1-8.34,11.42c22.26,130.27,87.64,279.86,21.5,360.29a63.28,63.28,0,0,0,10.92.1c151.91-93.4,151.91-317.92,151.91-317.92C522,281.85,423.84,188.44,423.84,188.44Z"/><path class="cls-3" d="M415.5,199.86c-50.87,57.59-195.45,49.65-195.45,49.65,59.24,276.61,180.12,307.72,217,310.64C503.14,479.72,437.76,330.13,415.5,199.86Z"/><path class="cls-4" d="M182.81,219.45a7.21,7.21,0,0,1,4.95-2l.84,0,1,.05,1.94.1,3.9.17,7.83.23q7.85.17,15.7.1,15.7-.12,31.39-1.07a450.85,450.85,0,0,0,62.21-7.92c20.43-4.18,40.56-10.17,59.18-19.26,18.42-9.2,35.46-22.07,45.9-39.79h0l0,0a2.85,2.85,0,0,1,3.92-.91,4.35,4.35,0,0,1,.42.33,345.26,345.26,0,0,0,43.67,34,276.82,276.82,0,0,0,48.64,26c17,6.82,34.82,11.58,52.81,12.28a108.86,108.86,0,0,0,26.64-2.14,104.2,104.2,0,0,0,24.89-9.11h0l.38-.18a5,5,0,0,1,6.61,2.47,5.08,5.08,0,0,1,.44,2.21c-1,36.33-5.79,71.91-13,107.19a577.52,577.52,0,0,1-31.3,103.14c-13.88,33.19-31.35,65.06-53.43,93.62a327.19,327.19,0,0,1-36.44,39.91A317.22,317.22,0,0,1,449,591.65a2.66,2.66,0,0,1-1.16.41h0c-10.7.8-20.75-.58-30.81-2.72A154.06,154.06,0,0,1,388,579.73c-18.74-8.14-35.85-19.61-51.37-32.71-31-26.5-55.19-59.81-75.06-94.94-20.08-35.16-35.3-72.77-48.33-110.9-3.19-9.57-6.47-19.11-9.19-28.82s-5.88-19.29-8.29-29.07l-3.83-14.62c-1.26-4.86-2.58-9.56-3.77-15.44C185.68,242,184.12,230.25,182.81,219.45Zm9,7.79c3.05,8.78,5.85,16.62,7.76,24.93.87,3.93,2.07,8.93,3.3,13.78l3.59,14.52c2.26,9.72,5.16,19.26,7.81,28.86s5.68,19.1,8.71,28.6c12.37,37.83,26.9,75.12,46.16,109.9,19.05,34.77,42.33,67.65,72.09,93.78,14.9,12.92,31.31,24.24,49.28,32.32a147.6,147.6,0,0,0,27.81,9.62c9.46,2.19,19.51,3.57,28.84,3h0L446,587c14.7-9.84,28.85-20.5,41.67-32.7A321.84,321.84,0,0,0,523,514.77c21.35-28.23,38.17-59.72,51.48-92.53a569.06,569.06,0,0,0,29.75-101.95c6.75-34.74,11.1-70.3,11.68-105.4l7.43,4.49h0a113.71,113.71,0,0,1-27.69,9.51,118.31,118.31,0,0,1-29,1.74c-19.32-1.16-37.94-6.6-55.36-14A283.61,283.61,0,0,1,461.9,189a351,351,0,0,1-43.82-35.58l4.36-.61h0c-10.72,19.28-28.52,33.36-47.47,43.41-19.17,10-39.75,16.63-60.58,21.45a460,460,0,0,1-63.3,9.69q-15.94,1.38-32,1.9-8,.25-16,.29l-8,0-4-.07-2-.05-1,0h-.14A5,5,0,0,0,191.85,227.24Z"/><path class="cls-5" d="M480.05,322.51c0,26.72-20.12,40.45-46.85,40.45s-49.93-13.73-49.93-40.45a48.39,48.39,0,1,1,96.78,0Z"/><circle class="cls-6" cx="436.49" cy="343.06" r="26.34"/><circle class="cls-7" cx="436.69" cy="350.2" r="9.41"/><circle class="cls-5" cx="442.16" cy="344.3" r="2.74"/><circle class="cls-5" cx="449.83" cy="339.7" r="3.76"/><path class="cls-8" d="M382.5,363.66s14.74-7.41,54.81-5.87,49.48,5.87,49.48,5.87Z"/><path class="cls-9" d="M436.49,476.68s10.42,2.11,16.05-1.05"/><path class="cls-4" d="M136.94,604.22H70.46a15.08,15.08,0,0,1-14.56-19l20.77-77.31a15.07,15.07,0,0,1,14.55-11.16h65.94a15.07,15.07,0,0,1,14.55,19L166,537a15,15,0,0,1-4.78,7.53l-.06.25-4.63,17.38a15,15,0,0,1,.66,9.67L151.51,593A15.06,15.06,0,0,1,136.94,604.22Z"/><path class="cls-4" d="M219.44,604.22H191.62a15.13,15.13,0,0,1-10.5-4.24,15.08,15.08,0,0,1-10.49,4.24H144.79a15.06,15.06,0,0,1-14.56-19L151,507.93a15.08,15.08,0,0,1,14.56-11.16H195.7c8.78,0,16.05,1,22.23,2.92a41,41,0,0,1,16.92,9.78,34.27,34.27,0,0,1,8.22,13,41.82,41.82,0,0,1,2.27,13.74,45.82,45.82,0,0,1-1.82,12.91,39.82,39.82,0,0,1-6.13,12.36,41.7,41.7,0,0,1-9.33,9.12l5.3,12.72a15.07,15.07,0,0,1-13.92,20.86Z"/><path class="cls-4" d="M298.19,604.22H270.36A15.09,15.09,0,0,1,259.87,600a15.1,15.1,0,0,1-10.49,4.24H223.53a15.08,15.08,0,0,1-14.56-19l20.77-77.31a15.07,15.07,0,0,1,14.55-11.16h30.15c8.79,0,16.06,1,22.24,2.92a41.05,41.05,0,0,1,16.92,9.78,34.24,34.24,0,0,1,8.21,13,41.83,41.83,0,0,1,2.28,13.74,46.18,46.18,0,0,1-1.82,12.91,39.85,39.85,0,0,1-6.14,12.36,41.44,41.44,0,0,1-9.32,9.12l5.29,12.72a15.06,15.06,0,0,1-13.91,20.86Z"/><path class="cls-4" d="M348.77,605.77a58.55,58.55,0,0,1-20.95-3.7,52.7,52.7,0,0,1-17-10.41,48,48,0,0,1-11.46-16.1,49,49,0,0,1-4.09-19.87,59,59,0,0,1,4.66-23,62.22,62.22,0,0,1,12.61-19.13,60.29,60.29,0,0,1,19.13-13.3,61.32,61.32,0,0,1,45.14-1.29,52.45,52.45,0,0,1,17,10.4,48.19,48.19,0,0,1,11.47,16.11,49.06,49.06,0,0,1,4.09,19.86,58.77,58.77,0,0,1-4.67,23.05,62.58,62.58,0,0,1-12.58,19.11A60.7,60.7,0,0,1,373,600.77,59.18,59.18,0,0,1,348.77,605.77Zm4.38-57a2.44,2.44,0,0,0-.27.29,6.72,6.72,0,0,0-1.09,2,7.34,7.34,0,0,0-.32,1.22l.27-.31a6.7,6.7,0,0,0,1.09-2A8.24,8.24,0,0,0,353.15,548.74Z"/><path class="cls-4" d="M464.74,604.22H436.91A15.09,15.09,0,0,1,426.42,600a15.1,15.1,0,0,1-10.49,4.24H390.08a15.08,15.08,0,0,1-14.56-19l20.77-77.31a15.07,15.07,0,0,1,14.55-11.16H441c8.78,0,16.06,1,22.24,2.92a41,41,0,0,1,16.91,9.78,34.15,34.15,0,0,1,8.22,13,41.82,41.82,0,0,1,2.27,13.74,45.82,45.82,0,0,1-1.82,12.91,39.82,39.82,0,0,1-6.13,12.36,41.44,41.44,0,0,1-9.32,9.12l5.29,12.72a15.06,15.06,0,0,1-13.91,20.86Z"/><path class="cls-4" d="M560.17,604.22H535.09a15.05,15.05,0,0,1-15-13.36h-16.5a15.07,15.07,0,0,1-14.89-12.71l-3-18.77a15.08,15.08,0,0,1,4.9-13.66L542.34,500a15,15,0,0,1,10-3.78H581a15.07,15.07,0,0,1,14.56,19l-8.19,30.65a15.14,15.14,0,0,1,5.08,15.7l-5,18.22a15.08,15.08,0,0,1-12.14,10.92l-.67,2.45A15.07,15.07,0,0,1,560.17,604.22Zm-2.31-77.71a15.4,15.4,0,0,1,2.77,2.76l.78-2.91Z"/><path class="cls-4" d="M613.84,606a50.26,50.26,0,0,1-19.37-3.64,44.4,44.4,0,0,1-15.08-10.15A43.64,43.64,0,0,1,570,577.39,47.8,47.8,0,0,1,567,560.33a71.06,71.06,0,0,1,4.14-24.09A66.66,66.66,0,0,1,583,515.56a59.65,59.65,0,0,1,18.64-14.73c13.53-6.84,30.85-7.48,43.86-2.08a44.4,44.4,0,0,1,15.07,10.15,43.6,43.6,0,0,1,9.37,14.92,47.83,47.83,0,0,1,3.07,17,71,71,0,0,1-4.15,24.1A66.79,66.79,0,0,1,657,585.54a59.65,59.65,0,0,1-18.65,14.73A53.58,53.58,0,0,1,613.84,606Z"/><path class="cls-4" d="M717,604.22H691.92a15.05,15.05,0,0,1-15-13.36H660.44a15.09,15.09,0,0,1-14.89-12.71l-3-18.77a15.08,15.08,0,0,1,4.9-13.66L699.16,500a15.05,15.05,0,0,1,10-3.78h28.71a15.06,15.06,0,0,1,14.56,19l-8.19,30.65a15.08,15.08,0,0,1,5.08,15.7l-5,18.22a15.07,15.07,0,0,1-12.14,10.92l-.67,2.45A15.06,15.06,0,0,1,717,604.22Zm-2.3-77.71a15,15,0,0,1,2.76,2.76l.78-2.91Z"/><path class="cls-5" d="M91.65,510h65.94l-5.75,21.2H111.31l-2.1,7.84H147l-5,18.66H104.24l-2.32,8.4H143l-5.64,21.2H70.89Z"/><path class="cls-5" d="M166,510h30.15q10.73,0,17.68,2.2a26.31,26.31,0,0,1,10.82,6.08,19.21,19.21,0,0,1,4.64,7.34,26.55,26.55,0,0,1,1.43,8.78,30.63,30.63,0,0,1-1.21,8.67,24.64,24.64,0,0,1-3.81,7.68,26.9,26.9,0,0,1-6.68,6.29,37,37,0,0,1-9.83,4.53l10.71,25.73H192l-8.61-22.08H177l-6,22.08H145.21Zm25.3,36.77q6.51,0,9.82-2.59a7.69,7.69,0,0,0,3.32-6.24,5.53,5.53,0,0,0-1.66-4.09q-2.2-2.21-7.62-2.21H186l-4.09,15.13Z"/><path class="cls-5" d="M244.72,510h30.15q10.71,0,17.67,2.2a26.35,26.35,0,0,1,10.83,6.08,19.21,19.21,0,0,1,4.64,7.34,26.81,26.81,0,0,1,1.43,8.78,30.63,30.63,0,0,1-1.21,8.67,24.86,24.86,0,0,1-3.81,7.68,27,27,0,0,1-6.69,6.29,36.88,36.88,0,0,1-9.82,4.53l10.71,25.73H270.79l-8.62-22.08h-6.41l-6,22.08H224ZM270,546.81q6.51,0,9.83-2.59a7.72,7.72,0,0,0,3.32-6.24,5.57,5.57,0,0,0-1.66-4.09c-1.47-1.47-4-2.21-7.62-2.21h-9.17l-4.08,15.13Z"/><path class="cls-5" d="M349.2,588.89a43.28,43.28,0,0,1-15.57-2.7,37.43,37.43,0,0,1-12.15-7.41,32.87,32.87,0,0,1-7.9-11.1,34,34,0,0,1-2.82-13.8,43.81,43.81,0,0,1,3.48-17.17,47.21,47.21,0,0,1,9.56-14.53,45.33,45.33,0,0,1,14.41-10,44,44,0,0,1,18.06-3.7,43.28,43.28,0,0,1,15.57,2.7,37.51,37.51,0,0,1,12.15,7.4,32.9,32.9,0,0,1,7.89,11.1,33.91,33.91,0,0,1,2.82,13.81,43.63,43.63,0,0,1-3.48,17.17,47,47,0,0,1-9.55,14.53,45.6,45.6,0,0,1-14.41,10A44,44,0,0,1,349.2,588.89ZM351,566.14a14.82,14.82,0,0,0,7.34-1.82,19.15,19.15,0,0,0,5.58-4.7,21.7,21.7,0,0,0,3.59-6.51,22.25,22.25,0,0,0,1.27-7.29,17.29,17.29,0,0,0-.94-5.75,14,14,0,0,0-2.7-4.63,12,12,0,0,0-4.48-3.1,16.18,16.18,0,0,0-6.13-1.1,14.72,14.72,0,0,0-7.34,1.82,19.15,19.15,0,0,0-5.58,4.7,21.7,21.7,0,0,0-3.59,6.51,22.21,22.21,0,0,0-1.27,7.29,16.94,16.94,0,0,0,.94,5.74,13.92,13.92,0,0,0,2.7,4.64,12,12,0,0,0,4.42,3.1A16.14,16.14,0,0,0,351,566.14Z"/><path class="cls-5" d="M411.27,510h30.15q10.71,0,17.67,2.2a26.25,26.25,0,0,1,10.82,6.08,19.23,19.23,0,0,1,4.65,7.34,26.81,26.81,0,0,1,1.43,8.78,30.63,30.63,0,0,1-1.21,8.67,24.67,24.67,0,0,1-3.82,7.68,26.9,26.9,0,0,1-6.68,6.29,36.81,36.81,0,0,1-9.83,4.53l10.71,25.73H437.34l-8.62-22.08h-6.41l-6,22.08H390.51Zm25.29,36.77q6.51,0,9.83-2.59a7.72,7.72,0,0,0,3.32-6.24,5.57,5.57,0,0,0-1.66-4.09c-1.47-1.47-4-2.21-7.62-2.21h-9.17l-4.08,15.13Z"/><path class="cls-5" d="M539.05,574H504l-3-18.78,51.69-45.72h28.71l-12.37,46.28h9.28l-5,18.22h-9.16l-3.65,13.36H535.52Zm4.87-17.89,5.19-19.44-22,19.44Z"/><path class="cls-5" d="M614.26,589.11a35.17,35.17,0,0,1-13.58-2.48,29.4,29.4,0,0,1-10-6.68,28.5,28.5,0,0,1-6.13-9.72,32.9,32.9,0,0,1-2.1-11.71,55.75,55.75,0,0,1,3.26-19,51.45,51.45,0,0,1,9.17-16,44.79,44.79,0,0,1,14-11,38.6,38.6,0,0,1,17.67-4.08,35.18,35.18,0,0,1,13.59,2.48,29.45,29.45,0,0,1,10,6.68,28.37,28.37,0,0,1,6.13,9.78,32.75,32.75,0,0,1,2.1,11.65,55.51,55.51,0,0,1-3.26,19,51.54,51.54,0,0,1-9.16,16,44.54,44.54,0,0,1-14,11A38.42,38.42,0,0,1,614.26,589.11Zm2.32-22.42a10.21,10.21,0,0,0,6.69-2.43,21.06,21.06,0,0,0,5-6.18,32.89,32.89,0,0,0,3.09-8.23,37.48,37.48,0,0,0,1-8.56q0-5.52-2.38-8a7.7,7.7,0,0,0-5.8-2.48,10.17,10.17,0,0,0-6.68,2.43,20.9,20.9,0,0,0-5,6.18,33,33,0,0,0-3.09,8.23,37.48,37.48,0,0,0-1.05,8.56q0,5.52,2.37,8A7.75,7.75,0,0,0,616.58,566.69Z"/><path class="cls-5" d="M695.88,574h-35l-3-18.78,51.69-45.72h28.72l-12.37,46.28h9.28l-5,18.22h-9.17l-3.64,13.36H692.35Zm4.86-17.89,5.19-19.44-22,19.44Z"/><path class="cls-10" d="M386,450.78a106.6,106.6,0,0,1,26-13.13,94.27,94.27,0,0,1,28.55-5.25,73.7,73.7,0,0,1,28.79,4.79c9.35,3.11,17.44,8.73,25.09,14.53a4.68,4.68,0,0,1-5.56,7.53l-.37-.27c-7-5.06-14.28-10-22.49-12.46a63.59,63.59,0,0,0-25.14-3.68A83.37,83.37,0,0,0,415.73,448,96.72,96.72,0,0,0,393,459.92l-.3.22a5.75,5.75,0,1,1-6.76-9.3Z"/></svg>