<svg id="Capa_1" data-name="Capa 1" xmlns="http://www.w3.org/2000/svg" viewBox="0 0 800 800"><defs><style>.cls-1{fill:#353534;}.cls-2{fill:#00a033;}.cls-3{fill:#009133;}.cls-4{fill:#1d1d1b;}.cls-5{fill:none;stroke:#fff;stroke-linecap:round;stroke-linejoin:round;stroke-width:0.75px;}.cls-6{fill:#fff;}.cls-7{fill:#009733;}.cls-8{fill:#002733;}.cls-9{fill:#006a33;}.cls-10{fill:#005933;}.cls-11{fill:#1d401b;}</style></defs><title>TRUSTY</title><path class="cls-1" d="M105.29,255.78s188.22,2.3,230.71-89.87c0,0,118.9,114.26,206,59.17,0,0,14.16,288-154.8,416.42C387.17,641.5,207.05,673.45,105.29,255.78Z"/><path class="cls-2" d="M341.82,206.05A78.31,78.31,0,0,1,334,218.89c29.42,140.79,103.33,300.49,41,391.37a59.85,59.85,0,0,0,11-.43C534.14,500.57,522.11,256,522.11,256,445.8,302.92,341.82,206.05,341.82,206.05Z"/><path class="cls-3" d="M334,218.89c-48.2,65.26-194.35,63.77-194.35,63.77C214.2,581,337.71,608.91,375,610.26,437.36,519.38,363.45,359.68,334,218.89Z"/><path class="cls-4" d="M100.62,252.07a6.33,6.33,0,0,1,4.49-2.24h1.2l1,0h6l8-.16c5.33-.14,10.67-.38,16-.69q16-.94,31.94-2.83a420,420,0,0,0,62.83-12c20.49-5.73,40.55-13.37,58.58-24.43s33.83-25.92,42.88-44.92h0a2.82,2.82,0,0,1,3.75-1.31,3,3,0,0,1,.65.44l0,0A355,355,0,0,0,383,198.34a278.07,278.07,0,0,0,50.15,26c17.48,6.7,35.9,11.24,54.32,11.23s36.55-4.8,51.75-14.77h0l.25-.15a5,5,0,0,1,6.85,1.77,5.07,5.07,0,0,1,.69,2.42c.93,38.89-1.9,77.28-7.11,115.52A668.21,668.21,0,0,1,514.57,453.1c-11.85,36.7-27.49,72.36-48.18,105.06s-46.56,62.26-77.53,85.53l0,0,0,0a2.44,2.44,0,0,1-1.15.49c-11.34,1.46-22.09.29-32.81-1.79a159.79,159.79,0,0,1-31-9.83,216.44,216.44,0,0,1-54.33-35c-32.73-28.33-58.12-63.78-79.63-100.8-21.33-37.25-38.43-76.7-53.13-116.87l-5.48-15.09-5-15.23c-3.33-10.16-6.75-20.3-9.65-30.6L112,303.63l-2.27-7.69c-.76-2.68-1.52-5.72-2.24-8.61C104.6,275.58,102.48,263.4,100.62,252.07ZM110,259.5c3.46,9.29,6.66,17.72,9,26.58l1.8,6.84,2.15,7.65,4.31,15.3c2.74,10.25,6,20.32,9.17,30.43l4.81,15.15,5.23,15c14.05,39.93,30.46,79.11,51,116,20.71,36.71,45.22,71.78,76.73,99.74a209.66,209.66,0,0,0,52.19,34.57A153,153,0,0,0,356,636.62c10.07,2.14,20.81,3.3,30.64,2.15l-1.19.52h0c30.15-23.13,55.27-52.38,75.22-84.67s35-67.58,46.37-103.89A660.12,660.12,0,0,0,531,339.15c4.78-37.72,7.17-76.08,5.89-113.82l7.78,4h0c-17.07,10.73-37.46,15.71-57.27,15.19s-39.14-5.63-57.13-12.93a285.35,285.35,0,0,1-50.94-27.71,359.69,359.69,0,0,1-45.25-36l4.44-.83h0c-9.12,20.47-25.63,36.75-44.09,48.63s-39.06,20.38-59.94,26.79a429.07,429.07,0,0,1-63.94,13.91q-16.2,2.34-32.5,3.69c-5.43.45-10.87.83-16.33,1.11l-8.19.36-4.11.12-2.07,0h-1.61A5.78,5.78,0,0,0,110,259.5Z"/><ellipse class="cls-1" cx="368.56" cy="729.21" rx="67.69" ry="15.87"/><path class="cls-4" d="M425.82,174.24a8.67,8.67,0,0,1-1.89-.2l-38-8.14A9,9,0,0,1,379.86,153l14.32-27.73a9,9,0,0,1,9.88-4.67l1.71.37,8-26.15a9,9,0,0,1,3.13-4.52,8.85,8.85,0,0,1-1.12-2.81l-6.51-30.31A9,9,0,0,1,414.42,47a78,78,0,0,1,23.37-6.13,82.3,82.3,0,0,1,25.64,1.53A61.53,61.53,0,0,1,481,48.93,46.42,46.42,0,0,1,494,59.72a36.81,36.81,0,0,1,7.5,31.41,46.72,46.72,0,0,1-6.12,15.18,40.82,40.82,0,0,1-12,12.22,51.74,51.74,0,0,1-17.36,7.2,75.65,75.65,0,0,1-17,1.76H449l-2.44,3.69a9,9,0,0,1,1.59,10.46l-14.32,27.73A9,9,0,0,1,425.82,174.24Zm-24.56-23.47L421,155l5.76-11.16L407,139.62Zm24-32.15,7,1.5,4.46-6.73a8.93,8.93,0,0,1,7.95-4A64.89,64.89,0,0,0,462,108.19a33.89,33.89,0,0,0,11.35-4.61,22.6,22.6,0,0,0,6.8-6.84,29,29,0,0,0,3.76-9.39,18.75,18.75,0,0,0-3.85-16.24,28.51,28.51,0,0,0-8-6.55A43.28,43.28,0,0,0,459.65,60a64.25,64.25,0,0,0-20-1.23A61.48,61.48,0,0,0,428.5,61l2.73,12.73a40.34,40.34,0,0,1,5.1-.94,39.8,39.8,0,0,1,12.78.45c4.95,1.07,8.66,3.16,11.06,6.21a14.59,14.59,0,0,1,2.74,12.3c-3.14,14.66-22,14.79-33.62,13.83Z"/><path class="cls-4" d="M513.66,193.06a9.49,9.49,0,0,1-1.89-.2l-37.95-8.13a9,9,0,0,1-6.11-12.93L482,144.06a9,9,0,0,1,9.89-4.67l1.69.37,8-26.15a9.06,9.06,0,0,1,3.14-4.51,9,9,0,0,1-1.13-2.82L497.11,76a9,9,0,0,1,5.15-10.13,77.73,77.73,0,0,1,23.39-6.13,81.86,81.86,0,0,1,25.62,1.53,61.19,61.19,0,0,1,17.56,6.51,46.08,46.08,0,0,1,13.06,10.79A36.83,36.83,0,0,1,589.4,110a46.9,46.9,0,0,1-6.12,15.18,40.93,40.93,0,0,1-12,12.23,52,52,0,0,1-17.34,7.19,75.73,75.73,0,0,1-17,1.76h0L534.4,150a8.59,8.59,0,0,1,1.73,2.47,9,9,0,0,1-.14,8l-14.33,27.73A9,9,0,0,1,513.66,193.06Zm-24.55-23.47,19.71,4.22,5.77-11.15-19.72-4.23Zm24-32.15,7,1.5,4.45-6.73a8.83,8.83,0,0,1,7.94-4A64.63,64.63,0,0,0,549.87,127a34.45,34.45,0,0,0,11.38-4.61,23.06,23.06,0,0,0,6.79-6.85,28.32,28.32,0,0,0,3.75-9.38,18.7,18.7,0,0,0,0-8.65,19,19,0,0,0-3.8-7.59,28.68,28.68,0,0,0-8-6.54,43.28,43.28,0,0,0-12.41-4.54,64.17,64.17,0,0,0-20-1.22,62.28,62.28,0,0,0-11.16,2.19l2.73,12.74a39.3,39.3,0,0,1,5.12-1,40.13,40.13,0,0,1,12.77.45c4.92,1,8.64,3.14,11,6.22a14.54,14.54,0,0,1,2.75,12.29c-3.14,14.65-22.07,14.8-33.63,13.83Zm21.46-27.35Z"/><path class="cls-5" d="M402,129l38,8.12L425.67,164.9l-38-8.14Zm20.19-32,2.51-1.34Q452,98.85,454,89.51a5.56,5.56,0,0,0-1-4.84c-1.07-1.37-3-2.36-5.86-3a30.42,30.42,0,0,0-9.86-.31,47,47,0,0,0-12.8,3.84l-6.51-30.31a68.13,68.13,0,0,1,20.66-5.41,72.49,72.49,0,0,1,22.81,1.38,51.82,51.82,0,0,1,15,5.52,37.42,37.42,0,0,1,10.55,8.67,27.81,27.81,0,0,1,5.68,23.81,37.79,37.79,0,0,1-4.95,12.29,32,32,0,0,1-9.4,9.54,42.48,42.48,0,0,1-14.36,5.9,72.52,72.52,0,0,1-19.8,1.4l-7.84,11.84L413.68,125Z"/><path class="cls-5" d="M489.89,147.85l38,8.14-14.33,27.73-38-8.13Zm20.19-31.95,2.51-1.33q27.24,3.08,29.23-6.24a5.57,5.57,0,0,0-1-4.83c-1.08-1.37-3-2.37-5.87-3a30.08,30.08,0,0,0-9.85-.31,46,46,0,0,0-12.81,3.83l-6.51-30.3a68.2,68.2,0,0,1,20.67-5.42,72.72,72.72,0,0,1,22.8,1.38,52.29,52.29,0,0,1,15,5.52,37.31,37.31,0,0,1,10.55,8.68,27.8,27.8,0,0,1,5.68,23.8,37.7,37.7,0,0,1-5,12.29,31.82,31.82,0,0,1-9.39,9.54,43.06,43.06,0,0,1-14.36,5.9A73,73,0,0,1,532,136.85l-7.84,11.84-22.58-4.84Z"/><polygon class="cls-3" points="387.71 156.76 425.67 164.9 440 137.16 402.04 129.04 387.71 156.76"/><path class="cls-3" d="M424.74,95.74l-2.51,1.34-8.55,28,22.58,4.83L444.1,118a72.52,72.52,0,0,0,19.8-1.4A44.08,44.08,0,0,0,476,111.94c-11.67-5.67-23.24-11.21-34.81-15.6A88.3,88.3,0,0,1,424.74,95.74Z"/><path class="cls-2" d="M487.66,101.18a37.79,37.79,0,0,0,4.95-12.29,27.81,27.81,0,0,0-5.68-23.81,37.42,37.42,0,0,0-10.55-8.67,51.82,51.82,0,0,0-15-5.52,72.49,72.49,0,0,0-22.81-1.38,68.13,68.13,0,0,0-20.66,5.41l6.51,30.31a47,47,0,0,1,12.8-3.84,30.42,30.42,0,0,1,9.86.31c2.83.61,4.79,1.6,5.86,3a5.57,5.57,0,0,1,1,4.84c-.85,4-5.15,6.23-12.83,6.83,11.57,4.39,23.14,9.93,34.81,15.6.75-.42,1.62-.75,2.31-1.22A32,32,0,0,0,487.66,101.18Z"/><polygon class="cls-3" points="475.56 175.59 513.52 183.72 527.85 155.99 489.89 147.85 475.56 175.59"/><path class="cls-2" d="M566.12,129.54a31.82,31.82,0,0,0,9.39-9.54,37.7,37.7,0,0,0,5-12.29,27.8,27.8,0,0,0-5.68-23.8,37.31,37.31,0,0,0-10.55-8.68,52.29,52.29,0,0,0-15-5.52,72.72,72.72,0,0,0-22.8-1.38,68.2,68.2,0,0,0-20.67,5.42l6.51,30.3a46,46,0,0,1,12.81-3.83,30.08,30.08,0,0,1,9.85.31c2.83.6,4.79,1.6,5.87,3a5.57,5.57,0,0,1,1,4.83q-2,9.35-29.23,6.24l-2.51,1.33-3.19,10.44a193.33,193.33,0,0,0,30.79,10.46,67.13,67.13,0,0,0,14.08-1.36A43.06,43.06,0,0,0,566.12,129.54Z"/><path class="cls-3" d="M501.53,143.85l22.58,4.84L532,136.85c2,.09,3.83,0,5.73,0a193.33,193.33,0,0,1-30.79-10.46Z"/><path class="cls-4" d="M220,46.31a9.08,9.08,0,0,1,1.8-.61L259.64,37a9,9,0,0,1,11,9.14l-1.27,31.18a9,9,0,0,1-7,8.41l-1.7.39,3.81,27.08a9,9,0,0,1-.93,5.41,9.27,9.27,0,0,1,2.21,2.08l18.7,24.72a9,9,0,0,1-.4,11.36,78,78,0,0,1-18.59,15.43,82.25,82.25,0,0,1-23.88,9.45A61.81,61.81,0,0,1,223,183.2a46.35,46.35,0,0,1-16.39-4.27,36.82,36.82,0,0,1-20.08-25.29,47,47,0,0,1-.87-16.35,41,41,0,0,1,5.72-16.15A51.71,51.71,0,0,1,204,107.28a75.88,75.88,0,0,1,14.65-8.76l.08,0,.65-4.38a9.25,9.25,0,0,1-2.61-1.51,9,9,0,0,1-3.25-7.29l1.27-31.2A9,9,0,0,1,220,46.31Zm32.18,10.9-19.65,4.5L232,74.25l19.65-4.5ZM244,96.51l-7,1.59-1.2,8a8.92,8.92,0,0,1-5.5,7,64.32,64.32,0,0,0-15.22,8.4,33.76,33.76,0,0,0-8.35,9,22.89,22.89,0,0,0-3.27,9.08,29,29,0,0,0,.56,10.09,18.78,18.78,0,0,0,10.35,13.1,28.74,28.74,0,0,0,10.05,2.54,43.54,43.54,0,0,0,13.17-1.14,63.91,63.91,0,0,0,18.63-7.33,61.25,61.25,0,0,0,9.19-6.71l-7.86-10.39a41.33,41.33,0,0,1-16,8c-4.93,1.12-9.18.79-12.65-1a14.58,14.58,0,0,1-7.68-10C217.88,122.14,235,114,245.87,110Z"/><path class="cls-4" d="M132.43,66.37a8.78,8.78,0,0,1,1.79-.61l37.84-8.67a9,9,0,0,1,11,9.14L181.8,97.42a9,9,0,0,1-7,8.41l-1.69.38,3.8,27.08a9,9,0,0,1-.93,5.41,9.27,9.27,0,0,1,2.21,2.08l18.7,24.72a9,9,0,0,1-.39,11.35,77.55,77.55,0,0,1-18.6,15.44A82,82,0,0,1,154,201.73a61.29,61.29,0,0,1-18.67,1.52A46.19,46.19,0,0,1,119,199,36.82,36.82,0,0,1,98.9,173.7,47,47,0,0,1,98,157.36a40.89,40.89,0,0,1,5.73-16.16,51.83,51.83,0,0,1,12.68-13.85,76,76,0,0,1,14.69-8.79h0l.65-4.39a9.12,9.12,0,0,1-2.61-1.51,9,9,0,0,1-3.24-7.3l1.27-31.18A9,9,0,0,1,132.43,66.37Zm32.17,10.9L145,81.77l-.52,12.55,19.66-4.5Zm-8.21,39.3-7,1.59-1.2,8a8.82,8.82,0,0,1-5.49,7,64.33,64.33,0,0,0-15.22,8.4,34.33,34.33,0,0,0-8.36,9,22.92,22.92,0,0,0-3.26,9.08,28.46,28.46,0,0,0,.55,10.08,18.83,18.83,0,0,0,10.35,13.1,28.74,28.74,0,0,0,10.06,2.53A43.47,43.47,0,0,0,150,184.18a64.3,64.3,0,0,0,18.63-7.33,62,62,0,0,0,9.19-6.71L170,159.76a41.45,41.45,0,0,1-16,8c-4.9,1.13-9.16.81-12.65-1a14.58,14.58,0,0,1-7.68-10c-3.34-14.59,13.74-22.74,24.64-26.74Zm-7.89,33.85Z"/><path class="cls-5" d="M260.65,77.23l-37.84,8.68,1.27-31.19,37.84-8.67Zm-4.8,37.5L254.14,117q-26,8.7-23.86,18a5.56,5.56,0,0,0,3,4q2.33,1.17,6.57.21a30.31,30.31,0,0,0,9.06-3.88,46.55,46.55,0,0,0,10-8.89l18.71,24.72a68.41,68.41,0,0,1-16.45,13.64,72.92,72.92,0,0,1-21.26,8.39A52.12,52.12,0,0,1,224,174.47a37.38,37.38,0,0,1-13.23-3.4,27.84,27.84,0,0,1-15.2-19.18,38,38,0,0,1-.72-13.23A32.08,32.08,0,0,1,199.3,126a42.93,42.93,0,0,1,10.53-11.42A72.76,72.76,0,0,1,227.19,105l2.1-14,22.5-5.15Z"/><path class="cls-5" d="M173.08,97.3,135.23,106l1.27-31.19,37.84-8.67Zm-4.81,37.49-1.71,2.27q-26,8.72-23.86,18a5.59,5.59,0,0,0,3,4c1.56.78,3.75.86,6.57.21a30.31,30.31,0,0,0,9.06-3.88,46.28,46.28,0,0,0,10-8.89L190,171.18a68.18,68.18,0,0,1-16.45,13.64,72.67,72.67,0,0,1-21.25,8.38,51.92,51.92,0,0,1-15.92,1.33,37.27,37.27,0,0,1-13.22-3.4A27.82,27.82,0,0,1,108,172a38,38,0,0,1-.71-13.23,31.88,31.88,0,0,1,4.49-12.61,42.73,42.73,0,0,1,10.52-11.42,72.62,72.62,0,0,1,17.36-9.64l2.1-14,22.51-5.16Z"/><polygon class="cls-3" points="261.92 46.05 224.08 54.72 222.81 85.91 260.65 77.23 261.92 46.05"/><path class="cls-3" d="M254.14,117l1.71-2.27-4.06-28.94-22.5,5.15-2.1,14a72.76,72.76,0,0,0-17.36,9.63,44.64,44.64,0,0,0-9,9.34c13,.21,25.81.34,38.15-.57A89,89,0,0,1,254.14,117Z"/><path class="cls-2" d="M194.81,138.66a38,38,0,0,0,.72,13.23,27.84,27.84,0,0,0,15.2,19.18,37.38,37.38,0,0,0,13.23,3.4,52.12,52.12,0,0,0,15.91-1.32,72.92,72.92,0,0,0,21.26-8.39,68.41,68.41,0,0,0,16.45-13.64L258.87,126.4a46.55,46.55,0,0,1-10,8.89,30.31,30.31,0,0,1-9.06,3.88q-4.24,1-6.57-.21a5.56,5.56,0,0,1-3-4c-.9-3.95,2-7.82,8.75-11.61-12.34.91-25.17.78-38.15.57-.5.7-1.14,1.37-1.58,2.08A32.08,32.08,0,0,0,194.81,138.66Z"/><polygon class="cls-3" points="174.34 66.11 136.5 74.78 135.23 105.97 173.07 97.3 174.34 66.11"/><path class="cls-2" d="M111.73,146.11a31.88,31.88,0,0,0-4.49,12.61A38,38,0,0,0,108,172a27.82,27.82,0,0,0,15.21,19.18,37.27,37.27,0,0,0,13.22,3.4,51.92,51.92,0,0,0,15.92-1.33,72.67,72.67,0,0,0,21.25-8.38A68.18,68.18,0,0,0,190,171.18l-18.71-24.72a46.28,46.28,0,0,1-10,8.89,30.31,30.31,0,0,1-9.06,3.88c-2.82.65-5,.57-6.57-.21a5.59,5.59,0,0,1-3-4q-2.13-9.3,23.86-18l1.71-2.27L166.76,124a195.29,195.29,0,0,0-32.33,3.53,67.74,67.74,0,0,0-12.18,7.18A42.73,42.73,0,0,0,111.73,146.11Z"/><path class="cls-3" d="M164.22,105.84,141.71,111l-2.1,14c-1.89.77-3.47,1.63-5.18,2.46A195.29,195.29,0,0,1,166.76,124Z"/><path class="cls-6" d="M409.84,334.78c10.07,26.93-5,48.35-32,58.43s-55.5,5-65.57-21.95a52.06,52.06,0,1,1,97.53-36.48Z"/><circle class="cls-7" cx="369.36" cy="356.62" r="25.58"/><circle class="cls-8" cx="370.58" cy="349.68" r="9.14"/><circle class="cls-6" cx="373.24" cy="347.02" r="2.66"/><circle class="cls-6" cx="377.16" cy="339.81" r="3.65"/><path class="cls-9" d="M303.82,347s89.81-9.45,100.88-32.34C397.73,295.67,303.82,280.29,303.82,347Z"/><path class="cls-4" d="M309.34,281.36a79.54,79.54,0,0,1,11.89-11.47,71.4,71.4,0,0,1,14.28-8.82,51.29,51.29,0,0,1,17-4.25,45.14,45.14,0,0,1,17.9,2.87A6,6,0,1,1,366.43,271a3.49,3.49,0,0,1-.53-.22l-.42-.19A34.27,34.27,0,0,0,352.54,267a41.83,41.83,0,0,0-14,1.91,64,64,0,0,0-13.5,6.4A74.45,74.45,0,0,0,313,284.55l-.1.09a2.41,2.41,0,0,1-3.52-3.28Z"/><path class="cls-10" d="M335.41,406.06s10.11-9.29,42.54-17.18,40.95-6.58,40.95-6.58Z"/><path class="cls-11" d="M340.17,510c1.45-1.6,2.81-3,4.24-4.41s2.87-2.8,4.33-4.16q4.39-4.08,9-7.85a151.57,151.57,0,0,1,19.67-13.7,104.1,104.1,0,0,1,10.74-5.46,79.68,79.68,0,0,1,11.4-4.08,62.15,62.15,0,0,1,12-2.13,53.52,53.52,0,0,1,12.19.54,2,2,0,0,1-.52,4h-.05a48.92,48.92,0,0,0-11.15.16,57,57,0,0,0-10.89,2.59,74.5,74.5,0,0,0-10.38,4.41,95.27,95.27,0,0,0-9.8,5.73,144.33,144.33,0,0,0-17.92,14.08q-4.23,3.87-8.18,8c-1.32,1.37-2.61,2.77-3.88,4.18s-2.53,2.87-3.63,4.23l0,0a4.71,4.71,0,1,1-7.34-5.91C340,510.15,340.11,510.08,340.17,510Z"/></svg>