<?xml version="1.0" encoding="utf-8"?>
<!-- Generator: Adobe Illustrator 23.0.1, SVG Export Plug-In . SVG Version: 6.00 Build 0)  -->
<svg version="1.1" id="Capa_1" xmlns="http://www.w3.org/2000/svg" xmlns:xlink="http://www.w3.org/1999/xlink" x="0px" y="0px"
	 viewBox="0 0 800 800" style="enable-background:new 0 0 800 800;" xml:space="preserve">
<style type="text/css">
	.st0{fill:#006633;}
	.st1{fill:#FFFFFF;}
</style>
<path class="st0" d="M399.8,66.8v-0.7L131.9,187.6c0,0,8.8,437.7,267.9,544.5v0.7C658.9,626,667.7,188.3,667.7,188.3L399.8,66.8z"/>
<g>
	<path class="st1" d="M368.1,642.1c-12.1-6.9-15.9-17.2-15.8-31.3c0.6-63.7,0.5-127.3,0.1-191c-0.1-9,2-10.6,9.9-7.2
		c6.9,3,14.1,5.2,21.3,7.4c21.1,6.4,42.6-4,50.3-24.2c7.7-20-0.5-41.9-20.4-51.1c-7.6-3.6-7.4-6.9-4.9-13.7
		c9.6-26.5,18.8-53.1,27.6-79.9c1.7-5.1,3.8-6.6,8.9-6.8c22.7-1.1,41.1,5.5,51.8,27.3c3.6,7.4,4,15.4,4.1,23.4
		c0.4,44.7,0.7,89.5,1,134.2c0.1,14.9-7.1,23.5-19.4,23.7c-11.9,0.2-19.3-8.8-19.4-23.6c-0.1-43.7-0.2-87.3-0.3-131
		c0-2.9,0.1-5.8-0.4-8.7c-0.4-2.3-2.2-3.8-4.6-3.5c-1.9,0.3-3.2,1.7-3.2,3.7c-0.1,2.9-0.1,5.8-0.1,8.7c0,104.4-0.2,208.8,0.3,313.3
		c0.1,14.5-4.5,24.4-17.6,30.1c-3.6,0-7.2,0-10.8,0c-13.3-5.6-17.9-15.5-17.7-30c0.6-56.4,0.3-112.8,0.2-169.1
		c0-4.5,1.4-11-5.3-11.1c-6.9-0.1-5.3,6.4-5.3,10.9c-0.1,56.4-0.4,112.8,0.2,169.1c0.1,14.4-4.5,24.4-17.6,30.3
		C376.8,642.1,372.4,642.1,368.1,642.1z"/>
	<path class="st1" d="M411.4,150.6c11.4,2.4,26.1,13.3,30.4,29.2c5.7,20.8-5.1,42.3-24.8,49.3c-20,7.1-42-2.7-50.2-22.3
		c-8.4-20.2,0.3-42.5,20.2-52.3c2.3-1.2,4.7-2.1,7.4-3C400,150.1,400.4,149,411.4,150.6z"/>
	<path class="st1" d="M416,244.5c-10,29-19.7,57-29.2,85c-1.4,4.2-3,4-6.9,2.9c-26.9-7.7-27-7.6-27.3-35.4c0-1.5,0-2.9,0-4.4
		c0.1-3.3-1.2-6.1-4.7-5.9c-2.8,0.2-3.6,2.9-3.5,5.7c0.1,10.9-0.4,21.9,0,32.7c0.8,18.1-8.7,33.3-13,50c-0.8,3.1-2.6,2.8-4.9,2.6
		c-11.6-1.1-20.9-10.3-21-22.4c-0.3-22.6-0.6-45.2,0.7-67.7c1.4-25.4,21.2-43.1,46.6-43.3C373.4,244.4,393.9,244.5,416,244.5z"/>
	<path class="st1" d="M415.5,381.2c-0.6,7.1-3.6,12.6-9.4,16.4c-4.5,2.9-10.2,4.4-14.1,1.6c-2.9-2.1,0.9-7,2-10.5
		c1.9-6.2,4.6-12.1,6.1-18.4c1.9-8.2,5.2-7.1,9.8-2.4C413.6,371.5,415,376.2,415.5,381.2z"/>
</g>
</svg>
