<?xml version="1.0" encoding="utf-8"?>
<!-- Generator: Adobe Illustrator 21.1.0, SVG Export Plug-In . SVG Version: 6.00 Build 0)  -->
<svg version="1.1" id="Capa_1" xmlns="http://www.w3.org/2000/svg" xmlns:xlink="http://www.w3.org/1999/xlink" x="0px" y="0px"
	 viewBox="0 0 800 800" style="enable-background:new 0 0 800 800;" xml:space="preserve">
<style type="text/css">
	.st0{fill:#006633;}
</style>
<g>
	<path class="st0" d="M197.6,459.8c-10.5,0-19,8.5-19,19c0,10.5,8.5,19,19,19c10.5,0,19-8.5,19-19
		C216.6,468.3,208.1,459.8,197.6,459.8L197.6,459.8z M197.6,459.8"/>
	<path class="st0" d="M702.7,314.3l-133.4-53.5c-22.2-8.9-45.6-13.4-69.6-13.4h-81.8c-29.3,0-58.6,7-84.7,20.3l-120.9,61.5
		l-86.7,12.6c-21,3.1-40.3,13.6-54.2,29.7c-13.9,16.1-21.5,36.6-21.5,57.9v51.2c0,7.9,6.4,14.3,14.3,14.3h61.4
		c3.1,13.9,10.1,26.7,20.6,36.9c13.9,13.5,32.2,20.9,51.5,20.9c19.3,0,37.6-7.4,51.5-20.9c10.4-10.2,17.5-23,20.6-36.9h256.7
		c3.1,13.9,10.1,26.7,20.6,36.8c13.8,13.5,32.1,20.9,51.5,20.9c19.3,0,37.6-7.4,51.5-20.9c10.4-10.2,17.5-22.9,20.6-36.9h65.3
		c7.9,0,14.3-6.4,14.3-14.3v-96.1C750.2,353.4,731.5,325.8,702.7,314.3L702.7,314.3z M558.6,287.4l103,41.3h-77.7l-34.2-44.6
		C552.6,285.1,555.6,286.2,558.6,287.4L558.6,287.4z M431.3,276h68.4c2.6,0,5.2,0.1,7.8,0.2l40.3,52.5H431.3V276z M346.1,293.2
		c17.6-8.9,36.9-14.5,56.5-16.4v51.9H276.4L346.1,293.2z M127.4,370.5c-5.9,19.9-23.5,34.9-44.7,36.9
		C90.2,388.7,106.9,374.3,127.4,370.5L127.4,370.5z M197.6,524c-25,0-45.2-20.2-45.2-45.2s20.2-45.2,45.2-45.2s45.2,20.2,45.2,45.2
		S222.6,524,197.6,524L197.6,524z M598.5,524c-25,0-45.2-20.2-45.2-45.2s20.2-45.2,45.2-45.2c25,0,45.2,20.2,45.2,45.2
		S623.4,524,598.5,524L598.5,524z M721.5,466.2h-50.3c-6-34.7-36.3-61.2-72.7-61.2c-36.4,0-66.7,26.5-72.7,61.2H270.4
		c-6-34.7-36.3-61.2-72.7-61.2c-36.4,0-66.7,26.5-72.7,61.2H78.5v-29.9c40.6-0.4,74.1-30.9,79.1-70.2l60.2-8.8h359.1c0,0,0,0,0,0
		c0,0,0,0,0,0h90.6V376c0,26.2,21.3,47.5,47.5,47.5h6.5V466.2z M721.5,394.8H715c-10.4,0-18.9-8.5-18.9-18.9v-18.7h16.8
		c5.5,7.8,8.6,17.2,8.6,27.2V394.8z M721.5,394.8"/>
	<path class="st0" d="M598.5,459.8c-10.5,0-19,8.5-19,19c0,10.5,8.5,19,19,19c10.5,0,19-8.5,19-19
		C617.5,468.3,609,459.8,598.5,459.8L598.5,459.8z M598.5,459.8"/>
	<path class="st0" d="M446.8,397.5h-95c-7.9,0-14.3,6.4-14.3,14.3c0,7.9,6.4,14.3,14.3,14.3h95c7.9,0,14.3-6.4,14.3-14.3
		C461.1,403.9,454.7,397.5,446.8,397.5L446.8,397.5z M446.8,397.5"/>
	<path class="st0" d="M197.6,459.8c-10.5,0-19,8.5-19,19c0,10.5,8.5,19,19,19c10.5,0,19-8.5,19-19
		C216.6,468.3,208.1,459.8,197.6,459.8L197.6,459.8z M197.6,459.8"/>
	<path class="st0" d="M598.5,459.8c-10.5,0-19,8.5-19,19c0,10.5,8.5,19,19,19c10.5,0,19-8.5,19-19
		C617.5,468.3,609,459.8,598.5,459.8L598.5,459.8z M598.5,459.8"/>
	<path class="st0" d="M197.6,459.8c-10.5,0-19,8.5-19,19c0,10.5,8.5,19,19,19c10.5,0,19-8.5,19-19
		C216.6,468.3,208.1,459.8,197.6,459.8L197.6,459.8z M197.6,459.8"/>
	<path class="st0" d="M598.5,459.8c-10.5,0-19,8.5-19,19c0,10.5,8.5,19,19,19c10.5,0,19-8.5,19-19
		C617.5,468.3,609,459.8,598.5,459.8L598.5,459.8z M598.5,459.8"/>
</g>
</svg>
