<?xml version="1.0" encoding="utf-8"?>
<!-- Generator: Adobe Illustrator 22.1.0, SVG Export Plug-In . SVG Version: 6.00 Build 0)  -->
<svg version="1.1" id="Capa_1" xmlns="http://www.w3.org/2000/svg" xmlns:xlink="http://www.w3.org/1999/xlink" x="0px" y="0px"
	 viewBox="0 0 800 800" style="enable-background:new 0 0 800 800;" xml:space="preserve">
<style type="text/css">
	.st0{fill:#006833;}
</style>
<g>
	<path class="st0" d="M400,240.1c-6.8,0-12.3,5.5-12.3,12.3c0,6.8,5.5,12.3,12.3,12.3c6.8,0,12.3-5.5,12.3-12.3
		C412.4,245.6,406.8,240.1,400,240.1L400,240.1z M400,240.1"/>
	<path class="st0" d="M195.1,462.3c6.8,0,12.3-5.5,12.3-12.3c0-6.8-5.5-12.3-12.3-12.3c-6.8,0-12.3,5.5-12.3,12.3
		C182.8,456.8,188.3,462.3,195.1,462.3L195.1,462.3z M195.1,462.3"/>
	<path class="st0" d="M498.8,116.7c-111.1,0-202.3,76.6-209.4,173.1C183.5,295.1,84,371.4,84,474.6c0,43.1,17.1,84.9,48.1,118
		c6.1,25.3-1.3,52.2-19.8,70.7c-3.5,3.5-4.6,8.8-2.7,13.4c1.9,4.6,6.4,7.6,11.4,7.6c35.2,0,69.1-13.8,94.3-38.1
		c24.6,8.4,56.6,13.4,85.9,13.4c111.1,0,202.3-76.6,209.4-173.1c25.8-1.1,52.7-5.9,74-13.2c25.2,24.3,59.1,38.1,94.3,38.1
		c5,0,9.5-3,11.4-7.6c1.9-4.6,0.9-9.9-2.7-13.4c-18.5-18.5-26-45.4-19.8-70.7c31.1-33.1,48.1-74.9,48.1-118
		C716,194.6,608.8,116.7,498.8,116.7L498.8,116.7z M301.3,635.1c-29.1,0-62.3-5.7-84.6-14.6c-4.8-1.9-10.2-0.6-13.7,3.1
		c-14.9,16.3-34.3,27.6-55.4,32.9c11.6-22.3,14.6-48.6,7.5-73.5c-0.6-2-1.6-3.8-3-5.2c-28-28.8-43.4-65.5-43.4-103.2
		c0-87,88.2-160.5,192.6-160.5c98.6,0,185.2,68.5,185.2,160.5C486.4,563.1,403.4,635.1,301.3,635.1L301.3,635.1z M647.9,405.1
		c-1.4,1.5-2.5,3.3-3,5.2c-7.1,24.9-4.1,51.2,7.5,73.5c-21.1-5.2-40.5-16.6-55.4-32.9c-3.5-3.8-8.9-5-13.7-3.1
		c-19.3,7.7-46.8,13-72.7,14.3c-3.6-46.7-26.9-90.5-66.7-123.1h161c6.8,0,12.3-5.5,12.3-12.3s-5.5-12.3-12.3-12.3H406
		c-28-14.3-59.5-22.6-91.9-24.3c7.1-82.9,87.2-148.5,184.6-148.5c104.4,0,192.6,73.5,192.6,160.5
		C691.3,339.5,675.9,376.2,647.9,405.1L647.9,405.1z M647.9,405.1"/>
	<path class="st0" d="M400,437.6H244.5c-6.8,0-12.3,5.5-12.3,12.3c0,6.8,5.5,12.3,12.3,12.3H400c6.8,0,12.3-5.5,12.3-12.3
		C412.4,443.1,406.8,437.6,400,437.6L400,437.6z M400,437.6"/>
	<path class="st0" d="M400,511.7H195.1c-6.8,0-12.3,5.5-12.3,12.3s5.5,12.3,12.3,12.3H400c6.8,0,12.3-5.5,12.3-12.3
		S406.8,511.7,400,511.7L400,511.7z M400,511.7"/>
	<path class="st0" d="M604.9,240.1H449.4c-6.8,0-12.3,5.5-12.3,12.3c0,6.8,5.5,12.3,12.3,12.3h155.5c6.8,0,12.3-5.5,12.3-12.3
		C617.3,245.6,611.7,240.1,604.9,240.1L604.9,240.1z M604.9,240.1"/>
</g>
</svg>
