<?xml version="1.0" encoding="utf-8"?>
<!-- Generator: Adobe Illustrator 21.1.0, SVG Export Plug-In . SVG Version: 6.00 Build 0)  -->
<svg version="1.1" id="Capa_1" xmlns="http://www.w3.org/2000/svg" xmlns:xlink="http://www.w3.org/1999/xlink" x="0px" y="0px"
	 viewBox="0 0 1441 800" style="enable-background:new 0 0 1441 800;" xml:space="preserve">
<style type="text/css">
	.st0{fill:#FFFFFF;}
</style>
<g>
	<path class="st0" d="M240.8,400.6c-10.3,0-18.7-8.4-18.7-18.7c0-1,0.1-1.9,0.2-2.9c-10.9,2.6-19,12.3-19,24
		c0,13.6,11,24.7,24.7,24.7s24.7-11,24.7-24.7c0-2.1-0.3-4.2-0.8-6.2C248.8,399.2,245,400.6,240.8,400.6z"/>
	<polygon class="st0" points="121.9,426.5 193.7,426.5 190.7,410.2 114.9,410.2 	"/>
	<polygon class="st0" points="268.6,393.7 340.3,393.7 337.3,377.5 261.6,377.5 	"/>
	<g>
		<path class="st0" d="M192.4,393.7c4.2-15.7,18.6-27.4,35.7-27.4s31.5,11.6,35.7,27.4h15.4c-4.5-24.1-25.7-42.4-51.1-42.4
			s-46.5,18.3-51.1,42.4H192.4z"/>
		<path class="st0" d="M264.4,410.2c-3.2,17.1-18.3,30.1-36.3,30.1s-33.1-13-36.3-30.1h-15.2c3.4,25.4,25.2,45.1,51.5,45.1
			s48.1-19.7,51.5-45.1H264.4z"/>
	</g>
	<g>
		<path class="st0" d="M127.5,393.7c-9.2-37.2-11.8-70.1-12.6-83.3l110.7-50.2l111.5,50.6c-0.7,13.2-3.4,45.9-12.5,83h19.6
			c11.3-47.9,12.2-87,12.2-88.8c0.1-3.8-2.1-7.3-5.6-8.8L232,242.2c-0.3-0.2-0.5-0.4-0.8-0.6c-2.7-1.7-6.1-2-9.1-0.7l-120.9,54.8
			c-3.5,1.6-5.7,5-5.6,8.8c0,1.8,1,41.1,12.3,89.1H127.5z"/>
		<path class="st0" d="M320.3,410.2c-13.6,46.8-40.8,105.6-93.8,129.7c-53.4-23.9-80.7-82.8-94.5-129.7h-19.8c0.1,0.5,0.3,1,0.4,1.5
			c9.3,33.1,21.9,61.7,37.3,84.9c19.2,28.8,42.8,49.5,70.3,61.3c0.2,0.1,0.3,0.2,0.5,0.4c1.6,1.1,3.4,1.6,5.3,1.6
			c1.2,0,2.5-0.2,3.6-0.7c28.4-11.7,52.8-32.7,72.5-62.3c15.4-23.2,28-51.8,37.3-84.9c0.2-0.6,0.3-1.2,0.5-1.9H320.3z"/>
	</g>
	<g>
		<path class="st0" d="M410.5,337.3v-11.7h55.8v11.7h-20.8v56.4h-14.2v-56.4H410.5z"/>
		<path class="st0" d="M472.8,325.6h33.8c5.2,0,9.4,0.7,12.4,2.2c3,1.5,5.4,3.8,7.2,6.9c1.8,3.1,2.7,6.5,2.7,10.1
			c0,4-0.9,7.4-2.8,10.2c-1.9,2.8-4.4,4.8-7.7,6.1c3.4,1.3,5.8,3.3,7.2,6.1c1,1.9,1.4,5.2,1.4,9.9v4.6c0,3.9,0.3,6.6,0.8,8
			c0.3,0.9,1.1,1.7,2.2,2.2v1.8h-15.7c-1-3-1.6-6.2-1.6-9.5v-6.4c0-3.1-0.4-5.4-1.1-6.8c-0.7-1.4-1.8-2.5-3.1-3.1
			c-1.4-0.6-3.7-0.9-6.8-0.9h-14.7v26.8h-14.2V325.6z M487.1,337.3v18.3h16.1c3.7,0,6.3-0.5,7.9-1.5c2.5-1.6,3.7-4.1,3.7-7.6
			c0-3.4-1.2-5.9-3.5-7.5c-1.6-1.1-4.1-1.6-7.6-1.6H487.1z"/>
		<path class="st0" d="M576.7,325.6h14.2v41.7c0,4.1-0.2,7.3-0.6,9.4c-0.7,3.3-1.8,6.1-3.3,8.4c-1.5,2.3-3.3,4.1-5.4,5.5
			c-2.1,1.4-4.7,2.6-7.8,3.4c-3.1,0.9-6.5,1.3-10.3,1.3c-4,0-7.7-0.5-11-1.5c-3.3-1-6.1-2.3-8.3-4.1c-2.2-1.8-3.9-3.7-5.1-5.9
			c-1.2-2.2-2.1-4.9-2.6-8.2c-0.3-1.9-0.5-4.8-0.5-8.4v-41.7h14.2v43.3c0,3.3,0.3,5.9,0.9,7.6c0.6,1.8,1.9,3.3,3.9,4.7
			c2,1.3,4.8,2,8.4,2c3.5,0,6.2-0.5,8-1.5c1.8-1,3.2-2.5,4-4.3s1.3-4.7,1.3-8.4V325.6z"/>
		<path class="st0" d="M613.7,372.7c0.1,2.3,0.5,4,1.3,5.3c1,1.7,2.6,3.1,5,4.1c2.3,1,5.1,1.5,8.5,1.5c4.9,0,8.6-1,11.2-3
			c1.9-1.4,2.8-3.3,2.8-5.7c0-1.5-0.4-2.8-1.2-3.8c-0.8-1-2-1.9-3.7-2.5c-1.6-0.6-4.1-1.4-7.4-2.1l-7.3-1.7
			c-4.7-1.1-8.1-2.1-10.3-2.9c-2.9-1.2-5.1-2.5-6.6-3.9c-1.5-1.4-2.7-3.2-3.5-5.4c-0.9-2.1-1.3-4.6-1.3-7.4c0-5,1.2-9.1,3.6-12.3
			c2.4-3.2,5.6-5.5,9.7-6.9c4-1.4,8.2-2.2,12.6-2.2c3.5,0,6.7,0.4,9.8,1.2c3.1,0.8,5.7,1.8,7.8,3.2c2.1,1.3,3.9,2.9,5.2,4.7
			c1.4,1.8,2.4,3.7,3,5.6c0.6,1.9,0.9,4.4,1,7.5h-13.7c-0.1-2.1-0.6-3.9-1.4-5.3c-0.9-1.4-2.3-2.6-4.4-3.6s-4.7-1.4-7.8-1.4
			c-4.3,0-7.4,0.8-9.4,2.4s-3,3.7-3,6.1c0,2.2,0.8,3.9,2.4,5c0.9,0.7,3.5,1.5,7.6,2.4l14,3.2c3.6,0.8,6.5,1.9,8.8,3.1
			c3,1.7,5.3,3.8,6.8,6.3c1.5,2.5,2.3,5.6,2.3,9.2c0,3-0.5,5.8-1.5,8.2c-1,2.4-2.2,4.4-3.7,6c-1.5,1.5-3.3,2.9-5.5,4.1
			c-2.2,1.2-4.9,2.1-8.1,2.7c-3.2,0.7-6.5,1-9.8,1c-4.1,0-8.1-0.6-11.9-1.7c-2.6-0.8-4.9-1.8-6.8-3.1c-1.9-1.3-3.5-2.9-4.8-4.7
			c-1.3-1.8-2.2-3.7-2.8-5.7c-0.6-2-1-4.5-1.1-7.5H613.7z"/>
		<path class="st0" d="M655.6,337.3v-11.7h55.8v11.7h-20.8v56.4h-14.2v-56.4H655.6z"/>
		<path class="st0" d="M787,348c-1.1-3.8-2.6-6.5-4.5-8.3c-2.6-2.3-6-3.5-10.1-3.5c-3.5,0-6.6,0.8-9.2,2.5c-2.7,1.7-4.7,4.4-6.2,8.1
			c-1.5,3.7-2.2,8-2.2,13s0.7,9.3,2.2,12.9c1.5,3.6,3.5,6.3,6.1,7.9c2.6,1.7,5.5,2.5,8.7,2.5c2.6,0,4.9-0.5,7-1.4
			c2.1-1,3.8-2.3,5.1-4.1c1.3-1.7,2.4-4.2,3.3-7.3h14.1c-0.8,3.7-1.6,6.6-2.5,8.7c-1.3,2.9-3.2,5.7-5.7,8.3c-2.5,2.6-5.5,4.6-9.1,6
			s-7.4,2.1-11.3,2.1c-4.7,0-9-0.7-13-2.2c-4-1.5-7.5-3.8-10.3-6.9c-2.8-3.1-5-7-6.5-11.6c-1.5-4.6-2.2-9.4-2.2-14.5
			c0-6.4,1-12.2,3.1-17.6c1.4-3.8,3.3-7,5.7-9.6c2.4-2.6,5.3-4.7,8.7-6.2c4.3-2,9-3,14.1-3c4.5,0,8.7,0.7,12.4,2.2
			c3.7,1.5,6.8,3.4,9.3,5.9c2.5,2.5,4.3,5.3,5.6,8.4c0.9,2.2,1.5,4.7,1.8,7.6H787z"/>
		<path class="st0" d="M805.4,359.7c0-7.1,1.3-13.5,3.9-19c2.6-5.6,6.5-9.7,11.5-12.5s10.7-4.2,16.8-4.2c6.7,0,12.6,1.5,17.7,4.6
			c5.1,3.1,9,7.4,11.6,13c2.6,5.6,3.9,11.6,3.9,18.1c0,6.8-1.4,13-4.2,18.7s-6.8,9.9-11.9,12.8c-5.2,2.8-10.8,4.3-17,4.3
			c-6.3,0-12-1.5-17.1-4.4c-5.1-2.9-8.9-7.2-11.4-12.8C806.6,372.7,805.4,366.5,805.4,359.7z M838.1,383.1c3.4,0,6.6-0.9,9.5-2.8
			c2.9-1.8,5.1-4.6,6.7-8.3c1.6-3.7,2.3-7.9,2.3-12.4c0-4.5-0.8-8.6-2.3-12.3c-1.5-3.7-3.7-6.5-6.6-8.4c-2.9-1.9-6.1-2.8-9.5-2.8
			c-3.5,0-6.7,0.9-9.6,2.8c-2.9,1.9-5.1,4.6-6.6,8.4c-1.5,3.7-2.3,7.8-2.3,12.3c0,4.4,0.7,8.4,2.2,12.1c1.5,3.7,3.7,6.5,6.6,8.5
			S834.5,383.1,838.1,383.1z"/>
		<path class="st0" d="M880.4,325.6h33.8c5.2,0,9.4,0.7,12.4,2.2c3,1.5,5.4,3.8,7.2,6.9c1.8,3.1,2.7,6.5,2.7,10.1
			c0,4-0.9,7.4-2.8,10.2c-1.9,2.8-4.4,4.8-7.7,6.1c3.4,1.3,5.8,3.3,7.2,6.1c1,1.9,1.4,5.2,1.4,9.9v4.6c0,3.9,0.3,6.6,0.8,8
			c0.3,0.9,1.1,1.7,2.2,2.2v1.8H922c-1-3-1.6-6.2-1.6-9.5v-6.4c0-3.1-0.4-5.4-1.1-6.8c-0.7-1.4-1.8-2.5-3.1-3.1
			c-1.4-0.6-3.7-0.9-6.8-0.9h-14.7v26.8h-14.2V325.6z M894.6,337.3v18.3h16.1c3.7,0,6.3-0.5,7.9-1.5c2.5-1.6,3.7-4.1,3.7-7.6
			c0-3.4-1.2-5.9-3.5-7.5c-1.6-1.1-4.1-1.6-7.6-1.6H894.6z"/>
		<path class="st0" d="M947.7,325.6h33.8c5.2,0,9.4,0.7,12.4,2.2c3,1.5,5.4,3.8,7.2,6.9c1.8,3.1,2.7,6.5,2.7,10.1
			c0,4-0.9,7.4-2.8,10.2c-1.9,2.8-4.4,4.8-7.7,6.1c3.4,1.3,5.8,3.3,7.2,6.1c1,1.9,1.4,5.2,1.4,9.9v4.6c0,3.9,0.3,6.6,0.8,8
			c0.3,0.9,1.1,1.7,2.2,2.2v1.8h-15.7c-1-3-1.6-6.2-1.6-9.5v-6.4c0-3.1-0.4-5.4-1.1-6.8c-0.7-1.4-1.8-2.5-3.1-3.1
			c-1.4-0.6-3.7-0.9-6.8-0.9h-14.7v26.8h-14.2V325.6z M961.9,337.3v18.3H978c3.7,0,6.3-0.5,7.9-1.5c2.5-1.6,3.7-4.1,3.7-7.6
			c0-3.4-1.2-5.9-3.5-7.5c-1.6-1.1-4.1-1.6-7.6-1.6H961.9z"/>
		<path class="st0" d="M1015.5,393.7v-68.1h50.5v11.7h-36.3v15.1h33.4v11.8h-33.4v17.7h37.9v11.8H1015.5z"/>
		<path class="st0" d="M1077,393.7v-68.1h29.8c8.9,0,15.6,2.5,20.2,7.5c5.5,6.1,8.2,14.5,8.2,25.4c0,5.2-0.6,9.9-1.7,14.3
			c-1.1,4.4-2.6,8-4.5,10.8s-3.9,5-6.1,6.4c-2.2,1.4-4.7,2.4-7.4,2.9c-2.7,0.5-6.9,0.8-12.6,0.8H1077z M1091.2,337.3v44.6h12.4
			c3,0,5.5-0.4,7.5-1.2c2-0.8,3.6-1.9,4.8-3.3s2.2-3.3,2.9-5.7c1.2-4.1,1.9-8.5,1.9-13.1c0-3.4-0.4-6.5-1.2-9.4
			c-0.8-2.9-1.9-5.2-3.3-7c-1.4-1.8-3-3-4.9-3.8c-1.8-0.7-4.4-1.1-7.7-1.1H1091.2z"/>
		<path class="st0" d="M1185.1,325.6h14.2v41.7c0,4.1-0.2,7.3-0.6,9.4c-0.7,3.3-1.8,6.1-3.3,8.4c-1.5,2.3-3.3,4.1-5.4,5.5
			c-2.1,1.4-4.7,2.6-7.8,3.4c-3.1,0.9-6.5,1.3-10.3,1.3c-4,0-7.7-0.5-11-1.5c-3.3-1-6.1-2.3-8.3-4.1c-2.2-1.8-3.9-3.7-5.1-5.9
			c-1.2-2.2-2.1-4.9-2.6-8.2c-0.3-1.9-0.5-4.8-0.5-8.4v-41.7h14.2v43.3c0,3.3,0.3,5.9,0.9,7.6c0.6,1.8,1.9,3.3,3.9,4.7
			c2,1.3,4.8,2,8.4,2c3.5,0,6.2-0.5,8-1.5c1.8-1,3.2-2.5,4-4.3s1.3-4.7,1.3-8.4V325.6z"/>
		<path class="st0" d="M1211.6,325.6h33.8c5.2,0,9.4,0.7,12.4,2.2c3,1.5,5.4,3.8,7.2,6.9c1.8,3.1,2.7,6.5,2.7,10.1
			c0,4-0.9,7.4-2.8,10.2c-1.9,2.8-4.4,4.8-7.7,6.1c3.4,1.3,5.8,3.3,7.2,6.1c1,1.9,1.4,5.2,1.4,9.9v4.6c0,3.9,0.3,6.6,0.8,8
			c0.3,0.9,1.1,1.7,2.2,2.2v1.8h-15.7c-1-3-1.6-6.2-1.6-9.5v-6.4c0-3.1-0.4-5.4-1.1-6.8c-0.7-1.4-1.8-2.5-3.1-3.1
			c-1.4-0.6-3.7-0.9-6.8-0.9h-14.7v26.8h-14.2V325.6z M1225.8,337.3v18.3h16.1c3.7,0,6.3-0.5,7.9-1.5c2.5-1.6,3.7-4.1,3.7-7.6
			c0-3.4-1.2-5.9-3.5-7.5c-1.6-1.1-4.1-1.6-7.6-1.6H1225.8z"/>
		<path class="st0" d="M1278.2,393.7v-68.1h14.2v68.1H1278.2z"/>
		<path class="st0" d="M1299.2,393.7l24.4-68.1h16.3l24.1,68.1h-15.5l-4.4-14h-25.2l-4.7,14H1299.2z M1322.7,367.9h17.4l-8.5-27
			h-0.2L1322.7,367.9z"/>
	</g>
	<g>
		<path class="st0" d="M477,446.2v-32.4h14.2c4.3,0,7.5,1.2,9.6,3.6c2.6,2.9,3.9,6.9,3.9,12.1c0,2.5-0.3,4.7-0.8,6.8
			c-0.5,2.1-1.3,3.8-2.1,5.2c-0.9,1.4-1.9,2.4-2.9,3s-2.2,1.1-3.5,1.4c-1.3,0.3-3.3,0.4-6,0.4H477z M483.7,419.3v21.3h5.9
			c1.4,0,2.6-0.2,3.6-0.6c0.9-0.4,1.7-0.9,2.3-1.6c0.6-0.7,1-1.6,1.4-2.7c0.6-2,0.9-4,0.9-6.2c0-1.6-0.2-3.1-0.6-4.5
			c-0.4-1.4-0.9-2.5-1.6-3.3c-0.7-0.9-1.4-1.5-2.3-1.8c-0.9-0.3-2.1-0.5-3.7-0.5H483.7z"/>
		<path class="st0" d="M548.3,446.2v-32.4h24.1v5.6h-17.3v7.2H571v5.6h-15.9v8.5h18.1v5.6H548.3z"/>
		<path class="st0" d="M672.7,436.2c0,1.1,0.2,1.9,0.6,2.5c0.5,0.8,1.3,1.5,2.4,2c1.1,0.5,2.5,0.7,4,0.7c2.3,0,4.1-0.5,5.3-1.4
			c0.9-0.7,1.3-1.6,1.3-2.7c0-0.7-0.2-1.3-0.6-1.8c-0.4-0.5-1-0.9-1.8-1.2c-0.8-0.3-2-0.6-3.5-1l-3.5-0.8c-2.2-0.5-3.9-1-4.9-1.4
			c-1.4-0.6-2.4-1.2-3.1-1.9c-0.7-0.7-1.3-1.5-1.7-2.6c-0.4-1-0.6-2.2-0.6-3.5c0-2.4,0.6-4.3,1.7-5.8c1.2-1.5,2.7-2.6,4.6-3.3
			c1.9-0.7,3.9-1,6-1c1.6,0,3.2,0.2,4.7,0.6c1.5,0.4,2.7,0.9,3.7,1.5c1,0.6,1.8,1.4,2.5,2.3c0.7,0.9,1.1,1.7,1.4,2.6
			c0.3,0.9,0.5,2.1,0.5,3.6h-6.5c0-1-0.3-1.9-0.7-2.5c-0.4-0.7-1.1-1.3-2.1-1.7s-2.2-0.7-3.7-0.7c-2,0-3.5,0.4-4.5,1.2
			s-1.4,1.7-1.4,2.9c0,1,0.4,1.8,1.1,2.4c0.4,0.3,1.7,0.7,3.6,1.1l6.7,1.5c1.7,0.4,3.1,0.9,4.2,1.5c1.4,0.8,2.5,1.8,3.2,3
			c0.7,1.2,1.1,2.7,1.1,4.4c0,1.4-0.2,2.7-0.7,3.9s-1.1,2.1-1.8,2.8c-0.7,0.7-1.6,1.4-2.6,1.9s-2.3,1-3.9,1.3
			c-1.5,0.3-3.1,0.5-4.6,0.5c-2,0-3.9-0.3-5.7-0.8c-1.2-0.4-2.3-0.9-3.2-1.5c-0.9-0.6-1.7-1.4-2.3-2.2c-0.6-0.9-1.1-1.8-1.4-2.7
			c-0.3-0.9-0.5-2.1-0.5-3.6H672.7z"/>
		<path class="st0" d="M736.4,446.2v-32.4h24.1v5.6h-17.3v7.2h15.9v5.6h-15.9v8.5h18.1v5.6H736.4z"/>
		<path class="st0" d="M832.1,423.8h-6.7c-0.5-1.6-1.3-2.9-2.5-3.7c-1.2-0.9-2.8-1.3-4.7-1.3c-2,0-3.7,0.5-5.2,1.5
			c-1.5,1-2.6,2.4-3.4,4.3c-0.6,1.5-0.9,3.4-0.9,5.8c0,2.3,0.4,4.3,1.1,5.9s1.8,2.8,3.3,3.7s3,1.3,4.8,1.3c1.4,0,2.7-0.3,3.9-0.8
			c1.2-0.5,2.1-1.4,2.9-2.5s1.3-2.3,1.5-3.7h-7.5v-5.5h13.6v17.5h-4.5l-0.7-4.1c-1,1.2-1.9,2.1-2.8,2.8c-0.8,0.6-1.9,1.1-3.2,1.5
			s-2.7,0.6-4.2,0.6c-1.8,0-3.5-0.3-5.3-0.9c-1.8-0.6-3.4-1.7-4.8-3.1c-1.5-1.4-2.6-3.2-3.5-5.4c-0.9-2.1-1.3-4.6-1.3-7.4
			c0-3.5,0.7-6.5,2-9.2c1.3-2.6,3.2-4.7,5.6-6.1c2.4-1.4,5.2-2.1,8.3-2.1c2.5,0,4.7,0.4,6.8,1.3c1.5,0.6,2.8,1.4,3.9,2.4
			s1.9,2,2.4,3.2S831.9,422.2,832.1,423.8z"/>
		<path class="st0" d="M896.2,413.7h6.8v19.9c0,2-0.1,3.5-0.3,4.5c-0.3,1.6-0.8,2.9-1.6,4c-0.7,1.1-1.6,2-2.6,2.6s-2.2,1.2-3.7,1.6
			c-1.5,0.4-3.1,0.6-4.9,0.6c-1.9,0-3.7-0.2-5.2-0.7c-1.6-0.5-2.9-1.1-3.9-2c-1.1-0.8-1.9-1.8-2.4-2.8s-1-2.3-1.3-3.9
			c-0.1-0.9-0.2-2.3-0.2-4v-19.9h6.8v20.6c0,1.6,0.1,2.8,0.4,3.6c0.3,0.8,0.9,1.6,1.9,2.2c1,0.6,2.3,1,4,1c1.7,0,3-0.2,3.8-0.7
			c0.9-0.5,1.5-1.2,1.9-2.1c0.4-0.9,0.6-2.2,0.6-4V413.7z"/>
		<path class="st0" d="M947.8,413.7h16.1c2.5,0,4.5,0.3,5.9,1c1.4,0.7,2.6,1.8,3.5,3.3s1.3,3.1,1.3,4.8c0,1.9-0.4,3.5-1.3,4.9
			s-2.1,2.3-3.7,2.9c1.6,0.6,2.8,1.6,3.4,2.9c0.5,0.9,0.7,2.5,0.7,4.7v2.2c0,1.9,0.1,3.1,0.4,3.8c0.2,0.4,0.5,0.8,1,1.1v0.8h-7.5
			c-0.5-1.4-0.8-3-0.8-4.5v-3c0-1.5-0.2-2.6-0.5-3.3c-0.3-0.7-0.8-1.2-1.5-1.5c-0.7-0.3-1.7-0.4-3.3-0.4h-7v12.8h-6.8V413.7z
			 M954.6,419.3v8.7h7.7c1.8,0,3-0.2,3.8-0.7c1.2-0.8,1.8-2,1.8-3.6c0-1.6-0.6-2.8-1.7-3.6c-0.8-0.5-2-0.8-3.6-0.8H954.6z"/>
		<path class="st0" d="M1016.2,429.9c0-3.4,0.6-6.4,1.9-9.1c1.3-2.6,3.1-4.6,5.5-6c2.4-1.3,5.1-2,8-2c3.2,0,6,0.7,8.4,2.2
			s4.3,3.5,5.5,6.2c1.2,2.7,1.9,5.5,1.9,8.6c0,3.2-0.7,6.2-2,8.9c-1.3,2.7-3.2,4.7-5.7,6.1c-2.5,1.4-5.2,2-8.1,2
			c-3,0-5.7-0.7-8.2-2.1c-2.4-1.4-4.2-3.4-5.4-6.1C1016.8,436.1,1016.2,433.2,1016.2,429.9z M1031.8,441.1c1.6,0,3.1-0.4,4.5-1.3
			c1.4-0.9,2.4-2.2,3.2-4c0.7-1.8,1.1-3.7,1.1-5.9c0-2.1-0.4-4.1-1.1-5.9c-0.7-1.8-1.8-3.1-3.2-4c-1.4-0.9-2.9-1.3-4.5-1.3
			c-1.7,0-3.2,0.4-4.6,1.3c-1.4,0.9-2.4,2.2-3.2,4c-0.7,1.8-1.1,3.7-1.1,5.9c0,2.1,0.3,4,1,5.8c0.7,1.8,1.7,3.1,3.1,4
			C1028.6,440.7,1030.1,441.1,1031.8,441.1z"/>
		<path class="st0" d="M1096.1,436.2c0,1.1,0.2,1.9,0.6,2.5c0.5,0.8,1.3,1.5,2.4,2c1.1,0.5,2.5,0.7,4,0.7c2.3,0,4.1-0.5,5.3-1.4
			c0.9-0.7,1.3-1.6,1.3-2.7c0-0.7-0.2-1.3-0.6-1.8c-0.4-0.5-1-0.9-1.8-1.2c-0.8-0.3-2-0.6-3.5-1l-3.5-0.8c-2.2-0.5-3.9-1-4.9-1.4
			c-1.4-0.6-2.4-1.2-3.1-1.9c-0.7-0.7-1.3-1.5-1.7-2.6c-0.4-1-0.6-2.2-0.6-3.5c0-2.4,0.6-4.3,1.7-5.8c1.2-1.5,2.7-2.6,4.6-3.3
			c1.9-0.7,3.9-1,6-1c1.6,0,3.2,0.2,4.7,0.6c1.5,0.4,2.7,0.9,3.7,1.5c1,0.6,1.8,1.4,2.5,2.3c0.7,0.9,1.1,1.7,1.4,2.6
			c0.3,0.9,0.5,2.1,0.5,3.6h-6.5c0-1-0.3-1.9-0.7-2.5c-0.4-0.7-1.1-1.3-2.1-1.7s-2.2-0.7-3.7-0.7c-2,0-3.5,0.4-4.5,1.2
			s-1.4,1.7-1.4,2.9c0,1,0.4,1.8,1.1,2.4c0.4,0.3,1.7,0.7,3.6,1.1l6.7,1.5c1.7,0.4,3.1,0.9,4.2,1.5c1.4,0.8,2.5,1.8,3.2,3
			c0.7,1.2,1.1,2.7,1.1,4.4c0,1.4-0.2,2.7-0.7,3.9s-1.1,2.1-1.8,2.8c-0.7,0.7-1.6,1.4-2.6,1.9s-2.3,1-3.9,1.3
			c-1.5,0.3-3.1,0.5-4.6,0.5c-2,0-3.9-0.3-5.7-0.8c-1.2-0.4-2.3-0.9-3.2-1.5c-0.9-0.6-1.7-1.4-2.3-2.2c-0.6-0.9-1.1-1.8-1.4-2.7
			c-0.3-0.9-0.5-2.1-0.5-3.6H1096.1z"/>
		<path class="st0" d="M1215.6,436.2c0,1.1,0.2,1.9,0.6,2.5c0.5,0.8,1.3,1.5,2.4,2c1.1,0.5,2.5,0.7,4,0.7c2.3,0,4.1-0.5,5.3-1.4
			c0.9-0.7,1.3-1.6,1.3-2.7c0-0.7-0.2-1.3-0.6-1.8c-0.4-0.5-1-0.9-1.8-1.2c-0.8-0.3-2-0.6-3.5-1l-3.5-0.8c-2.2-0.5-3.9-1-4.9-1.4
			c-1.4-0.6-2.4-1.2-3.1-1.9c-0.7-0.7-1.3-1.5-1.7-2.6c-0.4-1-0.6-2.2-0.6-3.5c0-2.4,0.6-4.3,1.7-5.8c1.2-1.5,2.7-2.6,4.6-3.3
			c1.9-0.7,3.9-1,6-1c1.6,0,3.2,0.2,4.7,0.6c1.5,0.4,2.7,0.9,3.7,1.5c1,0.6,1.8,1.4,2.5,2.3c0.7,0.9,1.1,1.7,1.4,2.6
			c0.3,0.9,0.5,2.1,0.5,3.6h-6.5c0-1-0.3-1.9-0.7-2.5c-0.4-0.7-1.1-1.3-2.1-1.7s-2.2-0.7-3.7-0.7c-2,0-3.5,0.4-4.5,1.2
			s-1.4,1.7-1.4,2.9c0,1,0.4,1.8,1.1,2.4c0.4,0.3,1.7,0.7,3.6,1.1l6.7,1.5c1.7,0.4,3.1,0.9,4.2,1.5c1.4,0.8,2.5,1.8,3.2,3
			c0.7,1.2,1.1,2.7,1.1,4.4c0,1.4-0.2,2.7-0.7,3.9s-1.1,2.1-1.8,2.8c-0.7,0.7-1.6,1.4-2.6,1.9s-2.3,1-3.9,1.3
			c-1.5,0.3-3.1,0.5-4.6,0.5c-2,0-3.9-0.3-5.7-0.8c-1.2-0.4-2.3-0.9-3.2-1.5c-0.9-0.6-1.7-1.4-2.3-2.2c-0.6-0.9-1.1-1.8-1.4-2.7
			c-0.3-0.9-0.5-2.1-0.5-3.6H1215.6z"/>
		<path class="st0" d="M1274.3,446.2l11.6-32.4h7.7l11.5,32.4h-7.4l-2.1-6.7h-12l-2.3,6.7H1274.3z M1285.5,433.9h8.3l-4-12.8h-0.1
			L1285.5,433.9z"/>
	</g>
</g>
</svg>
