<?xml version="1.0" encoding="utf-8"?>
<!-- Generator: Adobe Illustrator 21.1.0, SVG Export Plug-In . SVG Version: 6.00 Build 0)  -->
<svg version="1.1" id="Capa_1" xmlns="http://www.w3.org/2000/svg" xmlns:xlink="http://www.w3.org/1999/xlink" x="0px" y="0px"
	 viewBox="0 0 800 800" style="enable-background:new 0 0 800 800;" xml:space="preserve">
<style type="text/css">
	.st0{fill:#006633;}
</style>
<g>
	<g>
		<path class="st0" d="M681.8,207.2c0,0-0.1,0-0.1,0h-159v-17.5c0-29-23.6-52.6-52.6-52.6H329.9c-29,0-52.6,23.6-52.6,52.6v17.5
			h-159c-9.8,0-17.5,8-17.5,17.5v385.7c0,29,23.6,52.6,52.6,52.6h493.2c29,0,52.6-23.6,52.6-52.6V225.1c0,0,0,0,0-0.1
			C698.5,213.5,691.5,207.2,681.8,207.2L681.8,207.2z M312.3,189.6c0-9.7,7.9-17.5,17.5-17.5h140.3c9.7,0,17.5,7.9,17.5,17.5v17.5
			H312.3V189.6z M657.3,242.2l-54.4,163.3c-2.4,7.2-9.1,12-16.6,12h-98.6V400c0-9.7-7.8-17.5-17.5-17.5H329.9
			c-9.7,0-17.5,7.8-17.5,17.5v17.5h-98.6c-7.6,0-14.2-4.8-16.6-12l-54.4-163.3H657.3z M452.6,417.5v35.1H347.4v-35.1H452.6z
			 M664.1,610.4c0,9.7-7.9,17.5-17.5,17.5H153.4c-9.7,0-17.5-7.9-17.5-17.5V332.7l28,83.9c7.2,21.5,27.2,36,49.9,36h98.6v17.5
			c0,9.7,7.8,17.5,17.5,17.5h140.3c9.7,0,17.5-7.8,17.5-17.5v-17.5h98.6c22.7,0,42.7-14.5,49.9-36l28-83.9V610.4z M664.1,610.4"/>
	</g>
</g>
</svg>
