<?xml version="1.0" encoding="utf-8"?>
<!-- Generator: Adobe Illustrator 22.1.0, SVG Export Plug-In . SVG Version: 6.00 Build 0)  -->
<svg version="1.1" id="Capa_1" xmlns="http://www.w3.org/2000/svg" xmlns:xlink="http://www.w3.org/1999/xlink" x="0px" y="0px"
	 viewBox="0 0 800 800" style="enable-background:new 0 0 800 800;" xml:space="preserve">
<style type="text/css">
	.st0{fill:#006833;}
</style>
<g>
	<path class="st0" d="M550.8,473.5c-29.7,0-56.1,14.1-73.1,36L336,430.3c3.3-9.5,5.1-19.8,5.1-30.4c0-10.7-1.8-20.9-5.3-30.5
		l141.6-79.1c16.8,22,43.4,36.2,73.2,36.2c50.8,0,92.2-41.4,92.2-92.2S601.6,142,550.7,142s-92.2,41.4-92.2,92.2
		c0,10.7,1.8,21,5.3,30.5l-141.5,79.1c-16.8-22.1-43.4-36.2-73.2-36.2c-50.8,0-92.2,41.4-92.2,92.2s41.5,92.3,92.4,92.3
		c29.8,0,56.4-14.3,73.3-36.3L464.1,535c-3.4,9.6-5.4,20-5.4,30.7c0,50.8,41.4,92.2,92.2,92.2s92.3-41.4,92.3-92.2
		S601.7,473.5,550.8,473.5L550.8,473.5z M550.8,171c34.9,0,63.3,28.4,63.3,63.3c0,34.9-28.4,63.3-63.3,63.3s-63.3-28.4-63.3-63.3
		C487.5,199.4,516,171,550.8,171L550.8,171z M249.1,463.2c-34.9,0-63.3-28.4-63.3-63.3c0-34.9,28.4-63.3,63.3-63.3
		s63.3,28.4,63.3,63.3C312.5,434.8,284,463.2,249.1,463.2L249.1,463.2z M550.8,629c-34.9,0-63.3-28.4-63.3-63.3s28.4-63.3,63.3-63.3
		s63.3,28.4,63.3,63.3S585.8,629,550.8,629L550.8,629z M550.8,629"/>
</g>
</svg>
