<?xml version="1.0" encoding="utf-8"?>
<!-- Generator: Adobe Illustrator 23.0.1, SVG Export Plug-In . SVG Version: 6.00 Build 0)  -->
<svg version="1.1" id="Capa_1" xmlns="http://www.w3.org/2000/svg" xmlns:xlink="http://www.w3.org/1999/xlink" x="0px" y="0px"
	 viewBox="0 0 800 800" style="enable-background:new 0 0 800 800;" xml:space="preserve">
<style type="text/css">
	.st0{fill:#FFFFFF;}
</style>
<g>
	<path class="st0" d="M149.4,727.3H74V80.4h318.9c-9.3,6.5-13.3,15-12.7,26.7c0.9,17.2,0,34.5,0.3,51.7c0.2,14.4,6.8,21.9,18.9,22.3
		c12.8,0.4,20.1-7.3,20.4-22.3c0.3-17.2-0.6-34.5,0.3-51.7c0.6-11.7-3.4-20.2-12.7-26.7h318.9v646.9h-75.4
		c10.2-6.9,17.1-14.6,12.3-28.5c-13.4-38.9-26.1-78-39.2-116.9c-3.6-10.8-11-16.3-22.8-15.9c-12.4,0.4-24.8,0.1-38.1,0.1
		c0-7.2,0-12.4,0-17.7c0-52.2,0.2-104.4-0.1-156.6c-0.1-12.4-0.4-25-2.8-37.2c-16.1-81.8-92-140.2-170.9-132.1
		c-89.9,9.2-151.8,75.9-151.9,163.6c-0.1,54.6,0,109.2,0,163.8c0,5.1-0.5,10.1-0.8,16.2c-12.4,0-23.4,0.5-34.4-0.1
		c-14.3-0.8-22.3,5.2-26.7,18.7c-12,36.8-24.2,73.6-37.2,110.1C132.9,709.2,136.2,719.6,149.4,727.3z M196.8,160.7
		c-6,5.3-14.3,9.2-16.1,15c-1.9,6.5-0.2,16.7,4.1,21.7c12.7,14.9,27.3,28.3,41.5,41.9c9.7,9.3,21.6,9.4,29.6,1.1
		c8.2-8.5,8-19.7-1.5-29.4c-13.4-13.8-27-27.3-41-40.4C209.5,166.8,204,164.8,196.8,160.7z M555.1,247.9c6.4-2.1,11.6-2.3,14.4-4.9
		c16.7-15.9,33.4-31.8,48.9-48.8c7-7.6,5.1-17.3-2.3-24.6c-7.9-7.8-17.9-9.2-26-1.8c-16.3,14.8-32.1,30.4-46.7,46.9
		c-3.7,4.2-4.2,13.9-2.1,19.5C543.2,239.8,550.4,243.6,555.1,247.9z M145.5,403C145.5,403.1,145.5,403.1,145.5,403
		c10.1,0.1,20.2,0.4,30.3,0c12.9-0.6,20.3-7.9,20-19.6c-0.3-11.9-6.9-18.9-18.8-19.2c-21.2-0.5-42.4-0.4-63.5,0
		c-12.2,0.3-18.8,8.2-18.7,19.4c0.1,11.2,6.8,18.8,19,19.2C124.3,403.3,134.9,403,145.5,403z M654.8,403.1
		C654.8,403.1,654.8,403.1,654.8,403.1c10.6-0.1,21.2,0.2,31.8-0.2c12.2-0.4,18.9-8.1,19-19.2c0.1-11.2-6.6-19.1-18.8-19.4
		c-21.2-0.4-42.4-0.5-63.5,0c-12,0.3-18.4,7.3-18.8,19.2c-0.3,11.6,7.1,19,20,19.6C634.5,403.5,644.7,403.1,654.8,403.1z"/>
	<path d="M149.4,727.3c-13.1-7.7-16.4-18.1-11.3-32.7c12.9-36.5,25.2-73.2,37.2-110.1c4.4-13.4,12.4-19.5,26.7-18.7
		c11,0.7,22,0.1,34.4,0.1c0.3-6.1,0.8-11.1,0.8-16.2c0.1-54.6,0-109.2,0-163.8c0.1-87.7,62-154.4,151.9-163.6
		c78.9-8.1,154.8,50.3,170.9,132.1c2.4,12.1,2.8,24.8,2.8,37.2c0.3,52.2,0.1,104.4,0.1,156.6c0,5.2,0,10.4,0,17.7
		c13.4,0,25.8,0.3,38.1-0.1c11.9-0.4,19.2,5.1,22.8,15.9c13.1,39,25.8,78.1,39.2,116.9c4.8,13.8-2.1,21.6-12.3,28.5H149.4z
		 M523,565.4c0-6.4,0-11.1,0-15.8c-0.2-57.9-0.2-115.8-0.7-173.7c-0.1-7.1-1.7-14.3-3.4-21.2c-15-59-72.8-99.6-130.7-92.3
		c-64.2,8.1-110.6,58.6-110.9,121.2c-0.3,56.5-0.1,112.9,0,169.4c0,4.1,0.6,8.2,0.9,12.4H523z M616.6,686.7
		c-8.1-23.9-16.3-45.8-22.7-68.3c-3-10.6-8.3-12.7-18.4-12.7c-71,0.4-142,0.2-213.1,0.2c-46.4,0-92.8-0.2-139.1,0.3
		c-4.8,0-12.7,2.4-13.9,5.7c-9.2,24.4-17,49.3-25.6,74.8H616.6z"/>
	<path d="M407.4,80.4c9.3,6.5,13.3,15,12.7,26.7c-0.9,17.2,0,34.5-0.3,51.7c-0.2,15-7.6,22.7-20.4,22.3
		c-12.1-0.4-18.7-7.9-18.9-22.3c-0.3-17.2,0.6-34.5-0.3-51.7c-0.6-11.7,3.4-20.2,12.7-26.7C397.7,80.4,402.5,80.4,407.4,80.4z"/>
	<path d="M195.8,162.9c10.7-2.2,13.7,3.9,17.7,7.6c14,13.1,27.6,26.7,41,40.4c9.5,9.8,9.7,20.9,1.5,29.4c-8,8.3-19.8,8.2-29.6-1.1
		c-14.2-13.6-28.8-27-41.5-41.9c-4.3-5.1-6-15.3-4.1-21.7C182.5,169.9,188.4,164.2,195.8,162.9z"/>
	<path d="M555.1,247.9c-4.6-4.3-11.8-8.1-13.9-13.8c-2.1-5.7-1.5-15.3,2.1-19.5c14.6-16.5,30.4-32,46.7-46.9c8.1-7.4,18.1-6,26,1.8
		c7.4,7.3,9.3,17,2.3,24.6c-15.5,17-32.2,32.9-48.9,48.8C566.7,245.7,561.5,245.9,555.1,247.9z"/>
	<path d="M145.5,403c-10.6,0-21.2,0.3-31.8-0.1c-12.2-0.4-18.9-8.1-19-19.2c-0.1-11.2,6.6-19.2,18.7-19.4c21.2-0.5,42.4-0.5,63.5,0
		c11.9,0.3,18.5,7.3,18.8,19.2c0.3,11.7-7.1,19-20,19.6C165.7,403.5,155.6,403.1,145.5,403C145.5,403.1,145.5,403.1,145.5,403z"/>
	<path d="M654.8,403.1c-10.1,0-20.2,0.3-30.3-0.1c-12.9-0.5-20.4-7.9-20-19.6c0.4-11.9,6.8-18.9,18.8-19.2c21.2-0.5,42.4-0.4,63.5,0
		c12.2,0.3,18.8,8.2,18.8,19.4c-0.1,11.2-6.8,18.8-19,19.2C676,403.3,665.4,403,654.8,403.1C654.8,403.1,654.8,403.1,654.8,403.1z"
		/>
	<path class="st0" d="M523,565.4H278.2c-0.3-4.2-0.9-8.3-0.9-12.4c-0.1-56.5-0.2-112.9,0-169.4c0.3-62.6,46.7-113.1,110.9-121.2
		c57.9-7.3,115.7,33.4,130.7,92.3c1.8,6.9,3.4,14.1,3.4,21.2c0.4,57.9,0.5,115.8,0.7,173.7C523,554.4,523,559.1,523,565.4z
		 M398.3,544.3V304c-37.9,0.6-73.8,25-76.3,60.7c-4,59.4-1.1,119.2-1.1,179.6H398.3z"/>
	<path class="st0" d="M616.6,686.7H183.8c8.5-25.6,16.4-50.5,25.6-74.8c1.2-3.2,9.1-5.6,13.9-5.7c46.4-0.4,92.8-0.3,139.1-0.3
		c71,0,142,0.2,213.1-0.2c10.1-0.1,15.3,2.1,18.4,12.7C600.3,640.9,608.5,662.8,616.6,686.7z"/>
	<path d="M398.3,544.3H321c0-60.4-2.9-120.3,1.1-179.6c2.4-35.7,38.3-60,76.3-60.7V544.3z"/>
</g>
</svg>
