<svg id="Capa_1" data-name="Capa 1" xmlns="http://www.w3.org/2000/svg" viewBox="0 0 800 800"><defs><style>.cls-1{fill:#353534;}.cls-2{fill:#00a033;}.cls-3{fill:#009133;}.cls-4{fill:#1d1d1b;}.cls-5{fill:#fff;}.cls-6{fill:#009733;}.cls-7{fill:#002733;}.cls-8{fill:#005933;}.cls-9{fill:#1d401b;}.cls-10,.cls-11{fill:none;stroke:#1d401b;stroke-linecap:round;stroke-linejoin:round;}.cls-10{stroke-width:0.75px;}.cls-11{stroke-width:0.69px;}</style></defs><title>Mesa de trabajo 2 copia</title><ellipse class="cls-1" cx="455.18" cy="717.02" rx="69.18" ry="16.21"/><path class="cls-1" d="M201.15,268.42S391.4,279.23,439,194.91c0,0,114.59,112.42,205.39,64.86,0,0,0,270.24-177.28,382.66C467.07,642.43,283.31,664.05,201.15,268.42Z"/><path class="cls-2" d="M442.86,232.75a73.31,73.31,0,0,1-8.52,11.66c22.75,133.14,89.57,286,22,368.22a65.46,65.46,0,0,0,11.15.11c155.26-95.46,155.26-324.92,155.26-324.92C543.21,328.2,442.86,232.75,442.86,232.75Z"/><path class="cls-3" d="M434.34,244.41c-52,58.87-199.75,50.75-199.75,50.75,60.55,282.69,184.08,314.49,221.73,317.47C523.91,530.43,457.09,377.55,434.34,244.41Z"/><path class="cls-4" d="M196.53,264.44a7.34,7.34,0,0,1,5.05-2.09l.87,0,1,.06,2,.1,4,.17,8,.23q8,.17,16,.11,16-.12,32.09-1.1a459.42,459.42,0,0,0,63.57-8.09c20.89-4.28,41.46-10.39,60.49-19.69,18.82-9.4,36.24-22.55,46.91-40.66h0l0,0a2.9,2.9,0,0,1,4-.92,4.87,4.87,0,0,1,.43.33,351.37,351.37,0,0,0,44.63,34.72,282.61,282.61,0,0,0,49.71,26.52c17.33,7,35.59,11.83,54,12.55a111.17,111.17,0,0,0,27.23-2.18,105.85,105.85,0,0,0,25.43-9.32h0l.39-.17a5.09,5.09,0,0,1,6.75,2.52,5.28,5.28,0,0,1,.46,2.25c-1,37.13-5.92,73.49-13.31,109.55a589.62,589.62,0,0,1-32,105.41c-14.18,33.93-32,66.5-54.6,95.68a334.56,334.56,0,0,1-37.24,40.78c-13.51,12.58-28.39,23.56-43.81,33.63a2.67,2.67,0,0,1-1.19.42h0c-10.93.81-21.21-.59-31.49-2.78a157.63,157.63,0,0,1-29.7-9.82c-19.16-8.32-36.64-20-52.51-33.43-31.66-27.08-56.4-61.13-76.71-97-20.52-35.93-36.07-74.37-49.39-113.34-3.27-9.78-6.61-19.53-9.4-29.45s-6-19.71-8.47-29.71l-3.91-14.94c-1.29-5-2.64-9.77-3.86-15.78C199.46,287.45,197.87,275.47,196.53,264.44Zm9.24,8c3.12,9,6,17,7.93,25.47.89,4,2.12,9.13,3.37,14.09l3.67,14.84c2.31,9.93,5.27,19.68,8,29.49s5.8,19.53,8.9,29.23c12.64,38.66,27.48,76.78,47.17,112.32,19.47,35.53,43.27,69.13,73.67,95.84,15.23,13.21,32,24.78,50.37,33a150.27,150.27,0,0,0,28.42,9.83c9.67,2.24,19.94,3.66,29.48,3.08h0l-1.19.42a318.27,318.27,0,0,0,42.59-33.42,329.06,329.06,0,0,0,36.07-40.37c21.81-28.85,39-61,52.61-94.56a581.64,581.64,0,0,0,30.4-104.2c6.9-35.5,11.34-71.84,11.94-107.72l7.59,4.6h0a116.34,116.34,0,0,1-28.29,9.71,120.6,120.6,0,0,1-29.65,1.78c-19.75-1.19-38.78-6.74-56.58-14.33a289.42,289.42,0,0,1-50.46-28.25A358.15,358.15,0,0,1,437,196.94l4.45-.63h0c-10.95,19.71-29.15,34.09-48.52,44.37-19.59,10.19-40.62,17-61.91,21.91a469.08,469.08,0,0,1-64.69,9.91q-16.29,1.41-32.65,1.94-8.17.27-16.36.3l-8.2,0-4.12-.08-2.06-.05-1,0h-.39s-.27,0,.24,0A5.21,5.21,0,0,0,205.77,272.4Z"/><path class="cls-5" d="M500.31,369.76c0,27.31-20.56,41.34-47.88,41.34s-51-14-51-41.34a49.46,49.46,0,1,1,98.91,0Z"/><circle class="cls-6" cx="450.85" cy="369.76" r="26.47"/><circle class="cls-7" cx="450.85" cy="369.76" r="9.45"/><circle class="cls-5" cx="453.8" cy="365.5" r="2.75"/><circle class="cls-5" cx="460.47" cy="358.82" r="3.78"/><path class="cls-8" d="M400.62,411.81s15.06-7.57,56-6,50.57,6,50.57,6Z"/><path class="cls-9" d="M372.33,492l7.46-13.38a5.54,5.54,0,0,1,7.54-2.15l.2.12,2,1.24h0a141.33,141.33,0,0,0,27.7,19.85,119.5,119.5,0,0,0,31.94,12.2,82.67,82.67,0,0,0,33.85.37c11.38-1.72,21.65-7.38,31.58-13.26l.31-.18a3,3,0,0,1,3.24,5.16c-10.18,6.78-21,13.43-33.4,16a91.74,91.74,0,0,1-37.33,1.44A130.15,130.15,0,0,1,412,507.78a152.47,152.47,0,0,1-31.48-20.37h0l9.75-.78-11,10.63a4.4,4.4,0,0,1-6.89-5.31Z"/><path class="cls-10" d="M466.8,550.28s11.35-.54,12.43-7"/><path class="cls-11" d="M412.76,300s31.61-31.21,70.12-4.46"/></svg>