<svg id="Capa_1" data-name="Capa 1" xmlns="http://www.w3.org/2000/svg" viewBox="0 0 800 800"><defs><style>.cls-1{fill:#353534;}.cls-2{fill:#00a033;}.cls-3{fill:#009133;}.cls-4{fill:#1d1d1b;}.cls-5{fill:#fff;}.cls-6{fill:#009733;}.cls-7{fill:#002733;}.cls-8{fill:#005933;}.cls-9{fill:#1d401b;}.cls-10,.cls-11{fill:none;stroke:#1d401b;stroke-linecap:round;stroke-linejoin:round;}.cls-10{stroke-width:0.75px;}.cls-11{stroke-width:0.69px;}</style></defs><title>Mesa de trabajo 2</title><ellipse class="cls-1" cx="455.18" cy="717.02" rx="69.18" ry="16.21"/><path class="cls-1" d="M201.15,268.42S391.4,279.23,439,194.91c0,0,114.59,112.42,205.39,64.86,0,0,0,270.24-177.28,382.66C467.07,642.43,283.31,664.05,201.15,268.42Z"/><path class="cls-2" d="M442.86,232.75a73.31,73.31,0,0,1-8.52,11.66c22.75,133.14,89.57,286,22,368.22a65.46,65.46,0,0,0,11.15.11c155.26-95.46,155.26-324.92,155.26-324.92C543.21,328.2,442.86,232.75,442.86,232.75Z"/><path class="cls-3" d="M434.34,244.41c-52,58.87-199.75,50.75-199.75,50.75,60.55,282.69,184.08,314.49,221.73,317.47C523.91,530.43,457.09,377.55,434.34,244.41Z"/><path class="cls-4" d="M196.53,264.44a7.34,7.34,0,0,1,5.05-2.09l.87,0,1,.06,2,.1,4,.17,8,.23q8,.17,16,.11,16-.12,32.09-1.1a459.42,459.42,0,0,0,63.57-8.09c20.89-4.28,41.46-10.39,60.49-19.69,18.82-9.4,36.24-22.55,46.91-40.66h0l0,0a2.9,2.9,0,0,1,4-.92,4.87,4.87,0,0,1,.43.33,351.37,351.37,0,0,0,44.63,34.72,282.61,282.61,0,0,0,49.71,26.52c17.33,7,35.59,11.83,54,12.55a111.17,111.17,0,0,0,27.23-2.18,105.85,105.85,0,0,0,25.43-9.32h0l.39-.17a5.09,5.09,0,0,1,6.75,2.52,5.28,5.28,0,0,1,.46,2.25c-1,37.13-5.92,73.49-13.31,109.55a589.62,589.62,0,0,1-32,105.41c-14.18,33.93-32,66.5-54.6,95.68a334.56,334.56,0,0,1-37.24,40.78c-13.51,12.58-28.39,23.56-43.81,33.63a2.67,2.67,0,0,1-1.19.42h0c-10.93.81-21.21-.59-31.49-2.78a157.63,157.63,0,0,1-29.7-9.82c-19.16-8.32-36.64-20-52.51-33.43-31.66-27.08-56.4-61.13-76.71-97-20.52-35.93-36.07-74.37-49.39-113.34-3.27-9.78-6.61-19.53-9.4-29.45s-6-19.71-8.47-29.71l-3.91-14.94c-1.29-5-2.64-9.77-3.86-15.78C199.46,287.45,197.87,275.47,196.53,264.44Zm9.24,8c3.12,9,6,17,7.93,25.47.89,4,2.12,9.13,3.37,14.09l3.67,14.84c2.31,9.93,5.27,19.68,8,29.49s5.8,19.53,8.9,29.23c12.64,38.66,27.48,76.78,47.17,112.32,19.47,35.53,43.27,69.13,73.67,95.84,15.23,13.21,32,24.78,50.37,33a150.27,150.27,0,0,0,28.42,9.83c9.67,2.24,19.94,3.66,29.48,3.08h0l-1.19.42a318.27,318.27,0,0,0,42.59-33.42,329.06,329.06,0,0,0,36.07-40.37c21.81-28.85,39-61,52.61-94.56a581.64,581.64,0,0,0,30.4-104.2c6.9-35.5,11.34-71.84,11.94-107.72l7.59,4.6h0a116.34,116.34,0,0,1-28.29,9.71,120.6,120.6,0,0,1-29.65,1.78c-19.75-1.19-38.78-6.74-56.58-14.33a289.42,289.42,0,0,1-50.46-28.25A358.15,358.15,0,0,1,437,196.94l4.45-.63h0c-10.95,19.71-29.15,34.09-48.52,44.37-19.59,10.19-40.62,17-61.91,21.91a469.08,469.08,0,0,1-64.69,9.91q-16.29,1.41-32.65,1.94-8.17.27-16.36.3l-8.2,0-4.12-.08-2.06-.05-1,0h-.39s-.27,0,.24,0A5.21,5.21,0,0,0,205.77,272.4Z"/><path class="cls-5" d="M500.31,369.76c0,27.31-20.56,41.34-47.88,41.34s-51-14-51-41.34a49.46,49.46,0,1,1,98.91,0Z"/><circle class="cls-6" cx="450.85" cy="369.76" r="26.47"/><circle class="cls-7" cx="450.85" cy="369.76" r="9.45"/><circle class="cls-5" cx="453.8" cy="365.5" r="2.75"/><circle class="cls-5" cx="460.47" cy="358.82" r="3.78"/><path class="cls-4" d="M233,185.47l-20.54,2a10.27,10.27,0,0,1-11.13-11.95l2.12-12.46a12.28,12.28,0,0,1,.47-1.78l7.59-20.87a10.29,10.29,0,0,1-2.12-8.08l2.45-14.94a10.29,10.29,0,0,1,9.13-8.56L239.75,107a10.26,10.26,0,0,1,11.14,11.88l-2.44,14.93a10.26,10.26,0,0,1-4.93,7.19l.88,21.36a11,11,0,0,1-.14,2.14L242.14,177A10.27,10.27,0,0,1,233,185.47Z"/><path class="cls-4" d="M272.44,182.82a47.56,47.56,0,0,1-13.32-.56,37.22,37.22,0,0,1-13-5,32.66,32.66,0,0,1-10.31-10.41,35.77,35.77,0,0,1-5.05-15.71,43.43,43.43,0,0,1,1.78-17.47A42.46,42.46,0,0,1,241,118.55a45.71,45.71,0,0,1,14.21-10.89,52.49,52.49,0,0,1,28.76-5.16,50.22,50.22,0,0,1,8.77,1.82,39.05,39.05,0,0,1,7.84,3.36,29.42,29.42,0,0,1,6.36,4.77,10.28,10.28,0,0,1,.74,13.65l-1.9,2.37a10.22,10.22,0,0,1,2.23,8.37l-5.25,29.6a10.22,10.22,0,0,1-4,6.48,54.46,54.46,0,0,1-26.27,9.9Z"/><path class="cls-4" d="M353.6,173.61l-20.38,2a10.24,10.24,0,0,1-8-2.72,10.28,10.28,0,0,1-7.35,4.23L298.93,179a10.29,10.29,0,0,1-11.14-11.9L297.42,109a10.28,10.28,0,0,1,9.13-8.54l22.08-2.17a52.76,52.76,0,0,1,16.23.52,29.47,29.47,0,0,1,12.74,5.76,24.45,24.45,0,0,1,6.75,8.7,29.77,29.77,0,0,1,2.57,9.61,32.83,32.83,0,0,1-.39,9.36,28.89,28.89,0,0,1-3.48,9.2,29.92,29.92,0,0,1-6.52,7.6l5.11,9.51a10.28,10.28,0,0,1-8,15.08Zm-40.73-32.19-.23,1.35c.22-.21.46-.4.7-.59A8.65,8.65,0,0,1,312.87,141.42Z"/><path class="cls-4" d="M418.61,167.21l-20.14,2a10.27,10.27,0,0,1-10.62-6.63l-5.35.53-1.63,3.13a10.26,10.26,0,0,1-8.11,5.5l-20.62,2a10.27,10.27,0,0,1-10-15.18l33.53-60.86a10.27,10.27,0,0,1,8-5.27l18.77-1.84a10.26,10.26,0,0,1,11,7.7l14.18,56.17a10.27,10.27,0,0,1-8.95,12.74Zm-16.44-23.76a10.31,10.31,0,0,1,1.95,2.06l-1-4A10.89,10.89,0,0,1,402.17,143.45ZM390,114.28a10.46,10.46,0,0,1,1.85.08,10.15,10.15,0,0,1,4.94,2.06l-1.14-4.52-4.58.45Z"/><path class="cls-4" d="M452.62,165.08a43.29,43.29,0,0,1-14.54-.9,34.8,34.8,0,0,1-12.67-5.92,33.15,33.15,0,0,1-9.07-10.48,35.89,35.89,0,0,1-4.24-14.09A45,45,0,0,1,413.43,118a43.84,43.84,0,0,1,7.38-15.27,45.45,45.45,0,0,1,13.6-12,48.13,48.13,0,0,1,19.85-6.08,39.31,39.31,0,0,1,11.6.49A33.91,33.91,0,0,1,476.12,89a30,30,0,0,1,8.39,7.18,31.57,31.57,0,0,1,5.29,9.59,10.27,10.27,0,0,1-4.7,12.33l-12.73,7.1,9.53,6.11a10.28,10.28,0,0,1,3.17,14.08,43.49,43.49,0,0,1-12.7,13.11A42.44,42.44,0,0,1,452.62,165.08Zm2-42.59a1.42,1.42,0,0,1-.22.15,4.21,4.21,0,0,0-1.17,1.13,6.12,6.12,0,0,0-.86,2,7.72,7.72,0,0,0-.19,1,6.35,6.35,0,0,0,1.53-1.67,10.17,10.17,0,0,1,1.42-1.69C455,123.14,454.77,122.82,454.62,122.49Z"/><path class="cls-4" d="M497.86,159.4l-18.92,1.87a10.29,10.29,0,0,1-11.14-11.9l9.63-58.11a10.29,10.29,0,0,1,9.13-8.54l18.92-1.86a10.26,10.26,0,0,1,11.14,11.9L507,150.86A10.27,10.27,0,0,1,497.86,159.4Z"/><path class="cls-4" d="M566.2,152.68l-20.14,2A10.29,10.29,0,0,1,535.43,148l-5.35.53-1.62,3.13a10.26,10.26,0,0,1-8.11,5.5l-20.63,2a10.27,10.27,0,0,1-10-15.17l33.53-60.87a10.28,10.28,0,0,1,8-5.26L550,76.07a10.28,10.28,0,0,1,11,7.7l14.18,56.17a10.27,10.27,0,0,1-8.95,12.74Zm-16.45-23.76a10.36,10.36,0,0,1,2,2.06l-1-4A9.47,9.47,0,0,1,549.75,128.92ZM537.57,99.76a9.59,9.59,0,0,1,1.85.08,10.27,10.27,0,0,1,4.94,2l-1.14-4.51-4.59.45Z"/><path class="cls-4" d="M595.5,150.94a52.94,52.94,0,0,1-19.68-1.6,50.18,50.18,0,0,1-16.35-7.9,10.27,10.27,0,0,1-2.36-14l8.28-12.12c-.35-.55-.68-1.11-1-1.68a24.66,24.66,0,0,1-2.59-9.11,27.17,27.17,0,0,1,1.71-12.61,29.13,29.13,0,0,1,6.9-10.4A36.1,36.1,0,0,1,581,74.41c9-4,21.25-4.78,31.32-2.35a44.26,44.26,0,0,1,15.23,6.72A10.27,10.27,0,0,1,630.12,93l-7.26,10.63a23.23,23.23,0,0,1,2.56,3.65,24.24,24.24,0,0,1,2.93,9.64,28.74,28.74,0,0,1-8.25,23.33,35.14,35.14,0,0,1-10.76,7.24A45,45,0,0,1,595.5,150.94Zm1.15-59.54h0Z"/><path class="cls-4" d="M639.63,145.45l-18.77,1.85a10.28,10.28,0,0,1-11.14-11.89l2.45-14.93a10.29,10.29,0,0,1,4.92-7.19l-.88-21.35a11.05,11.05,0,0,1,.14-2.15l2.12-12.45a10.28,10.28,0,0,1,9.12-8.5l20.54-2a10.27,10.27,0,0,1,11.13,11.94l-2.12,12.46a9.71,9.71,0,0,1-.47,1.78l-7.58,20.87A10.25,10.25,0,0,1,651.2,122l-2.45,14.94A10.27,10.27,0,0,1,639.63,145.45Z"/><path class="cls-5" d="M232.64,177.42l-20.54,2a3.85,3.85,0,0,1-4.17-4.48l2.12-12.46a5.06,5.06,0,0,1,.17-.67l9.33-25.63A3.91,3.91,0,0,1,217,135a3.83,3.83,0,0,1-1-3.26l2.45-14.94a3.84,3.84,0,0,1,3.42-3.21l18.76-1.84a3.82,3.82,0,0,1,3.18,1.19,3.88,3.88,0,0,1,1,3.26l-2.45,14.94a3.85,3.85,0,0,1-3.42,3.21l-1.79.17L238.23,161l-2.17,13.26A3.85,3.85,0,0,1,232.64,177.42Zm-16.27-6.14L229,170l1.63-9.56-1-22.12-2.75.27-9.27,25.51Zm8-43.25L235.24,127l1.16-7.07L225.57,121Z"/><path class="cls-5" d="M272.06,174.76a40.89,40.89,0,0,1-11.53-.49,30.68,30.68,0,0,1-10.76-4.12,26.51,26.51,0,0,1-8.29-8.4,29.49,29.49,0,0,1-4.09-12.92,37.18,37.18,0,0,1,1.5-14.9,36.15,36.15,0,0,1,7.18-12.85,39.45,39.45,0,0,1,12.24-9.36,46.2,46.2,0,0,1,25.13-4.52,44,44,0,0,1,7.63,1.59,32.18,32.18,0,0,1,6.54,2.79,23.08,23.08,0,0,1,5,3.73,3.84,3.84,0,0,1,.28,5.12l-7.46,9.35,2.32-.23a3.84,3.84,0,0,1,4.17,4.5l-5.25,29.6a3.85,3.85,0,0,1-1.51,2.43,47.93,47.93,0,0,1-23.09,8.68Zm3.57-60a39.55,39.55,0,0,0-13.86,3.8,31.73,31.73,0,0,0-9.87,7.52,28.31,28.31,0,0,0-5.66,10.13,29.24,29.24,0,0,0-1.18,11.83,21.83,21.83,0,0,0,2.94,9.57,18.39,18.39,0,0,0,5.86,6,22.92,22.92,0,0,0,8.07,3.08,36.85,36.85,0,0,0,20-2.17,40.71,40.71,0,0,0,7.41-3.8l4.08-23-19.21,1.89-.69,4.5,4.37-.43a3.85,3.85,0,0,1,4.15,4.59l-1.27,6.25a3.82,3.82,0,0,1-1.88,2.59,17.91,17.91,0,0,1-11.81,1.56,13.44,13.44,0,0,1-9-6.52,14.77,14.77,0,0,1-1.84-6.07,21.6,21.6,0,0,1,.66-7.95,19.19,19.19,0,0,1,3.55-7,19.64,19.64,0,0,1,6.25-5.05,23.72,23.72,0,0,1,21.62.13l6.05-7.57-.66-.4a25,25,0,0,0-5-2.12,35.8,35.8,0,0,0-6.27-1.29A32.41,32.41,0,0,0,275.63,114.8Zm-8.54,20.53c-.2.21-.39.42-.57.65a11.28,11.28,0,0,0-2.13,4.2,14.18,14.18,0,0,0-.42,5.14,7.31,7.31,0,0,0,.84,3c.11.19.22.36.34.53a4,4,0,0,1,0-1l1.88-12.35Zm5.43-3.3,6.82-.67A17.36,17.36,0,0,0,272.52,132Z"/><path class="cls-5" d="M353.22,165.55l-20.38,2a3.84,3.84,0,0,1-3.81-2.08L323,153.52l-2.07,12.35a3.84,3.84,0,0,1-3.42,3.2l-18.92,1.86a3.86,3.86,0,0,1-4.18-4.46L304,108.36a3.85,3.85,0,0,1,3.43-3.2L329.51,103a46.77,46.77,0,0,1,14.27.41,23.06,23.06,0,0,1,10,4.45,18.08,18.08,0,0,1,5,6.41,23.46,23.46,0,0,1,2,7.56,26.24,26.24,0,0,1-.31,7.53,22.06,22.06,0,0,1-2.7,7.14,23.68,23.68,0,0,1-5.3,6.1,28.62,28.62,0,0,1-4,2.76l7.8,14.55a3.84,3.84,0,0,1-3,5.65Zm-18.52-5.92,12-1.18-7-13a3.86,3.86,0,0,1,1.9-5.38,23.22,23.22,0,0,0,5.9-3.43,16,16,0,0,0,3.59-4.09,14.65,14.65,0,0,0,1.77-4.65,19,19,0,0,0,.21-5.35,15.87,15.87,0,0,0-1.35-5.08,10.32,10.32,0,0,0-2.87-3.69,15.74,15.74,0,0,0-6.72-2.87,40.28,40.28,0,0,0-11.92-.28l-19.14,1.89-8.33,50.23,11-1.08L316.08,148a3.83,3.83,0,0,1,3.41-3.2l4.7-.46a3.85,3.85,0,0,1,3.81,2.09Zm-5.35-21.7-6.87.68a3.87,3.87,0,0,1-4.18-4.47l1.91-11.37a3.83,3.83,0,0,1,3.42-3.2l6.71-.66c3.73-.37,6.53.26,8.56,1.92a7.93,7.93,0,0,1,2.89,5.47,9.4,9.4,0,0,1-3.14,8C336.5,136.33,333.46,137.52,329.35,137.93Zm-2.62-7.48,1.87-.19c2.85-.28,4.14-1,4.72-1.55.89-.85.84-1.37.81-1.65s-.77-.71-3-.49l-3.77.37Z"/><path class="cls-5" d="M418.23,159.15l-20.14,2a3.85,3.85,0,0,1-4.13-3L393,154l-14.36,1.41-3.23,6.23a3.84,3.84,0,0,1-3,2.06l-20.62,2A3.84,3.84,0,0,1,348,160l33.53-60.87a3.88,3.88,0,0,1,3-2l18.77-1.84a3.83,3.83,0,0,1,4.1,2.89l14.19,56.16a3.85,3.85,0,0,1-3.36,4.78Zm-17.52-6L413,151.92,400.75,103.3l-13.45,1.33-29,52.68,11.27-1.11,3.22-6.23a3.88,3.88,0,0,1,3-2.06L395.62,146a3.85,3.85,0,0,1,4.14,3ZM394,140.3l-10.35,1a3.85,3.85,0,0,1-3.8-5.58l7.45-14.62a3.9,3.9,0,0,1,3.94-2.07,3.85,3.85,0,0,1,3.26,3l2.89,13.6A3.85,3.85,0,0,1,394,140.3Z"/><path class="cls-5" d="M452.24,157a36.77,36.77,0,0,1-12.38-.75,28.33,28.33,0,0,1-10.35-4.81A26.83,26.83,0,0,1,422.2,143a29.64,29.64,0,0,1-3.46-11.61,38.29,38.29,0,0,1,1.16-13.45,37.34,37.34,0,0,1,6.3-13,39.14,39.14,0,0,1,11.7-10.27,41.93,41.93,0,0,1,17.24-5.23,32.63,32.63,0,0,1,9.7.4,27.39,27.39,0,0,1,8.32,3.07,23.75,23.75,0,0,1,6.6,5.65,25.1,25.1,0,0,1,4.23,7.66,3.86,3.86,0,0,1-1.76,4.62l-16.18,9a3.79,3.79,0,0,1-3.22.24,3.85,3.85,0,0,1-2.28-2.29,5.17,5.17,0,0,0-2.07-2.85c-2-1.19-5.19-.72-7.32.66a10.23,10.23,0,0,0-3,2.89,12.56,12.56,0,0,0-1.79,4,12.8,12.8,0,0,0-.35,4.48c.2,2.07.81,3.49,1.84,4.32,2.15,1.74,5.53,1.22,7.77-.38a15.16,15.16,0,0,0,3.63-3.88,3.85,3.85,0,0,1,5.27-1.09L478.68,135a3.84,3.84,0,0,1,1.19,5.28A36.88,36.88,0,0,1,469,151.48,36.12,36.12,0,0,1,452.24,157Zm3.65-60a34.35,34.35,0,0,0-14.09,4.21,31.49,31.49,0,0,0-9.42,8.23,29.7,29.7,0,0,0-5,10.37,30.93,30.93,0,0,0-1,10.76,22.05,22.05,0,0,0,2.53,8.62,18.84,18.84,0,0,0,5.22,6.06,20.57,20.57,0,0,0,7.55,3.48,29,29,0,0,0,9.79.57,28.55,28.55,0,0,0,13.26-4.27,30,30,0,0,0,6.37-5.77l-7.78-5a20.4,20.4,0,0,1-3.2,2.87c-5,3.55-12.25,4-17.09.1-2.68-2.17-4.25-5.38-4.66-9.56a20.72,20.72,0,0,1,3.43-13.59,18.28,18.28,0,0,1,5.15-5c4.51-2.92,10.85-3.5,15.4-.84a11.39,11.39,0,0,1,3.31,2.93l9.73-5.42a17,17,0,0,0-1.64-2.43,15.88,15.88,0,0,0-4.46-3.82,19.85,19.85,0,0,0-6-2.2A25.46,25.46,0,0,0,455.89,97.06Z"/><path class="cls-5" d="M497.48,151.35l-18.92,1.86a3.85,3.85,0,0,1-4.18-4.46L484,90.64a3.86,3.86,0,0,1,3.43-3.2l18.92-1.86A3.85,3.85,0,0,1,510.54,90l-9.63,58.1A3.87,3.87,0,0,1,497.48,151.35Zm-14.67-6.3,11-1.08,8.32-50.23-11,1.08Z"/><path class="cls-5" d="M565.82,144.62l-20.14,2a3.84,3.84,0,0,1-4.13-3l-1-4.2-14.35,1.41L523,147.07a3.82,3.82,0,0,1-3,2.06l-20.63,2a3.85,3.85,0,0,1-3.75-5.69l33.53-60.86a3.9,3.9,0,0,1,3-2l18.76-1.84A3.84,3.84,0,0,1,555,83.68l14.19,56.17a3.86,3.86,0,0,1-3.36,4.77Zm-17.52-6,12.32-1.22L548.34,88.78,534.89,90.1l-29,52.68,11.26-1.11,3.23-6.22a3.85,3.85,0,0,1,3-2.07l19.81-1.95a3.85,3.85,0,0,1,4.13,3Zm-6.71-12.84-10.35,1a3.85,3.85,0,0,1-3.81-5.58l7.46-14.61a3.85,3.85,0,0,1,7.2,1L545,121.14a3.84,3.84,0,0,1-3.39,4.63Z"/><path class="cls-5" d="M595.13,142.88a46.67,46.67,0,0,1-17.32-1.38,43.88,43.88,0,0,1-14.27-6.88,3.85,3.85,0,0,1-.88-5.27l9.56-14a3.82,3.82,0,0,1,2.08-1.52,16.08,16.08,0,0,1-3.94-4.86,18.26,18.26,0,0,1-1.89-6.78,20.82,20.82,0,0,1,1.3-9.66,23,23,0,0,1,5.41-8.14,29.75,29.75,0,0,1,8.71-5.79c7.72-3.47,18.47-4.07,27.18-2a37.74,37.74,0,0,1,13,5.73,3.84,3.84,0,0,1,1,5.32l-9.56,14a3.73,3.73,0,0,1-1.1,1.07c.36.25.72.5,1.06.76a17.05,17.05,0,0,1,4.61,5.23,18,18,0,0,1,2.14,7.11,22.76,22.76,0,0,1-1.16,9.84,22.38,22.38,0,0,1-5.27,8.34,28.56,28.56,0,0,1-8.8,5.89A38.42,38.42,0,0,1,595.13,142.88Zm-23.91-12.42a38.4,38.4,0,0,0,8.69,3.63c7.55,2.13,17.45,1.68,24-1.21a21,21,0,0,0,6.45-4.27,14.49,14.49,0,0,0,3.48-5.49,14.65,14.65,0,0,0,.75-6.52,10.27,10.27,0,0,0-1.17-4.07,9.3,9.3,0,0,0-2.55-2.88,17.65,17.65,0,0,0-4.37-2.34,64.78,64.78,0,0,0-6.45-2.07c-2-.5-3.64-.94-4.89-1.29a31.81,31.81,0,0,1-3.22-1,7,7,0,0,1-2.87-1.82,5.79,5.79,0,0,1,1.46-8.8c3.55-2.09,9.8-1.86,15.06-.18a40.93,40.93,0,0,1,5.6,2.28l5.26-7.71a33.18,33.18,0,0,0-7.15-2.58c-7.07-1.72-16.07-1.24-22.21,1.5a22,22,0,0,0-6.47,4.27A15.31,15.31,0,0,0,577,95.31a13.11,13.11,0,0,0-.82,6.13,10.81,10.81,0,0,0,1,4,8.1,8.1,0,0,0,2.24,2.67,15.65,15.65,0,0,0,4.14,2.31,57.21,57.21,0,0,0,6.72,2.13c2.19.57,3.94,1,5.27,1.46s2.57.83,3.34,1.15a6.65,6.65,0,0,1,3.05,2.32,6.31,6.31,0,0,1,1,2.93,5.93,5.93,0,0,1-2.55,5.49c-3.6,2.54-9.92,2.18-15.81.47a36.49,36.49,0,0,1-8.14-3.55Z"/><path class="cls-5" d="M639.25,137.39l-18.77,1.85a3.85,3.85,0,0,1-4.17-4.46l2.45-14.93a3.83,3.83,0,0,1,3.42-3.21l1.78-.18L622.88,90a3.68,3.68,0,0,1,0-.81l2.12-12.45a3.85,3.85,0,0,1,3.42-3.19l20.54-2A3.85,3.85,0,0,1,653.19,76l-2.13,12.46-9.5,26.3a3.85,3.85,0,0,1,3.56,4.47l-2.45,14.93A3.86,3.86,0,0,1,639.25,137.39Zm-14.53-6.31L635.55,130l1.16-7.07L625.88,124Zm6.79-18.47,2.75-.27,9.38-25.83,1.13-6.82-12.62,1.25-1.56,9.15Z"/><polygon class="cls-2" points="240.82 115.98 222.06 117.82 219.61 132.76 238.37 130.91 240.82 115.98"/><path class="cls-3" d="M213.66,163.56,211.54,176l20.54-2,2.12-12.45-.54-13.26q-7.8,1.33-15.53,3Z"/><path class="cls-2" d="M223.88,135.45l-5.75,15.8q7.73-1.63,15.53-3l-.57-13.74Z"/><path class="cls-2" d="M260.49,139.55a15.53,15.53,0,0,1,2.84-5.58,15.77,15.77,0,0,1,5-4.05,19.12,19.12,0,0,1,7.11-2,18.83,18.83,0,0,1,7.37.7,19.15,19.15,0,0,1,6.23,3.1l10.61-13.29a20,20,0,0,0-4.18-3.1,28.29,28.29,0,0,0-5.76-2.46,39.33,39.33,0,0,0-6.95-1.43,35.61,35.61,0,0,0-7.73-.06,42.91,42.91,0,0,0-15.22,4.19A35.37,35.37,0,0,0,248.8,124a32.12,32.12,0,0,0-6.42,11.49A32.66,32.66,0,0,0,241,147.1q9.39-1.46,18.9-2.56A17.66,17.66,0,0,1,260.49,139.55Z"/><path class="cls-3" d="M268.8,148.82l9.3-.91-1.27,6.24a12.18,12.18,0,0,1-4.84,1.38,14.15,14.15,0,0,1-4.27-.23,9.6,9.6,0,0,1-6.42-4.68A11.08,11.08,0,0,1,260,146.1c-.05-.53,0-1,0-1.56q-9.49,1.1-18.9,2.56c0,.59-.06,1.16,0,1.76a25.57,25.57,0,0,0,3.51,11.25,22.39,22.39,0,0,0,7.08,7.18,26.3,26.3,0,0,0,9.42,3.6,37,37,0,0,0,10.45.45,44.28,44.28,0,0,0,21.19-8l3.9-22q-13.56.79-27,2.11Z"/><path class="cls-3" d="M270.68,136.47l-1.06,7q13.41-1.34,27-2.11l1.34-7.56Z"/><path class="cls-3" d="M298,167.51l18.92-1.87,2.78-16.6,4.69-.46,7.9,15.55,20.38-2L343,144.05a27,27,0,0,0,6.87-4c.13-.11.19-.26.32-.37-16,.16-31.95.55-47.77,1.36Z"/><path class="cls-2" d="M356.5,129.05a22.65,22.65,0,0,0,.27-6.44,19.81,19.81,0,0,0-1.69-6.33,14.18,14.18,0,0,0-3.92-5,19.33,19.33,0,0,0-8.36-3.67,43.73,43.73,0,0,0-13.1-.34l-22.08,2.17L302.38,141c15.82-.81,31.76-1.2,47.77-1.36a19.5,19.5,0,0,0,4.12-4.72A18.1,18.1,0,0,0,356.5,129.05Zm-20.7,2.85c-1.49,1.43-3.83,2.29-7,2.6l-6.88.68,1.91-11.37,6.71-.66c2.64-.26,4.55.09,5.74,1.07a4.05,4.05,0,0,1,1.5,2.87A5.67,5.67,0,0,1,335.8,131.9Z"/><path class="cls-3" d="M363.7,139.57l-12.51,22.7,20.63-2,4.18-8.09,19.81-2,1.72,7.51,20.14-2-4.07-16.13C397,139.6,380.31,139.51,363.7,139.57Z"/><path class="cls-2" d="M413.6,139.59l-10.11-40-18.77,1.84-21,38.17C380.31,139.51,397,139.6,413.6,139.59Zm-23.05-16.31,2.89,13.6-10.35,1Z"/><path class="cls-2" d="M462.3,129.61a18.83,18.83,0,0,1-4.58,4.86,11.89,11.89,0,0,1-5.84,2.13,8.76,8.76,0,0,1-6.6-1.88q-2.79-2.26-3.25-7a16.75,16.75,0,0,1,.45-5.8,16.56,16.56,0,0,1,2.34-5.26,14.29,14.29,0,0,1,4.06-3.95,12.32,12.32,0,0,1,5.61-1.89,9.25,9.25,0,0,1,5.75,1.14,8.86,8.86,0,0,1,3.74,4.86l16.18-9a21.48,21.48,0,0,0-3.58-6.51,19.84,19.84,0,0,0-5.52-4.72A23.6,23.6,0,0,0,463.89,94a28.68,28.68,0,0,0-8.56-.34,37.94,37.94,0,0,0-15.66,4.72,35.09,35.09,0,0,0-10.57,9.25,33.4,33.4,0,0,0-5.66,11.7,34.51,34.51,0,0,0-1.06,12.11,26.63,26.63,0,0,0,2.17,8.13c17.27-.07,34.5-.33,51.61-1Z"/><path class="cls-3" d="M424.55,139.55c.29.66.49,1.37.83,2a22.87,22.87,0,0,0,6.27,7.27,24.43,24.43,0,0,0,8.94,4.14,33,33,0,0,0,11.09.66,32.18,32.18,0,0,0,15-4.91,33,33,0,0,0,9.71-10l-.26-.17C459.05,139.22,441.82,139.48,424.55,139.55Z"/><path class="cls-2" d="M506.55,89.82l-18.92,1.86-7.74,46.69c6.28-.29,12.55-.67,18.8-1.1Z"/><path class="cls-3" d="M479.89,138.37,478,149.79l18.92-1.87,1.77-10.65C492.44,137.7,486.17,138.08,479.89,138.37Z"/><path class="cls-3" d="M504.81,136.79l-6,11,20.62-2,4.19-8.09,19.81-2,1.72,7.51,20.14-2-3-11.89A522.66,522.66,0,0,1,504.81,136.79Z"/><path class="cls-2" d="M551.07,85l-18.76,1.85-27.5,49.91a522.66,522.66,0,0,0,57.45-7.48Zm-20.39,38.34,7.46-14.62,2.89,13.6Z"/><path class="cls-3" d="M585.51,123a35.6,35.6,0,0,1-10.3-5.1l-6.92,10.13c6.56-1.36,13.08-2.86,19.55-4.56C587.06,123.34,586.31,123.27,585.51,123Z"/><path class="cls-2" d="M616.54,111A13.15,13.15,0,0,0,613,107a21.25,21.25,0,0,0-5.31-2.87,69.7,69.7,0,0,0-6.82-2.19c-2-.51-3.63-.93-4.86-1.28s-2.19-.64-2.87-.9a3.64,3.64,0,0,1-1.39-.8,1.81,1.81,0,0,1-.42-1.06,1.78,1.78,0,0,1,1-1.85,7.25,7.25,0,0,1,2.94-.82,22,22,0,0,1,9,1,33.29,33.29,0,0,1,7.95,3.71l9.56-14A33.84,33.84,0,0,0,610,80.78a42.89,42.89,0,0,0-14.33-.87,33,33,0,0,0-10.36,2.61,25.88,25.88,0,0,0-7.59,5,19.1,19.1,0,0,0-4.51,6.78,16.88,16.88,0,0,0-1.07,7.89,14.65,14.65,0,0,0,1.47,5.37,12.11,12.11,0,0,0,3.24,3.89,19.61,19.61,0,0,0,5.14,2.88,61.19,61.19,0,0,0,7.17,2.28q3.18.83,5.12,1.41a30.71,30.71,0,0,1,3,1,3.13,3.13,0,0,1,1.36.93,2.72,2.72,0,0,1,.15.43c6.3-1.88,12.57-3.92,18.77-6.18A13.2,13.2,0,0,0,616.54,111Z"/><path class="cls-3" d="M598.72,120.43a2.38,2.38,0,0,1,.24.71,2,2,0,0,1-1,2,6,6,0,0,1-2.92.94,24.15,24.15,0,0,1-7.25-.55c-6.47,1.7-13,3.2-19.55,4.56l-2.64,3.87a39.71,39.71,0,0,0,13,6.27,42.59,42.59,0,0,0,15.88,1.26,34.56,34.56,0,0,0,10.68-2.65,24.51,24.51,0,0,0,7.63-5.08,18.36,18.36,0,0,0,4.37-6.92,18.71,18.71,0,0,0,1-8.18,13.45,13.45,0,0,0-.71-2.38C611.29,116.51,605,118.55,598.72,120.43Z"/><path class="cls-3" d="M636.87,116.35l4.3-11.85q-6.85,3.16-13.8,6l.28,6.8Z"/><path class="cls-2" d="M647.08,88.23l2.12-12.45-20.54,2-2.12,12.46.83,20.19q6.95-2.79,13.8-6Z"/><polygon class="cls-3" points="619.92 135.82 638.68 133.97 641.13 119.03 622.37 120.88 619.92 135.82"/><path class="cls-8" d="M400.62,411.81s15.06-7.57,56-6,50.57,6,50.57,6Z"/><path class="cls-9" d="M372.33,492l7.46-13.38a5.54,5.54,0,0,1,7.54-2.15l.2.12,2,1.24h0a141.33,141.33,0,0,0,27.7,19.85,119.5,119.5,0,0,0,31.94,12.2,82.67,82.67,0,0,0,33.85.37c11.38-1.72,21.65-7.38,31.58-13.26l.31-.18a3,3,0,0,1,3.24,5.16c-10.18,6.78-21,13.43-33.4,16a91.74,91.74,0,0,1-37.33,1.44A130.15,130.15,0,0,1,412,507.78a152.47,152.47,0,0,1-31.48-20.37h0l9.75-.78-11,10.63a4.4,4.4,0,0,1-6.89-5.31Z"/><path class="cls-10" d="M466.8,550.28s11.35-.54,12.43-7"/><path class="cls-11" d="M412.76,300s31.61-31.21,70.12-4.46"/></svg>