<svg id="Capa_1" data-name="Capa 1" xmlns="http://www.w3.org/2000/svg" viewBox="0 0 800 800"><defs><style>.cls-1{fill:#353534;}.cls-2{fill:#bc0709;}.cls-3{fill:#980709;}.cls-4{fill:#1d1d1b;}.cls-5{fill:none;stroke:#1d1d1b;stroke-linecap:round;stroke-linejoin:round;stroke-width:2px;}.cls-6{fill:#590709;}.cls-7{fill:#810709;}.cls-8{fill:#fff;}</style></defs><title>Mesa de trabajo 3</title><ellipse class="cls-1" cx="444.06" cy="735.8" rx="76.09" ry="17.83"/><path class="cls-1" d="M119,382.78s194.6-77.81,202.74-184c0,0,166.51,58.67,234.84-31,0,0,125.82,269.27,1.52,463.83C558.07,631.65,385,738.75,119,382.78Z"/><path class="cls-2" d="M343.21,234.7a81,81,0,0,1-3.06,15.59C424.81,372.36,562.56,493.59,533.48,607a71.21,71.21,0,0,0,11.17-5.09c110.25-167.4,3.42-396,3.42-396C487.64,283.1,343.21,234.7,343.21,234.7Z"/><path class="cls-3" d="M340.15,250.29c-24.4,82.86-175.41,143.57-175.41,143.57C356.68,647.35,494.58,621.51,533.48,607,562.56,493.59,424.81,372.36,340.15,250.29Z"/><path class="cls-4" d="M112.51,381a8.1,8.1,0,0,1,4.07-4.43l.88-.36,1-.4,2-.83,4-1.68,8.08-3.5q8.07-3.56,16-7.36,15.93-7.59,31.46-16a506.31,506.31,0,0,0,59.58-37.66c18.82-14,36.47-29.65,51.1-47.78,14.38-18.13,25.61-39.34,27.81-62.35h0v-.05a3.19,3.19,0,0,1,3.55-2.78,3,3,0,0,1,.59.13,388,388,0,0,0,60.64,13.82A310.86,310.86,0,0,0,445.26,213c20.52-1.11,41-4.77,59.62-12.62A121.9,121.9,0,0,0,531,185.5a116.36,116.36,0,0,0,21-21.13h0l.31-.36a5.61,5.61,0,0,1,7.9-.63,5.54,5.54,0,0,1,1.5,2c16.28,37.47,28.32,76,37.75,115.35a648.49,648.49,0,0,1,17.2,119.93c1.66,40.41-1,81.18-9.86,120.76-4.25,19.83-10.67,39.14-18.12,58-7.6,18.82-17.32,36.69-28,53.91a3,3,0,0,1-1,1h0c-10.52,5.9-21.41,9.28-32.67,11.89a173.5,173.5,0,0,1-34.17,4c-23,.63-45.84-2.91-67.88-8.87-44.16-12.24-84.67-34.64-121.61-61-37.18-26.25-70.57-57.31-102-89.94-7.81-8.22-15.68-16.39-23.08-25S163.15,448.64,156,439.83l-10.85-13.07c-3.6-4.35-7.18-8.5-11.19-13.93C126.15,402.53,119,391.33,112.51,381Zm12.92,3.64c7.28,7.48,13.86,14.13,19.76,21.68,2.75,3.59,6.36,8.12,9.91,12.47l10.57,13.08c6.92,8.82,14.41,17.15,21.69,25.67s14.87,16.75,22.47,25c30.6,32.64,63.14,63.71,99.3,90,35.94,26.33,75.3,48.74,118,61.2,21.33,6.06,43.43,9.78,65.57,9.46a165.9,165.9,0,0,0,32.9-3.44c10.68-2.28,21.57-5.64,30.8-10.66h0l-1,1c10.29-17,19.63-34.6,26.88-53.12,7.09-18.55,13.19-37.53,17.14-57,8.31-38.91,10.46-79,8.4-118.72a639.17,639.17,0,0,0-18.22-118c-9.66-38.59-22.14-76.87-38.26-112.89l9.71,1v0a127.72,127.72,0,0,1-23.67,22.85,132.69,132.69,0,0,1-28.71,15.57c-20.23,8-41.78,11.34-63.05,12.07a319.37,319.37,0,0,1-63.43-4.66,394.32,394.32,0,0,1-61.55-15.37l4.15-2.7h0c-1.74,24.73-13.18,47.54-27.69,66.79-14.78,19.28-32.56,35.85-51.48,50.67a518.26,518.26,0,0,1-59.85,40q-15.59,9-31.63,17.13-8,4.08-16.17,7.92l-8.18,3.79-4.14,1.84-2.08.91-1,.45-.27.11-.13.06.25-.11A5.76,5.76,0,0,0,125.43,384.6Z"/><path class="cls-5" d="M339.86,361.38s83.66-26.9,127.49,9.62"/><path class="cls-5" d="M444.06,289S387.25,356,404.27,410.45"/><circle class="cls-6" cx="509.5" cy="486.74" r="32.4"/><path class="cls-7" d="M492.55,514.17a32,32,0,0,0,21.36,4.67,32.41,32.41,0,0,0,27.69-36.51c-.08-.55-.28-1-.38-1.58C522.25,484.06,500.53,491,492.55,514.17Z"/><path class="cls-4" d="M193.41,147.52H170.72a5.66,5.66,0,0,1-5.45-7.14L168.93,127a6.24,6.24,0,0,1,.35-.94l12.28-25.64a5.78,5.78,0,0,1-1.83-1.55,5.62,5.62,0,0,1-1-4.9l4.29-16.09a5.63,5.63,0,0,1,5.45-4.19h20.73a5.65,5.65,0,0,1,5.46,7.11l-4.28,16.08A5.66,5.66,0,0,1,205,101h-.65l-1.59,27.75a5.71,5.71,0,0,1-.18,1.16l-3.67,13.41A5.65,5.65,0,0,1,193.41,147.52Zm-15.3-11.3h11l2.37-8.67,1.33-23.11h-.65l-12.46,26Zm13.45-46.47h9.05L201.89,85h-9Z"/><path class="cls-4" d="M193.41,153.16H170.72a11.29,11.29,0,0,1-10.9-14.26l4.36-15.29,10.56-22a11.41,11.41,0,0,1-1.44-9.07l4.29-16.09A11.3,11.3,0,0,1,188.5,68h20.73a11.3,11.3,0,0,1,10.92,14.2L215.87,98.3a11.34,11.34,0,0,1-6.18,7.34l-1.34,23.47a11.32,11.32,0,0,1-.38,2.34l-3.66,13.4A11.31,11.31,0,0,1,193.41,153.16Zm0-11.29v0l3.77-15.08-.26,2.25ZM173.6,131.3l-2.88,10.57Zm10.62-35.9L189,97.94l-14.76,31,14.35-30.16h9.53l.31,5.95L199,95.4H184.22Zm4.28-16.09-1.92,7.19,1.93-7.19Z"/><path class="cls-4" d="M253.56,147.52h-53.8a5.65,5.65,0,0,1-5.45-7.12l16.8-62.56a5.65,5.65,0,0,1,5.45-4.18h53.36a5.65,5.65,0,0,1,5.44,7.13l-4.64,17.15a5.63,5.63,0,0,1-3.81,3.93,5.57,5.57,0,0,1-.12,2.4l-4,15.11a5.47,5.47,0,0,1-.59,1.41,4.81,4.81,0,0,1,.42.48,5.67,5.67,0,0,1,1,4.89L259,143.32A5.64,5.64,0,0,1,253.56,147.52Zm-46.44-11.3h42.1l1.56-5.86h-25.9a5.65,5.65,0,0,1-5.45-7.16l1.88-6.79a5.65,5.65,0,0,1,5.44-4.14H253l1-3.81H230.77a5.63,5.63,0,0,1-5.45-7.11L227,95a5.63,5.63,0,0,1,5.45-4.19H261L262.54,85H220.89Z"/><path class="cls-4" d="M253.56,153.16h-53.8a11.3,11.3,0,0,1-10.91-14.22l16.8-62.56A11.32,11.32,0,0,1,216.56,68h53.36a11.28,11.28,0,0,1,10.89,14.25l-4.64,17.15a11.21,11.21,0,0,1-3.81,5.85,4.21,4.21,0,0,1-.12.48l-3.81,14.33a11.26,11.26,0,0,1,.61,7.51l-4.56,17.18A11.3,11.3,0,0,1,253.56,153.16Zm0-11.29h0v0l3-11.17Zm-39.07-11.29h.74a10.11,10.11,0,0,1-.49-.91Zm12.26-12.66-1.87,6.79h33.24l-3-3.07,2.15-3.72Zm-6.14-10.16-.22.84.49-.32Zm11.86-11.29-1.7,6.34h30.57L260.21,107l1.13-4.23-.83-4.9,4.77-1.44,3.09-11.42-3.1,11.42Z"/><path class="cls-4" d="M320.32,147.52H297.8a5.64,5.64,0,0,1-5.26-3.6l-3.8-9.73-2.47,9.15a5.64,5.64,0,0,1-5.45,4.18H259.91a5.65,5.65,0,0,1-5.46-7.12l16.8-62.56a5.65,5.65,0,0,1,5.45-4.18h24.41a53.45,53.45,0,0,1,16,2,26.94,26.94,0,0,1,11,6.3,21.16,21.16,0,0,1,5.1,8.1,27.1,27.1,0,0,1,1.48,9,30.72,30.72,0,0,1-1.21,8.61,25.81,25.81,0,0,1-3.94,8,27.53,27.53,0,0,1-6.82,6.45,29.63,29.63,0,0,1-3.69,2.11l6.46,15.52a5.65,5.65,0,0,1-5.21,7.82Zm-18.66-11.3h10.19l-5.41-13a5.65,5.65,0,0,1,3.55-7.57,24.46,24.46,0,0,0,6.45-3,15.83,15.83,0,0,0,4-3.75,14.12,14.12,0,0,0,2.22-4.46,19.31,19.31,0,0,0,.75-5.43,16,16,0,0,0-.85-5.25A9.72,9.72,0,0,0,320.17,90a16,16,0,0,0-6.47-3.52A42.91,42.91,0,0,0,301.11,85H281l-13.76,51.26h9.23l3.69-13.7a5.65,5.65,0,0,1,5.45-4.17h5.19a5.64,5.64,0,0,1,5.26,3.6Zm-4.48-21.5h-7.6a5.66,5.66,0,0,1-5.46-7.12l3.31-12.25a5.65,5.65,0,0,1,5.46-4.17h7.41c4.52,0,7.84,1.12,10.16,3.44a10.1,10.1,0,0,1,3,7.3,11.76,11.76,0,0,1-4.85,9.5C305.82,113.61,302,114.72,297.18,114.72Zm-.23-11.3h.23c3.05,0,4.16-.67,4.45-.88a13.28,13.28,0,0,0-1.33-.07h-3.09Zm4.78-.87C302.25,102.67,302.32,102.61,301.73,102.55Z"/><path class="cls-4" d="M320.32,153.16H297.8a11.25,11.25,0,0,1-8.5-3.83,11.34,11.34,0,0,1-8.48,3.83H259.91A11.29,11.29,0,0,1,249,138.94l16.8-62.56A11.3,11.3,0,0,1,276.7,68h24.41a58.49,58.49,0,0,1,17.71,2.31A32.56,32.56,0,0,1,332.14,78a27,27,0,0,1,6.45,10.25,32.88,32.88,0,0,1,1.78,10.8,36.41,36.41,0,0,1-1.43,10.19,31.49,31.49,0,0,1-4.81,9.71,33,33,0,0,1-7.95,7.61l4.56,11a11.29,11.29,0,0,1-10.42,15.64ZM296,137.31l1.78,4.56h22.52l-8.5-20.43,4.4-2.15a35.35,35.35,0,0,1-4.57,1.76l8.67,20.82H297.8ZM285.64,124l-3.2,11.87Zm36.2-8.31a25.72,25.72,0,0,1-2.24,1.69,22.5,22.5,0,0,1-2,1.23,20.42,20.42,0,0,0,2-1.23A24.29,24.29,0,0,0,321.84,115.69Zm-42.64-2.14-.39,1.46c.27-.2.54-.39.83-.57C279.48,114.15,279.34,113.85,279.2,113.55ZM291.49,102l-1.91,7.08h.2Zm5.75,7.08h0Zm.05,0h0Zm4.92-.64a17.78,17.78,0,0,1-4.91.64,17.78,17.78,0,0,0,4.91-.64Zm-5-3.89-.32.13Zm-4.32-7.71-1.21,4.47,1.22-4.47ZM327.56,91c.13.31.25.63.36,1a21.47,21.47,0,0,1,1.16,7.09,21.53,21.53,0,0,0-1.16-7.1C327.81,91.64,327.69,91.33,327.56,91Zm-27.21,5.81c.54,0,1,0,1.4,0C301.32,96.85,300.85,96.83,300.35,96.83Zm0,0h0Zm.79-17.52a48.22,48.22,0,0,1,14.3,1.79,23.71,23.71,0,0,1,7.18,3.54,23.48,23.48,0,0,0-7.18-3.54A47.48,47.48,0,0,0,301.11,79.31Z"/><path class="cls-4" d="M384,147.52H361.52a5.64,5.64,0,0,1-5.26-3.6l-3.79-9.73L350,143.34a5.65,5.65,0,0,1-5.46,4.18H323.63a5.65,5.65,0,0,1-5.45-7.12L335,77.84a5.66,5.66,0,0,1,5.46-4.18h24.4a53.45,53.45,0,0,1,16,2,27,27,0,0,1,11,6.3,21.4,21.4,0,0,1,5.1,8.1,27.36,27.36,0,0,1,1.47,9,30.72,30.72,0,0,1-1.21,8.61,25.81,25.81,0,0,1-3.94,8,27.66,27.66,0,0,1-6.81,6.45,31.15,31.15,0,0,1-3.69,2.11l6.46,15.52a5.66,5.66,0,0,1-5.22,7.82Zm-18.66-11.3h10.19l-5.41-13a5.64,5.64,0,0,1,3.56-7.57,24.61,24.61,0,0,0,6.45-3,16.17,16.17,0,0,0,4-3.75,14.31,14.31,0,0,0,2.21-4.46,19,19,0,0,0,.75-5.43,16,16,0,0,0-.84-5.25A9.86,9.86,0,0,0,383.89,90a16,16,0,0,0-6.47-3.52A42.91,42.91,0,0,0,364.83,85H344.76L331,136.22h9.23l3.69-13.7a5.65,5.65,0,0,1,5.46-4.17h5.18a5.64,5.64,0,0,1,5.26,3.6Zm-4.48-21.5h-7.6a5.66,5.66,0,0,1-5.45-7.12l3.3-12.25a5.66,5.66,0,0,1,5.46-4.17H364c4.52,0,7.84,1.12,10.15,3.44a10.1,10.1,0,0,1,3,7.3,11.77,11.77,0,0,1-4.84,9.5C369.55,113.61,365.7,114.72,360.9,114.72Zm-.23-11.3h.23c3.05,0,4.17-.67,4.46-.88-.32,0-.77-.07-1.33-.07h-3.1Zm4.78-.87C366,102.67,366,102.61,365.45,102.55Z"/><path class="cls-4" d="M384,153.16H361.52a11.25,11.25,0,0,1-8.5-3.83,11.34,11.34,0,0,1-8.48,3.83H323.63a11.29,11.29,0,0,1-10.91-14.22l16.8-62.56A11.31,11.31,0,0,1,340.43,68h24.4a58.49,58.49,0,0,1,17.71,2.31A32.5,32.5,0,0,1,395.86,78a27,27,0,0,1,6.46,10.25,32.88,32.88,0,0,1,1.78,10.8,36.05,36.05,0,0,1-1.44,10.19,31.27,31.27,0,0,1-4.81,9.71,32.76,32.76,0,0,1-7.94,7.61l4.56,11A11.3,11.3,0,0,1,384,153.16ZM359.61,137l1.91,4.89H384l-8.5-20.43,4.4-2.15a35.77,35.77,0,0,1-4.56,1.76L384,141.87H361.52Zm-10.24-13-3.1,11.46Zm36.18-8.3a24.06,24.06,0,0,1-2.23,1.68,22.55,22.55,0,0,1-2,1.24c.72-.39,1.4-.8,2.05-1.24A23.9,23.9,0,0,0,385.55,115.7Zm-42.62-2.15-.4,1.46c.27-.2.55-.39.83-.57C343.2,114.15,343.06,113.85,342.93,113.55ZM355.21,102l-1.91,7.08h.2Zm5.76,7.08h0Zm0,0h0Zm4.91-.64a17.33,17.33,0,0,1-4.9.64,17.41,17.41,0,0,0,4.91-.64Zm-5-3.9-.33.13Zm-4.32-7.7-1.22,4.5,1.23-4.5ZM391.28,91c.13.31.25.63.36,1a21.47,21.47,0,0,1,1.16,7.09,21.53,21.53,0,0,0-1.16-7.1C391.53,91.65,391.41,91.33,391.28,91Zm-27.21,5.81c.55,0,1,0,1.4,0C365,96.85,364.58,96.83,364.07,96.83Zm0,0h0Zm.78-17.52a48.22,48.22,0,0,1,14.3,1.79,23.69,23.69,0,0,1,7.16,3.53,23.58,23.58,0,0,0-7.16-3.53A47.44,47.44,0,0,0,364.83,79.31Z"/><path class="cls-4" d="M425,148.77a40.81,40.81,0,0,1-14.61-2.56,35.91,35.91,0,0,1-11.65-7.12A32.37,32.37,0,0,1,391,128.24a33.23,33.23,0,0,1-2.76-13.45,41.17,41.17,0,0,1,3.26-16.09,44.1,44.1,0,0,1,8.87-13.48,42.37,42.37,0,0,1,13.44-9.33A43,43,0,0,1,445.31,75,36,36,0,0,1,457,82.09,32.47,32.47,0,0,1,464.69,93a33.21,33.21,0,0,1,2.75,13.44,41.18,41.18,0,0,1-3.26,16.1A44,44,0,0,1,455.31,136a42.25,42.25,0,0,1-13.44,9.33A41.36,41.36,0,0,1,425,148.77Zm5.72-65.06a30.25,30.25,0,0,0-12.32,2.5,31.27,31.27,0,0,0-9.89,6.85,33,33,0,0,0-6.6,10,29.85,29.85,0,0,0-2.36,11.69,21.72,21.72,0,0,0,1.8,8.9,21.06,21.06,0,0,0,5.05,7.11,24.91,24.91,0,0,0,8,4.86A31.84,31.84,0,0,0,437.3,135a31.23,31.23,0,0,0,9.88-6.85,32.84,32.84,0,0,0,6.6-10,29.83,29.83,0,0,0,2.37-11.69,21.93,21.93,0,0,0-1.8-8.89,21.09,21.09,0,0,0-5.06-7.12,24.91,24.91,0,0,0-8-4.86A29.58,29.58,0,0,0,430.69,83.71Zm-4.29,46.65a18.43,18.43,0,0,1-7.19-1.34,15.27,15.27,0,0,1-5.6-3.94,17.1,17.1,0,0,1-3.3-5.63,19.51,19.51,0,0,1-1.08-6.54,23.22,23.22,0,0,1,1.35-7.76,22.64,22.64,0,0,1,3.83-7A21.23,21.23,0,0,1,420.57,93a19.14,19.14,0,0,1,15.77-.89,15.41,15.41,0,0,1,5.71,4,17.1,17.1,0,0,1,3.3,5.63,19.26,19.26,0,0,1,1.09,6.54A23.49,23.49,0,0,1,445.1,116a23.2,23.2,0,0,1-3.86,7,21,21,0,0,1-6.14,5.18A17.65,17.65,0,0,1,426.4,130.36Zm2.86-28.25a6.34,6.34,0,0,0-3.18.76,9.78,9.78,0,0,0-2.88,2.42,11.6,11.6,0,0,0-2,3.58,12.14,12.14,0,0,0-.72,4,8.2,8.2,0,0,0,.44,2.76,5.53,5.53,0,0,0,1.09,1.9,4.08,4.08,0,0,0,1.5,1,7.78,7.78,0,0,0,6-.29,9.87,9.87,0,0,0,2.87-2.42,12,12,0,0,0,2-3.59,12.26,12.26,0,0,0,.7-4,8.2,8.2,0,0,0-.43-2.76,5.7,5.7,0,0,0-1.09-1.9,4.12,4.12,0,0,0-1.55-1A7.47,7.47,0,0,0,429.26,102.11Z"/><path class="cls-4" d="M425,154.42a46.59,46.59,0,0,1-16.63-2.93,41.66,41.66,0,0,1-13.46-8.25,38.25,38.25,0,0,1-9.07-12.72,38.88,38.88,0,0,1-3.23-15.73,46.66,46.66,0,0,1,3.7-18.28,49.51,49.51,0,0,1,10-15.21A48,48,0,0,1,411.5,70.73a48.66,48.66,0,0,1,35.84-1,41.74,41.74,0,0,1,13.45,8.24,38,38,0,0,1,9.07,12.75,38.59,38.59,0,0,1,3.23,15.7,46.77,46.77,0,0,1-3.71,18.3,49.69,49.69,0,0,1-10,15.19,48.07,48.07,0,0,1-15.22,10.57A47,47,0,0,1,425,154.42Zm-22-19.06a30.72,30.72,0,0,0,9.38,5.58,37.56,37.56,0,0,0,26.19-.38,37.55,37.55,0,0,1-26.19.38A31,31,0,0,1,403,135.36Zm0,0Zm54.22-11.42a37,37,0,0,1-9.39,11.23,37,37,0,0,0,9.39-11.23Zm-61.56.82c.16.41.33.81.51,1.22s.35.78.54,1.17c-.19-.39-.37-.78-.55-1.19S395.81,125.15,395.65,124.75Zm22-3.65c.07.08.13.16.2.23a9.56,9.56,0,0,0,2.82,2.15,9.33,9.33,0,0,1-2.84-2.17ZM433,122.83l-.69.41-.12.06.12-.06Zm-18.16-9.92a14,14,0,0,0,.76,4.65c.11.31.23.61.37.91-.14-.3-.26-.61-.37-.92A13.94,13.94,0,0,1,414.87,112.91Zm14.39-5.15a.92.92,0,0,0-.42,0,4.06,4.06,0,0,0-1.25,1,6.16,6.16,0,0,0-1,1.9,6.51,6.51,0,0,0-.4,2.18c-.2.55.48.54.72.44a4.31,4.31,0,0,0,1.18-1,6.8,6.8,0,0,0,1.43-4.08ZM415,110.71a16.26,16.26,0,0,0-.15,2.2A16.26,16.26,0,0,1,415,110.71Zm0,0Zm24.65-8c.13.3.26.61.37.92a13.94,13.94,0,0,1,.75,4.64,13.7,13.7,0,0,0-.76-4.65C439.92,103.31,439.8,103,439.67,102.71Zm19.6-8c.08.19.17.37.25.56a27.49,27.49,0,0,1,2.27,11.16,27.43,27.43,0,0,0-2.27-11.16C459.44,95,459.35,94.86,459.27,94.67Zm-40.38,7-.09.1c-.14.17-.27.34-.4.52l.41-.54Zm15.45-4.24a9.77,9.77,0,0,1,3.51,2.47l.16.18-.19-.21A9.6,9.6,0,0,0,434.34,97.41Zm-10.73.38-.28.15c-.22.13-.44.25-.65.39.21-.14.43-.26.65-.39ZM407.84,86a34.76,34.76,0,0,0-3.42,3.11,38.06,38.06,0,0,0-4.48,5.63,38.06,38.06,0,0,1,4.48-5.63A36.05,36.05,0,0,1,407.84,86Zm38-4.71a29.68,29.68,0,0,1,6.86,4.49A29.68,29.68,0,0,0,445.79,81.32Z"/><path class="cls-4" d="M518.82,147.52H496.29a5.66,5.66,0,0,1-5.26-3.6l-3.79-9.73-2.47,9.15a5.65,5.65,0,0,1-5.46,4.18H458.4A5.65,5.65,0,0,1,453,140.4l16.79-62.56a5.67,5.67,0,0,1,5.46-4.18h24.4a53.45,53.45,0,0,1,16,2,27,27,0,0,1,11,6.3,21.4,21.4,0,0,1,5.1,8.1,27.36,27.36,0,0,1,1.47,9,30.72,30.72,0,0,1-1.21,8.61,25.81,25.81,0,0,1-3.94,8,27.66,27.66,0,0,1-6.81,6.45,31.15,31.15,0,0,1-3.69,2.11L524,139.7a5.66,5.66,0,0,1-5.21,7.82Zm-18.67-11.3h10.19l-5.41-13a5.64,5.64,0,0,1,3.56-7.57,24.61,24.61,0,0,0,6.45-3,16.17,16.17,0,0,0,4-3.75,14.56,14.56,0,0,0,2.22-4.46,19.31,19.31,0,0,0,.75-5.43,16,16,0,0,0-.85-5.25A9.86,9.86,0,0,0,518.66,90a16,16,0,0,0-6.47-3.52A42.91,42.91,0,0,0,499.6,85H479.53l-13.77,51.26H475l3.69-13.7a5.65,5.65,0,0,1,5.46-4.17h5.18a5.64,5.64,0,0,1,5.26,3.6Zm-4.48-21.5h-7.6a5.66,5.66,0,0,1-5.45-7.12l3.3-12.25a5.66,5.66,0,0,1,5.46-4.17h7.42c4.52,0,7.84,1.12,10.15,3.44a10.1,10.1,0,0,1,3,7.3,11.77,11.77,0,0,1-4.84,9.5C504.32,113.61,500.47,114.72,495.67,114.72Zm-.23-11.3h.23c3.05,0,4.17-.67,4.46-.88-.32,0-.77-.07-1.33-.07h-3.1Zm4.78-.87C500.75,102.67,500.81,102.61,500.22,102.55Z"/><path class="cls-4" d="M518.82,153.16H496.29a11.25,11.25,0,0,1-8.5-3.83,11.34,11.34,0,0,1-8.48,3.83H458.4a11.29,11.29,0,0,1-10.91-14.22l16.8-62.56A11.31,11.31,0,0,1,475.2,68h24.4a58.56,58.56,0,0,1,17.72,2.31A32.52,32.52,0,0,1,530.63,78a27,27,0,0,1,6.46,10.25,32.88,32.88,0,0,1,1.78,10.8,36.05,36.05,0,0,1-1.44,10.19,31.27,31.27,0,0,1-4.81,9.71,32.76,32.76,0,0,1-7.94,7.61l4.56,11a11.3,11.3,0,0,1-10.42,15.64ZM494.38,137l1.91,4.89h22.53l-8.51-20.43,4.4-2.15a35.77,35.77,0,0,1-4.56,1.76l8.66,20.82H496.29Zm-10.24-13L481,135.46Zm36.18-8.3a24.06,24.06,0,0,1-2.23,1.68,22.55,22.55,0,0,1-2,1.24c.72-.39,1.4-.8,2.05-1.24A23.9,23.9,0,0,0,520.32,115.7Zm-42.62-2.15-.39,1.46c.26-.2.54-.39.82-.57C478,114.15,477.83,113.85,477.7,113.55ZM490,102l-1.91,7.08h.2Zm5.76,7.08h0Zm.05,0h0Zm4.91-.65a17.38,17.38,0,0,1-4.91.65,17.41,17.41,0,0,0,4.92-.65Zm-5-3.87-.31.12Zm-4.32-7.72-1.22,4.5,1.23-4.5ZM526.05,91c.13.31.25.63.36,1a21.47,21.47,0,0,1,1.16,7.09,21.53,21.53,0,0,0-1.16-7.1C526.3,91.65,526.18,91.33,526.05,91Zm-27.21,5.81c.55,0,1,0,1.4,0C499.81,96.85,499.35,96.83,498.84,96.83Zm0,0h0Zm.78-17.52a48.22,48.22,0,0,1,14.3,1.79,23.87,23.87,0,0,1,7.17,3.53,23.76,23.76,0,0,0-7.17-3.53A47.44,47.44,0,0,0,499.6,79.31Z"/><path class="cls-4" d="M543.39,147.52H522.66a5.65,5.65,0,0,1-5.46-7.11l4.3-16.08a5.63,5.63,0,0,1,5.45-4.19h.64l1.59-27.75a5.71,5.71,0,0,1,.18-1.16L533,77.82a5.65,5.65,0,0,1,5.45-4.16h22.7a5.66,5.66,0,0,1,5.45,7.14L563,94.21l-12.64,26.58a5.59,5.59,0,0,1,1.84,1.55,5.66,5.66,0,0,1,1,4.9l-4.29,16.09A5.65,5.65,0,0,1,543.39,147.52ZM530,136.22h9l1.28-4.79h-9Zm9.08-19.48h.66l12.67-26.46L553.83,85h-11l-2.37,8.67Z"/><path class="cls-4" d="M543.39,153.16H522.66A11.28,11.28,0,0,1,511.75,139L516,122.87a11.29,11.29,0,0,1,6.16-7.33l1.34-23.47a11.32,11.32,0,0,1,.38-2.34l3.66-13.4A11.33,11.33,0,0,1,538.48,68h22.7a11.29,11.29,0,0,1,10.9,14.26l-3.67,13.41-11.28,23.9a11.4,11.4,0,0,1,1.47,9.1l-4.3,16.09A11.28,11.28,0,0,1,543.39,153.16Zm0-11.29h0l.8-3Zm-10.47-16.09h14.76l-4.77-2.53,1.42-3-1,2.14h-9.54l-.31-6Zm25.71-36.89-.75,2.85L551.1,106Zm2.55-9.58h-22.7l-3.72,14.27.21-1.44,3.51-12.83Z"/><path class="cls-8" d="M193.48,146.09h-22.7a4.24,4.24,0,0,1-4.08-5.35l3.66-13.41a3.55,3.55,0,0,1,.26-.71l13-27.06a4.29,4.29,0,0,1-2.67-1.6,4.24,4.24,0,0,1-.74-3.67l4.3-16.09a4.23,4.23,0,0,1,4.09-3.14H209.3a4.22,4.22,0,0,1,4.09,5.32L209.1,96.47A4.23,4.23,0,0,1,205,99.61h-2l-1.67,29.08L197.57,143A4.24,4.24,0,0,1,193.48,146.09Zm-17.15-8.47h13.92l2.81-10.29L194.37,103h-3.05l-12.89,26.92Zm13.46-46.48h12l2-7.61h-12Z"/><path class="cls-8" d="M253.63,146.09h-53.8a4.24,4.24,0,0,1-4.09-5.34L212.53,78.2a4.24,4.24,0,0,1,4.1-3.14H270a4.23,4.23,0,0,1,4.09,5.34l-4.65,17.16a4.22,4.22,0,0,1-4.08,3.12h-.26a4.28,4.28,0,0,1,.42,3.21l-4,15.1a4.15,4.15,0,0,1-1.21,2,4.13,4.13,0,0,1,1.28,1.11,4.27,4.27,0,0,1,.74,3.67l-4.56,17.16A4.23,4.23,0,0,1,253.63,146.09Zm-48.28-8.47h45l2.31-8.69H224.94a4.24,4.24,0,0,1-4.08-5.36l1.88-6.79a4.22,4.22,0,0,1,4.08-3.11h27.31L255.9,107H230.84a4.23,4.23,0,0,1-4.09-5.33l1.69-6.35a4.25,4.25,0,0,1,4.1-3.14H262.1l2.35-8.68H219.87Z"/><path class="cls-8" d="M320.39,146.09H297.86a4.23,4.23,0,0,1-3.94-2.7l-5.36-13.73L285,143a4.24,4.24,0,0,1-4.09,3.13H260a4.24,4.24,0,0,1-4.09-5.34l16.8-62.55a4.23,4.23,0,0,1,4.09-3.14h24.4a51.9,51.9,0,0,1,15.58,2A25.42,25.42,0,0,1,327.22,83,19.78,19.78,0,0,1,332,90.55a25.67,25.67,0,0,1,1.4,8.49,29.34,29.34,0,0,1-1.15,8.21,24.27,24.27,0,0,1-3.73,7.52,26.07,26.07,0,0,1-6.46,6.11,31.09,31.09,0,0,1-4.72,2.58l7,16.77a4.24,4.24,0,0,1-3.91,5.86Zm-19.63-8.47H314l-6.22-15a4.25,4.25,0,0,1,2.66-5.68,25.45,25.45,0,0,0,6.83-3.13,17.54,17.54,0,0,0,4.37-4.08,15.87,15.87,0,0,0,2.43-4.91,20.51,20.51,0,0,0,.81-5.82,17.48,17.48,0,0,0-.93-5.71A11.24,11.24,0,0,0,321.23,89a17.26,17.26,0,0,0-7-3.86,44,44,0,0,0-13-1.59H280l-14.53,54.09h12.15l4-14.74a4.25,4.25,0,0,1,4.09-3.14h5.18a4.23,4.23,0,0,1,3.95,2.7Zm-3.52-24.33h-7.6a4.23,4.23,0,0,1-4.08-5.34l3.3-12.25A4.25,4.25,0,0,1,293,92.57h7.42c4.12,0,7.12,1,9.16,3a8.72,8.72,0,0,1,2.58,6.3,10.41,10.41,0,0,1-4.3,8.39C305.23,112.3,301.78,113.29,297.24,113.29Zm-2.07-8.47h2.07c3.16,0,4.64-.66,5.34-1.2,1.06-.83,1.06-1.41,1.06-1.72s-.77-.86-3.27-.86h-4.18Z"/><path class="cls-8" d="M384.11,146.09H361.59a4.24,4.24,0,0,1-3.95-2.7l-5.36-13.73L348.69,143a4.23,4.23,0,0,1-4.08,3.13H323.7a4.25,4.25,0,0,1-4.1-5.34L336.4,78.2a4.23,4.23,0,0,1,4.09-3.14H364.9a52,52,0,0,1,15.58,2A25.45,25.45,0,0,1,390.94,83a19.92,19.92,0,0,1,4.77,7.56A25.93,25.93,0,0,1,397.1,99a29,29,0,0,1-1.15,8.21,24.27,24.27,0,0,1-3.73,7.52,25.9,25.9,0,0,1-6.46,6.11,31.09,31.09,0,0,1-4.72,2.58l7,16.77a4.24,4.24,0,0,1-3.91,5.86Zm-19.63-8.47h13.28l-6.23-15a4.25,4.25,0,0,1,2.66-5.68,25.45,25.45,0,0,0,6.83-3.13,17.54,17.54,0,0,0,4.37-4.08,15.87,15.87,0,0,0,2.43-4.91,20.16,20.16,0,0,0,.81-5.82,17.48,17.48,0,0,0-.92-5.71A11.27,11.27,0,0,0,385,89a17.19,17.19,0,0,0-7-3.86,44,44,0,0,0-13-1.59H343.74l-14.52,54.09h12.15l4-14.74a4.23,4.23,0,0,1,4.08-3.14h5.19a4.25,4.25,0,0,1,3.95,2.7ZM361,113.29h-7.59a4.28,4.28,0,0,1-3.37-1.66,4.22,4.22,0,0,1-.72-3.68l3.31-12.25a4.23,4.23,0,0,1,4.08-3.13h7.42c4.13,0,7.13,1,9.16,3a8.72,8.72,0,0,1,2.58,6.3,10.38,10.38,0,0,1-4.3,8.39C369,112.3,365.5,113.29,361,113.29Zm-2.06-8.47H361c3.16,0,4.65-.66,5.34-1.2,1.06-.83,1.06-1.41,1.06-1.72s-.76-.86-3.27-.86h-4.17Z"/><path class="cls-8" d="M425,147.34a39.44,39.44,0,0,1-14.12-2.47A34.82,34.82,0,0,1,399.73,138a31.2,31.2,0,0,1-7.39-10.39,31.81,31.81,0,0,1-2.64-12.88,39.71,39.71,0,0,1,3.15-15.54,42.53,42.53,0,0,1,8.59-13,40.77,40.77,0,0,1,43.44-9.9,34.43,34.43,0,0,1,11.18,6.83,31,31,0,0,1,7.4,10.39,31.65,31.65,0,0,1,2.63,12.87,39.69,39.69,0,0,1-3.15,15.55,42.39,42.39,0,0,1-8.58,13,41,41,0,0,1-13,9A40,40,0,0,1,425,147.34Zm5.72-65.06a31.56,31.56,0,0,0-12.9,2.63,32.59,32.59,0,0,0-10.33,7.15,34.23,34.23,0,0,0-6.88,10.47,31.36,31.36,0,0,0-2.48,12.24,23.43,23.43,0,0,0,1.92,9.47,23,23,0,0,0,5.39,7.58A26.21,26.21,0,0,0,414,137a33.25,33.25,0,0,0,24-.72,32.67,32.67,0,0,0,10.33-7.16,34,34,0,0,0,6.89-10.47,31.27,31.27,0,0,0,2.47-12.24,23.19,23.19,0,0,0-1.92-9.46,22.64,22.64,0,0,0-5.38-7.58,26.56,26.56,0,0,0-8.48-5.15A31,31,0,0,0,430.76,82.28Zm-4.29,46.65a17.18,17.18,0,0,1-6.65-1.23,13.79,13.79,0,0,1-5.09-3.58,15.6,15.6,0,0,1-3-5.16,18,18,0,0,1-1-6.07A22,22,0,0,1,412,105.6a21.73,21.73,0,0,1,3.61-6.54,19.64,19.64,0,0,1,5.74-4.83,17.67,17.67,0,0,1,14.56-.81A14,14,0,0,1,441.07,97a15.45,15.45,0,0,1,3,5.15,18.06,18.06,0,0,1,1,6.07,22.06,22.06,0,0,1-1.26,7.29,21.83,21.83,0,0,1-3.61,6.55,19.83,19.83,0,0,1-5.75,4.83A16.19,16.19,0,0,1,426.47,128.93Zm2.86-28.25a7.79,7.79,0,0,0-3.88.94,11.12,11.12,0,0,0-3.29,2.77,13.13,13.13,0,0,0-2.19,4,13.57,13.57,0,0,0-.8,4.5,9.79,9.79,0,0,0,.52,3.24,7,7,0,0,0,1.37,2.36,5.32,5.32,0,0,0,2,1.39,9.23,9.23,0,0,0,7.26-.36,10.86,10.86,0,0,0,3.29-2.77,13.13,13.13,0,0,0,2.2-4,13.51,13.51,0,0,0,.79-4.5,9.43,9.43,0,0,0-.52-3.23,7,7,0,0,0-1.36-2.36,5.48,5.48,0,0,0-2.07-1.4A8.87,8.87,0,0,0,429.33,100.68Z"/><path class="cls-8" d="M518.88,146.09H496.36a4.24,4.24,0,0,1-3.95-2.7l-5.35-13.73-3.6,13.3a4.23,4.23,0,0,1-4.08,3.13H458.47a4.25,4.25,0,0,1-4.1-5.34l16.8-62.55a4.23,4.23,0,0,1,4.09-3.14h24.41a52,52,0,0,1,15.58,2A25.45,25.45,0,0,1,525.71,83a19.92,19.92,0,0,1,4.77,7.56A25.67,25.67,0,0,1,531.87,99a29,29,0,0,1-1.15,8.21,24.27,24.27,0,0,1-3.73,7.52,26,26,0,0,1-6.45,6.11,31.21,31.21,0,0,1-4.73,2.58l7,16.77a4.24,4.24,0,0,1-3.91,5.86Zm-19.63-8.47h13.28l-6.23-15A4.24,4.24,0,0,1,509,117a25.38,25.38,0,0,0,6.82-3.13,17.54,17.54,0,0,0,4.37-4.08,15.87,15.87,0,0,0,2.43-4.91A20.16,20.16,0,0,0,523.4,99a17.48,17.48,0,0,0-.92-5.71A11.27,11.27,0,0,0,519.72,89a17.12,17.12,0,0,0-7-3.86,44,44,0,0,0-13-1.59H478.51L464,137.62h12.15l4-14.74a4.23,4.23,0,0,1,4.08-3.14h5.19a4.25,4.25,0,0,1,3.95,2.7Zm-3.51-24.33h-7.6a4.28,4.28,0,0,1-3.37-1.66,4.22,4.22,0,0,1-.72-3.68l3.31-12.25a4.23,4.23,0,0,1,4.08-3.13h7.42c4.13,0,7.13,1,9.16,3a8.72,8.72,0,0,1,2.58,6.3,10.38,10.38,0,0,1-4.3,8.39C503.73,112.3,500.27,113.29,495.74,113.29Zm-2.07-8.47h2.07c3.15,0,4.64-.66,5.33-1.2,1.06-.83,1.06-1.41,1.06-1.72s-.76-.86-3.27-.86h-4.17Z"/><path class="cls-8" d="M543.46,146.09H522.72a4.25,4.25,0,0,1-4.09-5.33l4.29-16.09a4.25,4.25,0,0,1,4.1-3.14h2l1.67-29.07a4.94,4.94,0,0,1,.14-.87l3.66-13.41a4.25,4.25,0,0,1,4.09-3.12h22.71a4.22,4.22,0,0,1,4.08,5.35l-3.67,13.41-13.23,27.77a4.21,4.21,0,0,1,2.68,1.59,4.25,4.25,0,0,1,.73,3.68l-4.29,16.08A4.23,4.23,0,0,1,543.46,146.09Zm-15.22-8.47h12l2-7.62h-12Zm9.42-19.49h3l13.06-27.26,2-7.34h-14l-2.69,9.85Z"/><polygon class="cls-2" points="209.23 79.27 188.5 79.27 184.21 95.35 204.95 95.35 209.23 79.27"/><path class="cls-2" d="M188.59,98.75l-2.36,4.92c4.11-.59,8.23-1,12.35-1.45l.2-3.47Z"/><path class="cls-3" d="M174.38,128.42l-3.66,13.41h22.69l3.67-13.41,1.5-26.2c-4.12.43-8.24.86-12.35,1.45Z"/><path class="cls-2" d="M232.47,96.42h32.8l4.65-17.15H216.56l-5.89,21.93q10.35-.7,20.75-.85Z"/><path class="cls-3" d="M210.67,101.2l-10.91,40.63h53.8l4.56-17.17H224.88l1.87-6.78h30.56l4-15.11H230.77l.65-2.42Q221,100.49,210.67,101.2Z"/><path class="cls-3" d="M305.13,106.93c-1.79,1.4-4.44,2.09-7.95,2.09h-7.6l1.57-5.82c-6.8-.66-13.61-1.26-20.41-1.71l-10.83,40.34h20.91L285.64,124h5.19l7,17.88h22.52L311.65,121a29.54,29.54,0,0,0,8-3.66,21.54,21.54,0,0,0,5.41-5.1,19.46,19.46,0,0,0,2.39-4.81q-10.23-1.35-20.49-2.55A7.36,7.36,0,0,1,305.13,106.93Z"/><path class="cls-2" d="M329.08,99a21.66,21.66,0,0,0-1.16-7.1A15.69,15.69,0,0,0,324.17,86a21.31,21.31,0,0,0-8.76-4.92,48.21,48.21,0,0,0-14.3-1.78H276.7l-6,22.22c6.8.45,13.61,1.05,20.41,1.71l1.74-6.42h7.41q4.38,0,6.17,1.79a4.49,4.49,0,0,1,1.34,3.31,5.79,5.79,0,0,1-.9,3q10.26,1.19,20.49,2.55c.19-.48.55-.89.7-1.4A25,25,0,0,0,329.08,99Z"/><path class="cls-3" d="M385.21,115.57c-17.39-2.43-34.93-5-52.53-7.44l-9.05,33.7h20.91L349.37,124h5.18l7,17.88H384L375.38,121a29.83,29.83,0,0,0,7.95-3.66A22.67,22.67,0,0,0,385.21,115.57Z"/><path class="cls-2" d="M388.74,112.24a20,20,0,0,0,3.08-6.21,24.6,24.6,0,0,0,1-7,21.4,21.4,0,0,0-1.16-7.1A15.57,15.57,0,0,0,387.89,86a21.25,21.25,0,0,0-8.76-4.92,48.17,48.17,0,0,0-14.3-1.78h-24.4l-7.75,28.86c17.6,2.39,35.14,5,52.53,7.44A22,22,0,0,0,388.74,112.24Zm-19.89-5.31c-1.79,1.4-4.44,2.09-8,2.09h-7.6l3.31-12.24H364c2.91,0,5,.6,6.16,1.79a4.49,4.49,0,0,1,1.34,3.31A6.23,6.23,0,0,1,368.85,106.93Z"/><path class="cls-2" d="M461.79,106.34a27.24,27.24,0,0,0-2.28-11.16,26.6,26.6,0,0,0-6.39-9,30.42,30.42,0,0,0-9.82-6A35,35,0,0,0,430.69,78a35.56,35.56,0,0,0-14.61,3,36.6,36.6,0,0,0-11.66,8.09,38.28,38.28,0,0,0-7.74,11.75,35.45,35.45,0,0,0-2.81,13.9c0,.7.16,1.34.2,2,7.64,1,15.25,2,22.82,2.9a10.92,10.92,0,0,1-1.26-2.15,14,14,0,0,1-.76-4.65,17.71,17.71,0,0,1,1-5.9,17.53,17.53,0,0,1,2.9-5.27,15.48,15.48,0,0,1,4.52-3.8,12,12,0,0,1,5.94-1.48,13.13,13.13,0,0,1,5,.9,9.66,9.66,0,0,1,3.62,2.5,11.27,11.27,0,0,1,2.19,3.76,13.65,13.65,0,0,1,.76,4.64,17.91,17.91,0,0,1-1,5.9,17.43,17.43,0,0,1-2.91,5.27,15.86,15.86,0,0,1-2.51,2.11q11.61,1.09,23,1.71c.53-1,1.14-1.92,1.59-3A35.42,35.42,0,0,0,461.79,106.34Z"/><path class="cls-3" d="M432.34,123.19a12,12,0,0,1-5.94,1.47,12.86,12.86,0,0,1-5-.89,9.71,9.71,0,0,1-3.58-2.5,11.51,11.51,0,0,1-.93-1.6c-7.57-.88-15.18-1.87-22.82-2.9a27.22,27.22,0,0,0,2.08,9.15,26.8,26.8,0,0,0,6.39,9,30.3,30.3,0,0,0,9.83,6,35.16,35.16,0,0,0,12.6,2.19,35.56,35.56,0,0,0,14.61-3A36.6,36.6,0,0,0,451.25,132a37.44,37.44,0,0,0,6.14-8.78q-11.44-.63-23-1.71A14.86,14.86,0,0,1,432.34,123.19Z"/><path class="cls-3" d="M463.31,123.56l-4.91,18.27h20.91L484.14,124h5.18l7,17.88h22.53l-8-19.16A359,359,0,0,1,463.31,123.56Z"/><path class="cls-2" d="M510.84,122.67l-.69-1.67a29.68,29.68,0,0,0,8-3.66,21.71,21.71,0,0,0,5.41-5.1,20,20,0,0,0,3.08-6.21,24.6,24.6,0,0,0,1-7,21.4,21.4,0,0,0-1.16-7.1A15.45,15.45,0,0,0,522.66,86a21.25,21.25,0,0,0-8.76-4.92,48.17,48.17,0,0,0-14.3-1.78H475.2l-11.89,44.29A359,359,0,0,0,510.84,122.67ZM491.38,96.78h7.42c2.91,0,5,.6,6.16,1.79a4.46,4.46,0,0,1,1.34,3.31,6.23,6.23,0,0,1-2.68,5.05c-1.78,1.4-4.44,2.09-7.95,2.09h-7.6Z"/><path class="cls-2" d="M557.51,92.67l3.67-13.4h-22.7l-3.67,13.4-1.54,27q6.35-1.14,12.59-2.62Z"/><polygon class="cls-3" points="522.66 141.83 543.39 141.83 547.68 125.74 526.95 125.74 522.66 141.83"/><path class="cls-3" d="M543.31,122.34l2.55-5.34q-6.25,1.48-12.59,2.62l-.16,2.72Z"/></svg>